<svg width="535" height="561" viewBox="0 0 535 561" fill="none" xmlns="http://www.w3.org/2000/svg">
<path d="M281.927 534.411C276.404 534.411 271.13 533.194 267.196 530.709L95.1217 422.066C91.2722 419.636 89.1512 416.258 89.1512 412.558C89.1512 408.108 92.2043 403.629 97.5312 400.266L264.78 294.67C274.786 288.352 289.987 287.669 298.662 293.149L470.736 401.79C474.586 404.22 476.705 407.597 476.707 411.297C476.707 415.746 473.654 420.227 468.327 423.59L301.078 529.185C295.609 532.642 288.587 534.411 281.927 534.411ZM283.93 290.143C277.388 290.143 270.484 291.885 265.102 295.282L97.853 400.878C92.7338 404.111 89.7976 408.368 89.7976 412.559C89.7976 415.999 91.8032 419.159 95.4435 421.458L267.517 530.1C276.02 535.468 290.927 534.784 300.757 528.577L468.006 422.982C473.126 419.749 476.062 415.491 476.062 411.3C476.062 407.86 474.056 404.702 470.416 402.403L298.342 293.761C294.495 291.333 289.336 290.143 283.93 290.143Z" fill="#6EE8FC"/>
<path opacity="0.3" d="M239.07 397.052C317.641 397.052 381.335 356.838 381.335 307.231C381.335 257.624 317.641 217.41 239.07 217.41C160.5 217.41 96.8055 257.624 96.8055 307.231C96.8055 356.838 160.5 397.052 239.07 397.052Z" fill="url(#paint0_radial_1307_1211)"/>
<path opacity="0.3" d="M392.735 560.454C471.306 560.454 535 520.239 535 470.631C535 421.024 471.306 380.809 392.735 380.809C314.164 380.809 250.47 421.024 250.47 470.631C250.47 520.239 314.164 560.454 392.735 560.454Z" fill="url(#paint1_radial_1307_1211)"/>
<path opacity="0.3" d="M109.384 457.881C169.795 457.881 218.768 426.961 218.768 388.819C218.768 350.677 169.795 319.757 109.384 319.757C48.9729 319.757 0 350.677 0 388.819C0 426.961 48.9729 457.881 109.384 457.881Z" fill="url(#paint2_radial_1307_1211)"/>
<path d="M240.334 324.661C247.507 324.661 253.321 318.303 253.321 310.459C253.321 302.616 247.507 296.257 240.334 296.257C233.162 296.257 227.347 302.616 227.347 310.459C227.347 318.303 233.162 324.661 240.334 324.661Z" fill="url(#paint3_radial_1307_1211)"/>
<path d="M244.037 310.459C244.037 312.695 242.379 314.508 240.334 314.508C238.29 314.508 236.632 312.695 236.632 310.459C236.632 308.224 238.29 306.411 240.334 306.411C242.379 306.411 244.037 308.224 244.037 310.459Z" fill="#6EE8FC"/>
<path d="M109.384 407.504C116.557 407.504 122.371 401.145 122.371 393.302C122.371 385.458 116.557 379.1 109.384 379.1C102.212 379.1 96.3972 385.458 96.3972 393.302C96.3972 401.145 102.212 407.504 109.384 407.504Z" fill="url(#paint4_radial_1307_1211)"/>
<path d="M113.086 393.302C113.086 395.538 111.429 397.351 109.384 397.351C107.34 397.351 105.682 395.538 105.682 393.302C105.682 391.066 107.34 389.253 109.384 389.253C111.429 389.253 113.086 391.066 113.086 393.302Z" fill="#6EE8FC"/>
<path d="M393.622 484.554C400.795 484.554 406.609 478.196 406.609 470.352C406.609 462.509 400.795 456.15 393.622 456.15C386.45 456.15 380.635 462.509 380.635 470.352C380.635 478.196 386.45 484.554 393.622 484.554Z" fill="url(#paint5_radial_1307_1211)"/>
<path d="M393.622 474.401C395.667 474.401 397.325 472.588 397.325 470.352C397.325 468.116 395.667 466.304 393.622 466.304C391.578 466.304 389.92 468.116 389.92 470.352C389.92 472.588 391.578 474.401 393.622 474.401Z" fill="#6EE8FC"/>
<path d="M417.698 469.039C424.87 469.039 430.685 462.681 430.685 454.837C430.685 446.994 424.87 440.635 417.698 440.635C410.525 440.635 404.711 446.994 404.711 454.837C404.711 462.681 410.525 469.039 417.698 469.039Z" fill="url(#paint6_radial_1307_1211)"/>
<path d="M421.4 454.837C421.4 457.073 419.742 458.886 417.698 458.886C415.653 458.886 413.995 457.073 413.995 454.837C413.995 452.602 415.653 450.789 417.698 450.789C419.742 450.789 421.4 452.602 421.4 454.837Z" fill="#6EE8FC"/>
<path d="M441.773 453.76C448.945 453.76 454.76 447.401 454.76 439.558C454.76 431.714 448.945 425.356 441.773 425.356C434.6 425.356 428.786 431.714 428.786 439.558C428.786 447.401 434.6 453.76 441.773 453.76Z" fill="url(#paint7_radial_1307_1211)"/>
<path d="M445.475 439.558C445.475 441.793 443.817 443.606 441.773 443.606C439.728 443.606 438.07 441.793 438.07 439.558C438.07 437.322 439.728 435.509 441.773 435.509C443.819 435.509 445.475 437.322 445.475 439.558Z" fill="#6EE8FC"/>
<path d="M266.538 499.46L143.898 422.029C134.579 416.146 135.748 405.869 146.508 399.075L263.923 324.944C274.684 318.15 290.96 317.413 300.28 323.296L422.919 400.727C432.238 406.611 431.07 416.887 420.309 423.681L302.894 497.813C292.134 504.605 275.857 505.344 266.538 499.46Z" fill="#0A0E2D"/>
<path d="M444.842 332.145V304.416H379.431L302.095 255.588C291.773 249.072 273.745 249.889 261.827 257.414L187.382 304.416H121.922V333.715H121.976C121.682 338.125 123.931 342.382 128.891 345.512L264.724 431.272C275.046 437.789 293.074 436.971 304.992 429.447L435.038 347.339C441.911 343 445.228 337.377 444.842 332.145Z" fill="#312A91"/>
<path opacity="0.5" d="M444.842 332.145V304.416H379.431L302.095 255.588C291.773 249.072 273.745 249.889 261.827 257.414L187.382 304.416H121.922V333.715H121.976C121.682 338.125 123.931 342.382 128.891 345.512L264.724 431.272C275.046 437.789 293.074 436.971 304.992 429.447L435.038 347.339C441.911 343 445.228 337.377 444.842 332.145Z" fill="url(#paint8_linear_1307_1211)"/>
<path d="M302.095 255.588C297.133 252.455 290.386 251.035 283.397 251.223V435.64C290.953 435.441 298.797 433.36 304.991 429.448L435.036 347.341C441.911 343 445.228 337.379 444.842 332.145V304.416H379.431L302.095 255.588Z" fill="url(#paint9_linear_1307_1211)"/>
<path d="M264.723 401.974L128.89 316.212C118.568 309.696 119.864 298.313 131.782 290.788L261.827 208.681C273.745 201.156 291.773 200.339 302.095 206.855L437.928 292.617C448.25 299.134 446.954 310.516 435.036 318.041L304.991 400.148C293.073 407.673 275.045 408.49 264.723 401.974Z" fill="#312A91"/>
<path opacity="0.5" d="M264.723 401.974L128.89 316.212C118.568 309.696 119.864 298.313 131.782 290.788L261.827 208.681C273.745 201.156 291.773 200.339 302.095 206.855L437.928 292.617C448.25 299.134 446.954 310.516 435.036 318.041L304.991 400.148C293.073 407.673 275.045 408.49 264.723 401.974Z" fill="url(#paint10_linear_1307_1211)"/>
<path d="M268.354 383.019L158.914 313.921C150.597 308.67 151.64 299.5 161.244 293.438L266.023 227.284C275.625 221.222 290.151 220.562 298.466 225.813L407.908 294.911C416.225 300.162 415.181 309.333 405.578 315.395L300.799 381.549C291.196 387.611 276.669 388.269 268.354 383.019Z" fill="#5CFFF3"/>
<path d="M161.242 302.4L266.021 236.246C275.623 230.184 290.15 229.524 298.465 234.775L407.907 303.873C409.96 305.17 411.437 306.707 412.362 308.375C414.776 303.525 413.384 298.368 407.907 294.91L298.465 225.812C290.148 220.562 275.623 221.22 266.021 227.282L161.242 293.436C154.011 298.002 151.639 304.329 154.458 309.419C155.709 306.904 157.963 304.47 161.242 302.4Z" fill="#42E8E0"/>
<path opacity="0.5" d="M269.283 401.974L133.451 316.212C123.129 309.695 120.663 300.124 136.342 290.788L266.388 208.681C272.248 204.981 279.587 202.911 286.761 202.53C278.229 202.108 268.943 204.189 261.827 208.681L131.781 290.788C119.864 298.313 118.569 309.695 128.89 316.212L264.723 401.974C269.967 405.285 277.205 406.693 284.618 406.298C278.86 406.014 273.443 404.599 269.283 401.974Z" fill="url(#paint11_linear_1307_1211)"/>
<path opacity="0.5" d="M435.036 330.427L304.991 412.534C293.073 420.059 275.045 420.876 264.723 414.36L128.89 328.6C123.931 325.469 121.682 321.212 121.974 316.802H121.921V322.874H121.974C121.68 327.284 123.929 331.541 128.89 334.671L264.723 420.431C275.045 426.948 293.073 426.13 304.991 418.606L435.036 336.498C441.911 332.158 445.228 326.536 444.842 321.302V315.231C445.228 320.463 441.911 326.086 435.036 330.427Z" fill="url(#paint12_linear_1307_1211)"/>
<path d="M411.453 322.34C412.935 323.276 412.935 324.794 411.453 325.729C409.971 326.665 407.568 326.665 406.084 325.729C404.603 324.794 404.603 323.276 406.084 322.34C407.566 321.405 409.97 321.403 411.453 322.34Z" fill="#FCCC6B"/>
<path d="M419.813 317.061C421.295 317.996 421.295 319.514 419.813 320.45C418.331 321.386 415.927 321.386 414.444 320.45C412.962 319.514 412.962 317.996 414.444 317.061C415.927 316.125 418.331 316.125 419.813 317.061Z" fill="#FCCC6B"/>
<path d="M428.173 311.783C429.654 312.719 429.654 314.236 428.173 315.172C426.691 316.108 424.287 316.108 422.804 315.172C421.322 314.236 421.322 312.719 422.804 311.783C424.286 310.847 426.691 310.847 428.173 311.783Z" fill="#FCCC6B"/>
<path opacity="0.5" d="M271.599 366.283L185.752 312.081C179.229 307.963 180.047 300.768 187.579 296.012L269.768 244.121C277.3 239.365 288.695 238.849 295.218 242.967L381.066 297.169C387.589 301.287 386.771 308.482 379.239 313.238L297.049 365.129C289.516 369.885 278.122 370.403 271.599 366.283Z" fill="#0B0244"/>
<path opacity="0.5" d="M444.842 304.414C444.878 303.887 444.881 303.365 444.842 302.845V225.392L332.319 225.939L302.095 206.855C291.773 200.339 273.745 201.156 261.827 208.681L233.733 226.419L121.922 226.963V304.416H121.976C121.682 308.826 123.931 313.083 128.89 316.214L264.723 401.974C275.045 408.49 293.073 407.673 304.991 400.148L435.036 318.041C441.227 314.132 444.524 309.184 444.842 304.414Z" fill="#5CFFF3"/>
<path d="M444.842 225.393V197.665H379.431L302.095 148.837C291.773 142.32 273.745 143.138 261.827 150.662L187.382 197.665H121.922V226.963H121.976C121.682 231.373 123.931 235.63 128.891 238.761L264.724 324.522C275.046 331.039 293.074 330.222 304.992 322.697L435.038 240.59C441.911 236.249 445.228 230.627 444.842 225.393Z" fill="#312A91"/>
<path opacity="0.5" d="M444.842 225.393V197.665H379.431L302.095 148.837C291.773 142.32 273.745 143.138 261.827 150.662L187.382 197.665H121.922V226.963H121.976C121.682 231.373 123.931 235.63 128.891 238.761L264.724 324.522C275.046 331.039 293.074 330.222 304.992 322.697L435.038 240.59C441.911 236.249 445.228 230.627 444.842 225.393Z" fill="url(#paint13_linear_1307_1211)"/>
<path d="M302.095 148.837C297.133 145.703 290.386 144.283 283.397 144.471V328.888C290.953 328.69 298.797 326.608 304.991 322.697L435.036 240.59C441.911 236.249 445.228 230.627 444.842 225.393V197.665H379.431L302.095 148.837Z" fill="url(#paint14_linear_1307_1211)"/>
<path d="M264.723 295.222L128.89 209.462C118.568 202.945 119.864 191.563 131.782 184.038L261.827 101.931C273.745 94.4061 291.773 93.5888 302.095 100.105L437.928 185.867C448.25 192.383 446.954 203.766 435.036 211.291L304.991 293.398C293.073 300.921 275.045 301.738 264.723 295.222Z" fill="#312A91"/>
<path opacity="0.5" d="M264.723 295.222L128.89 209.462C118.568 202.945 119.864 191.563 131.782 184.038L261.827 101.931C273.745 94.4061 291.773 93.5888 302.095 100.105L437.928 185.867C448.25 192.383 446.954 203.766 435.036 211.291L304.991 293.398C293.073 300.921 275.045 301.738 264.723 295.222Z" fill="url(#paint15_linear_1307_1211)"/>
<path opacity="0.5" d="M269.283 295.222L133.451 209.46C123.129 202.944 120.663 193.373 136.342 184.037L266.388 101.929C272.248 98.2293 279.587 96.1608 286.761 95.779C278.229 95.3561 268.943 97.4373 261.827 101.929L131.781 184.037C119.864 191.561 118.569 202.944 128.89 209.46L264.723 295.222C269.967 298.534 277.205 299.941 284.618 299.548C278.86 299.263 273.443 297.849 269.283 295.222Z" fill="url(#paint16_linear_1307_1211)"/>
<path opacity="0.5" d="M435.036 223.675L304.991 305.782C293.073 313.307 275.045 314.124 264.723 307.608L128.89 221.846C123.931 218.716 121.682 214.459 121.974 210.049H121.921V216.12H121.974C121.68 220.53 123.929 224.787 128.89 227.918L264.723 313.679C275.045 320.196 293.073 319.379 304.991 311.854L435.036 229.747C441.911 225.406 445.228 219.784 444.842 214.55V208.479C445.228 213.713 441.911 219.334 435.036 223.675Z" fill="url(#paint17_linear_1307_1211)"/>
<path opacity="0.2" d="M272.608 203.872C275.428 205.653 275.428 208.54 272.608 210.322C269.787 212.103 265.213 212.103 262.392 210.322C259.572 208.54 259.572 205.653 262.392 203.872C265.213 202.09 269.787 202.09 272.608 203.872Z" fill="#5CFFF3"/>
<path opacity="0.6" d="M288.516 193.827C291.337 195.609 291.337 198.496 288.516 200.277C285.696 202.059 281.122 202.059 278.301 200.277C275.48 198.496 275.48 195.609 278.301 193.827C281.122 192.046 285.696 192.046 288.516 193.827Z" fill="#5CFFF3"/>
<path d="M304.425 183.783C307.246 185.564 307.246 188.452 304.425 190.233C301.604 192.014 297.031 192.014 294.21 190.233C291.389 188.452 291.389 185.564 294.21 183.783C297.031 182.001 301.604 182.001 304.425 183.783Z" fill="#5CFFF3"/>
<path opacity="0.5" d="M282.52 274.148C277.485 274.148 272.673 273.036 269.081 270.769L168.647 207.359C164.994 205.05 162.981 201.805 162.983 198.221C162.983 193.979 165.828 189.748 170.785 186.618L266.942 125.906C276.022 120.177 289.84 119.57 297.739 124.557L398.173 187.969C401.827 190.275 403.838 193.519 403.838 197.104C403.838 201.347 400.994 205.577 396.036 208.708L299.877 269.42C294.927 272.547 288.563 274.148 282.52 274.148ZM270.103 268.828C277.44 273.462 290.336 272.856 298.854 267.479L395.012 206.769C399.317 204.048 401.789 200.527 401.788 197.106C401.788 194.356 400.14 191.801 397.149 189.911L296.715 126.499C289.378 121.865 276.482 122.473 267.963 127.848L171.807 188.56C167.5 191.279 165.03 194.799 165.03 198.221C165.029 200.972 166.678 203.528 169.67 205.418L270.103 268.828Z" fill="#0B0244"/>
<path d="M281.928 317.388C276.404 317.388 271.13 316.169 267.196 313.684L95.1217 205.043C91.2722 202.613 89.1512 199.235 89.1512 195.535C89.1512 191.085 92.2043 186.606 97.5312 183.243L264.78 77.6466C274.786 71.3274 289.987 70.6458 298.662 76.1256L470.736 184.767C474.586 187.197 476.707 190.575 476.707 194.275C476.705 198.725 473.652 203.206 468.327 206.567L301.078 312.163C295.609 315.617 288.587 317.386 281.928 317.388ZM283.93 73.1182C277.388 73.1182 270.484 74.8602 265.102 78.2572L97.853 183.854C92.7338 187.087 89.7976 191.344 89.7976 195.535C89.7976 198.974 91.8032 202.135 95.4435 204.434L267.517 313.075C276.02 318.443 290.929 317.758 300.757 311.554L468.006 205.958C473.126 202.725 476.062 198.468 476.062 194.277C476.062 190.837 474.056 187.677 470.416 185.378L298.342 76.7362C294.495 74.3079 289.336 73.1182 283.93 73.1182Z" fill="#6EE8FC"/>
<path opacity="0.3" d="M239.07 180.031C317.641 180.031 381.335 139.815 381.335 90.2076C381.335 40.5998 317.641 0.384644 239.07 0.384644C160.5 0.384644 96.8055 40.5998 96.8055 90.2076C96.8055 139.815 160.5 180.031 239.07 180.031Z" fill="url(#paint18_radial_1307_1211)"/>
<path opacity="0.3" d="M392.735 343.431C471.306 343.431 535 303.216 535 253.608C535 204 471.306 163.785 392.735 163.785C314.164 163.785 250.47 204 250.47 253.608C250.47 303.216 314.164 343.431 392.735 343.431Z" fill="url(#paint19_radial_1307_1211)"/>
<path opacity="0.3" d="M109.384 240.856C169.795 240.856 218.768 209.936 218.768 171.794C218.768 133.652 169.795 102.732 109.384 102.732C48.9729 102.732 0 133.652 0 171.794C0 209.936 48.9729 240.856 109.384 240.856Z" fill="url(#paint20_radial_1307_1211)"/>
<path d="M240.334 107.638C247.507 107.638 253.321 101.279 253.321 93.4359C253.321 85.5923 247.507 79.2338 240.334 79.2338C233.162 79.2338 227.347 85.5923 227.347 93.4359C227.347 101.279 233.162 107.638 240.334 107.638Z" fill="url(#paint21_radial_1307_1211)"/>
<path d="M244.037 93.4359C244.037 95.6717 242.379 97.4846 240.334 97.4846C238.29 97.4846 236.632 95.6717 236.632 93.4359C236.632 91.2001 238.29 89.3871 240.334 89.3871C242.379 89.3856 244.037 91.1985 244.037 93.4359Z" fill="#6EE8FC"/>
<path d="M109.384 190.481C116.557 190.481 122.371 184.122 122.371 176.278C122.371 168.435 116.557 162.076 109.384 162.076C102.212 162.076 96.3972 168.435 96.3972 176.278C96.3972 184.122 102.212 190.481 109.384 190.481Z" fill="url(#paint22_radial_1307_1211)"/>
<path d="M109.384 180.327C111.429 180.327 113.086 178.515 113.086 176.279C113.086 174.043 111.429 172.23 109.384 172.23C107.339 172.23 105.682 174.043 105.682 176.279C105.682 178.515 107.339 180.327 109.384 180.327Z" fill="#6EE8FC"/>
<path d="M393.622 267.531C400.795 267.531 406.609 261.173 406.609 253.329C406.609 245.485 400.795 239.127 393.622 239.127C386.45 239.127 380.635 245.485 380.635 253.329C380.635 261.173 386.45 267.531 393.622 267.531Z" fill="url(#paint23_radial_1307_1211)"/>
<path d="M397.325 253.329C397.325 255.565 395.667 257.378 393.622 257.378C391.578 257.378 389.92 255.565 389.92 253.329C389.92 251.093 391.578 249.28 393.622 249.28C395.667 249.28 397.325 251.091 397.325 253.329Z" fill="#6EE8FC"/>
<path d="M417.698 252.016C424.87 252.016 430.685 245.658 430.685 237.814C430.685 229.971 424.87 223.612 417.698 223.612C410.525 223.612 404.711 229.971 404.711 237.814C404.711 245.658 410.525 252.016 417.698 252.016Z" fill="url(#paint24_radial_1307_1211)"/>
<path d="M417.698 241.863C419.742 241.863 421.4 240.05 421.4 237.814C421.4 235.578 419.742 233.766 417.698 233.766C415.653 233.766 413.995 235.578 413.995 237.814C413.995 240.05 415.653 241.863 417.698 241.863Z" fill="#6EE8FC"/>
<path d="M441.773 236.735C448.945 236.735 454.76 230.376 454.76 222.533C454.76 214.689 448.945 208.331 441.773 208.331C434.6 208.331 428.786 214.689 428.786 222.533C428.786 230.376 434.6 236.735 441.773 236.735Z" fill="url(#paint25_radial_1307_1211)"/>
<path d="M445.475 222.533C445.475 224.769 443.817 226.582 441.773 226.582C439.728 226.582 438.07 224.769 438.07 222.533C438.07 220.297 439.728 218.484 441.773 218.484C443.819 218.484 445.475 220.297 445.475 222.533Z" fill="#6EE8FC"/>
<defs>
<radialGradient id="paint0_radial_1307_1211" cx="0" cy="0" r="1" gradientUnits="userSpaceOnUse" gradientTransform="translate(239.071 307.231) rotate(32.2679) scale(118.969 107.411)">
<stop stop-color="#42E8E0"/>
<stop offset="0.0143" stop-color="#40DED8"/>
<stop offset="0.0908" stop-color="#34AFB4"/>
<stop offset="0.1719" stop-color="#2A8593"/>
<stop offset="0.2563" stop-color="#226278"/>
<stop offset="0.345" stop-color="#1B4562"/>
<stop offset="0.4394" stop-color="#162F51"/>
<stop offset="0.542" stop-color="#121F44"/>
<stop offset="0.6591" stop-color="#10163D"/>
<stop offset="0.8226" stop-color="#0F133B"/>
</radialGradient>
<radialGradient id="paint1_radial_1307_1211" cx="0" cy="0" r="1" gradientUnits="userSpaceOnUse" gradientTransform="translate(392.736 470.632) rotate(32.2679) scale(118.969 107.411)">
<stop stop-color="#42E8E0"/>
<stop offset="0.0143" stop-color="#40DED8"/>
<stop offset="0.0908" stop-color="#34AFB4"/>
<stop offset="0.1719" stop-color="#2A8593"/>
<stop offset="0.2563" stop-color="#226278"/>
<stop offset="0.345" stop-color="#1B4562"/>
<stop offset="0.4394" stop-color="#162F51"/>
<stop offset="0.542" stop-color="#121F44"/>
<stop offset="0.6591" stop-color="#10163D"/>
<stop offset="0.8226" stop-color="#0F133B"/>
</radialGradient>
<radialGradient id="paint2_radial_1307_1211" cx="0" cy="0" r="1" gradientUnits="userSpaceOnUse" gradientTransform="translate(109.383 388.818) rotate(32.2679) scale(91.4722 82.586)">
<stop stop-color="#42E8E0"/>
<stop offset="0.0143" stop-color="#40DED8"/>
<stop offset="0.0908" stop-color="#34AFB4"/>
<stop offset="0.1719" stop-color="#2A8593"/>
<stop offset="0.2563" stop-color="#226278"/>
<stop offset="0.345" stop-color="#1B4562"/>
<stop offset="0.4394" stop-color="#162F51"/>
<stop offset="0.542" stop-color="#121F44"/>
<stop offset="0.6591" stop-color="#10163D"/>
<stop offset="0.8226" stop-color="#0F133B"/>
</radialGradient>
<radialGradient id="paint3_radial_1307_1211" cx="0" cy="0" r="1" gradientUnits="userSpaceOnUse" gradientTransform="translate(240.334 310.46) scale(12.9875 14.2027)">
<stop stop-color="#42E8E0"/>
<stop offset="0.0225" stop-color="#3FD8D7"/>
<stop offset="0.0983" stop-color="#36A9BA"/>
<stop offset="0.1786" stop-color="#2E7FA0"/>
<stop offset="0.2622" stop-color="#275C8B"/>
<stop offset="0.35" stop-color="#223F79"/>
<stop offset="0.4433" stop-color="#1D296C"/>
<stop offset="0.5449" stop-color="#1A1962"/>
<stop offset="0.6608" stop-color="#19105D"/>
<stop offset="0.8226" stop-color="#180D5B"/>
</radialGradient>
<radialGradient id="paint4_radial_1307_1211" cx="0" cy="0" r="1" gradientUnits="userSpaceOnUse" gradientTransform="translate(109.383 393.303) scale(12.9875 14.2027)">
<stop stop-color="#42E8E0"/>
<stop offset="0.0225" stop-color="#3FD8D7"/>
<stop offset="0.0983" stop-color="#36A9BA"/>
<stop offset="0.1786" stop-color="#2E7FA0"/>
<stop offset="0.2622" stop-color="#275C8B"/>
<stop offset="0.35" stop-color="#223F79"/>
<stop offset="0.4433" stop-color="#1D296C"/>
<stop offset="0.5449" stop-color="#1A1962"/>
<stop offset="0.6608" stop-color="#19105D"/>
<stop offset="0.8226" stop-color="#180D5B"/>
</radialGradient>
<radialGradient id="paint5_radial_1307_1211" cx="0" cy="0" r="1" gradientUnits="userSpaceOnUse" gradientTransform="translate(393.622 470.352) scale(12.9875 14.2027)">
<stop stop-color="#42E8E0"/>
<stop offset="0.0143" stop-color="#40DED8"/>
<stop offset="0.0908" stop-color="#34AFB4"/>
<stop offset="0.1719" stop-color="#2A8593"/>
<stop offset="0.2563" stop-color="#226278"/>
<stop offset="0.345" stop-color="#1B4562"/>
<stop offset="0.4394" stop-color="#162F51"/>
<stop offset="0.542" stop-color="#121F44"/>
<stop offset="0.6591" stop-color="#10163D"/>
<stop offset="0.8226" stop-color="#0F133B"/>
</radialGradient>
<radialGradient id="paint6_radial_1307_1211" cx="0" cy="0" r="1" gradientUnits="userSpaceOnUse" gradientTransform="translate(417.698 454.838) scale(12.9875 14.2027)">
<stop stop-color="#42E8E0"/>
<stop offset="0.0143" stop-color="#40DED8"/>
<stop offset="0.0908" stop-color="#34AFB4"/>
<stop offset="0.1719" stop-color="#2A8593"/>
<stop offset="0.2563" stop-color="#226278"/>
<stop offset="0.345" stop-color="#1B4562"/>
<stop offset="0.4394" stop-color="#162F51"/>
<stop offset="0.542" stop-color="#121F44"/>
<stop offset="0.6591" stop-color="#10163D"/>
<stop offset="0.8226" stop-color="#0F133B"/>
</radialGradient>
<radialGradient id="paint7_radial_1307_1211" cx="0" cy="0" r="1" gradientUnits="userSpaceOnUse" gradientTransform="translate(441.773 439.558) scale(12.9875 14.2027)">
<stop stop-color="#42E8E0"/>
<stop offset="0.0143" stop-color="#40DED8"/>
<stop offset="0.0908" stop-color="#34AFB4"/>
<stop offset="0.1719" stop-color="#2A8593"/>
<stop offset="0.2563" stop-color="#226278"/>
<stop offset="0.345" stop-color="#1B4562"/>
<stop offset="0.4394" stop-color="#162F51"/>
<stop offset="0.542" stop-color="#121F44"/>
<stop offset="0.6591" stop-color="#10163D"/>
<stop offset="0.8226" stop-color="#0F133B"/>
</radialGradient>
<linearGradient id="paint8_linear_1307_1211" x1="50.5364" y1="343.43" x2="373.486" y2="343.43" gradientUnits="userSpaceOnUse">
<stop stop-color="#42E8E0"/>
<stop offset="0.1022" stop-color="#3CCACE"/>
<stop offset="0.3445" stop-color="#2F87A5"/>
<stop offset="0.564" stop-color="#255385"/>
<stop offset="0.7534" stop-color="#1E2D6E"/>
<stop offset="0.905" stop-color="#1A1660"/>
<stop offset="1" stop-color="#180D5B"/>
</linearGradient>
<linearGradient id="paint9_linear_1307_1211" x1="283.397" y1="343.422" x2="444.872" y2="343.422" gradientUnits="userSpaceOnUse">
<stop stop-color="#2B237C"/>
<stop offset="1" stop-color="#180D5B"/>
</linearGradient>
<linearGradient id="paint10_linear_1307_1211" x1="121.923" y1="304.415" x2="444.896" y2="304.415" gradientUnits="userSpaceOnUse">
<stop stop-color="#42E8E0"/>
<stop offset="0.1022" stop-color="#3CCACE"/>
<stop offset="0.3445" stop-color="#2F87A5"/>
<stop offset="0.564" stop-color="#255385"/>
<stop offset="0.7534" stop-color="#1E2D6E"/>
<stop offset="0.905" stop-color="#1A1660"/>
<stop offset="1" stop-color="#180D5B"/>
</linearGradient>
<linearGradient id="paint11_linear_1307_1211" x1="121.922" y1="304.421" x2="286.761" y2="304.421" gradientUnits="userSpaceOnUse">
<stop stop-color="#42E8E0"/>
<stop offset="0.1022" stop-color="#3CCACE"/>
<stop offset="0.3445" stop-color="#2F87A5"/>
<stop offset="0.564" stop-color="#255385"/>
<stop offset="0.7534" stop-color="#1E2D6E"/>
<stop offset="0.905" stop-color="#1A1660"/>
<stop offset="1" stop-color="#180D5B"/>
</linearGradient>
<linearGradient id="paint12_linear_1307_1211" x1="165.85" y1="407.187" x2="450.115" y2="237.282" gradientUnits="userSpaceOnUse">
<stop stop-color="#42E8E0"/>
<stop offset="0.1022" stop-color="#3CCACE"/>
<stop offset="0.3445" stop-color="#2F87A5"/>
<stop offset="0.564" stop-color="#255385"/>
<stop offset="0.7534" stop-color="#1E2D6E"/>
<stop offset="0.905" stop-color="#1A1660"/>
<stop offset="1" stop-color="#180D5B"/>
</linearGradient>
<linearGradient id="paint13_linear_1307_1211" x1="50.5364" y1="236.679" x2="373.486" y2="236.679" gradientUnits="userSpaceOnUse">
<stop stop-color="#42E8E0"/>
<stop offset="0.1022" stop-color="#3CCACE"/>
<stop offset="0.3445" stop-color="#2F87A5"/>
<stop offset="0.564" stop-color="#255385"/>
<stop offset="0.7534" stop-color="#1E2D6E"/>
<stop offset="0.905" stop-color="#1A1660"/>
<stop offset="1" stop-color="#180D5B"/>
</linearGradient>
<linearGradient id="paint14_linear_1307_1211" x1="283.397" y1="236.671" x2="444.872" y2="236.671" gradientUnits="userSpaceOnUse">
<stop stop-color="#2B237C"/>
<stop offset="1" stop-color="#180D5B"/>
</linearGradient>
<linearGradient id="paint15_linear_1307_1211" x1="121.923" y1="197.664" x2="444.896" y2="197.664" gradientUnits="userSpaceOnUse">
<stop stop-color="#42E8E0"/>
<stop offset="0.1022" stop-color="#3CCACE"/>
<stop offset="0.3445" stop-color="#2F87A5"/>
<stop offset="0.564" stop-color="#255385"/>
<stop offset="0.7534" stop-color="#1E2D6E"/>
<stop offset="0.905" stop-color="#1A1660"/>
<stop offset="1" stop-color="#180D5B"/>
</linearGradient>
<linearGradient id="paint16_linear_1307_1211" x1="121.922" y1="197.67" x2="286.761" y2="197.67" gradientUnits="userSpaceOnUse">
<stop stop-color="#42E8E0"/>
<stop offset="0.1022" stop-color="#3CCACE"/>
<stop offset="0.3445" stop-color="#2F87A5"/>
<stop offset="0.564" stop-color="#255385"/>
<stop offset="0.7534" stop-color="#1E2D6E"/>
<stop offset="0.905" stop-color="#1A1660"/>
<stop offset="1" stop-color="#180D5B"/>
</linearGradient>
<linearGradient id="paint17_linear_1307_1211" x1="165.85" y1="300.436" x2="450.115" y2="130.53" gradientUnits="userSpaceOnUse">
<stop stop-color="#42E8E0"/>
<stop offset="0.1022" stop-color="#3CCACE"/>
<stop offset="0.3445" stop-color="#2F87A5"/>
<stop offset="0.564" stop-color="#255385"/>
<stop offset="0.7534" stop-color="#1E2D6E"/>
<stop offset="0.905" stop-color="#1A1660"/>
<stop offset="1" stop-color="#180D5B"/>
</linearGradient>
<radialGradient id="paint18_radial_1307_1211" cx="0" cy="0" r="1" gradientUnits="userSpaceOnUse" gradientTransform="translate(239.071 90.207) rotate(32.2679) scale(118.969 107.411)">
<stop stop-color="#42E8E0"/>
<stop offset="0.0143" stop-color="#40DED8"/>
<stop offset="0.0908" stop-color="#34AFB4"/>
<stop offset="0.1719" stop-color="#2A8593"/>
<stop offset="0.2563" stop-color="#226278"/>
<stop offset="0.345" stop-color="#1B4562"/>
<stop offset="0.4394" stop-color="#162F51"/>
<stop offset="0.542" stop-color="#121F44"/>
<stop offset="0.6591" stop-color="#10163D"/>
<stop offset="0.8226" stop-color="#0F133B"/>
</radialGradient>
<radialGradient id="paint19_radial_1307_1211" cx="0" cy="0" r="1" gradientUnits="userSpaceOnUse" gradientTransform="translate(392.736 253.608) rotate(32.2679) scale(118.969 107.411)">
<stop stop-color="#42E8E0"/>
<stop offset="0.0143" stop-color="#40DED8"/>
<stop offset="0.0908" stop-color="#34AFB4"/>
<stop offset="0.1719" stop-color="#2A8593"/>
<stop offset="0.2563" stop-color="#226278"/>
<stop offset="0.345" stop-color="#1B4562"/>
<stop offset="0.4394" stop-color="#162F51"/>
<stop offset="0.542" stop-color="#121F44"/>
<stop offset="0.6591" stop-color="#10163D"/>
<stop offset="0.8226" stop-color="#0F133B"/>
</radialGradient>
<radialGradient id="paint20_radial_1307_1211" cx="0" cy="0" r="1" gradientUnits="userSpaceOnUse" gradientTransform="translate(109.383 171.794) rotate(32.2679) scale(91.472 82.5859)">
<stop stop-color="#42E8E0"/>
<stop offset="0.0143" stop-color="#40DED8"/>
<stop offset="0.0908" stop-color="#34AFB4"/>
<stop offset="0.1719" stop-color="#2A8593"/>
<stop offset="0.2563" stop-color="#226278"/>
<stop offset="0.345" stop-color="#1B4562"/>
<stop offset="0.4394" stop-color="#162F51"/>
<stop offset="0.542" stop-color="#121F44"/>
<stop offset="0.6591" stop-color="#10163D"/>
<stop offset="0.8226" stop-color="#0F133B"/>
</radialGradient>
<radialGradient id="paint21_radial_1307_1211" cx="0" cy="0" r="1" gradientUnits="userSpaceOnUse" gradientTransform="translate(240.334 93.4354) scale(12.9875 14.2027)">
<stop stop-color="#42E8E0"/>
<stop offset="0.0143" stop-color="#40DED8"/>
<stop offset="0.0908" stop-color="#34AFB4"/>
<stop offset="0.1719" stop-color="#2A8593"/>
<stop offset="0.2563" stop-color="#226278"/>
<stop offset="0.345" stop-color="#1B4562"/>
<stop offset="0.4394" stop-color="#162F51"/>
<stop offset="0.542" stop-color="#121F44"/>
<stop offset="0.6591" stop-color="#10163D"/>
<stop offset="0.8226" stop-color="#0F133B"/>
</radialGradient>
<radialGradient id="paint22_radial_1307_1211" cx="0" cy="0" r="1" gradientUnits="userSpaceOnUse" gradientTransform="translate(109.383 176.279) scale(12.9875 14.2027)">
<stop stop-color="#42E8E0"/>
<stop offset="0.0143" stop-color="#40DED8"/>
<stop offset="0.0908" stop-color="#34AFB4"/>
<stop offset="0.1719" stop-color="#2A8593"/>
<stop offset="0.2563" stop-color="#226278"/>
<stop offset="0.345" stop-color="#1B4562"/>
<stop offset="0.4394" stop-color="#162F51"/>
<stop offset="0.542" stop-color="#121F44"/>
<stop offset="0.6591" stop-color="#10163D"/>
<stop offset="0.8226" stop-color="#0F133B"/>
</radialGradient>
<radialGradient id="paint23_radial_1307_1211" cx="0" cy="0" r="1" gradientUnits="userSpaceOnUse" gradientTransform="translate(393.622 253.328) scale(12.9875 14.2027)">
<stop stop-color="#42E8E0"/>
<stop offset="0.0143" stop-color="#40DED8"/>
<stop offset="0.0908" stop-color="#34AFB4"/>
<stop offset="0.1719" stop-color="#2A8593"/>
<stop offset="0.2563" stop-color="#226278"/>
<stop offset="0.345" stop-color="#1B4562"/>
<stop offset="0.4394" stop-color="#162F51"/>
<stop offset="0.542" stop-color="#121F44"/>
<stop offset="0.6591" stop-color="#10163D"/>
<stop offset="0.8226" stop-color="#0F133B"/>
</radialGradient>
<radialGradient id="paint24_radial_1307_1211" cx="0" cy="0" r="1" gradientUnits="userSpaceOnUse" gradientTransform="translate(417.698 237.814) scale(12.9875 14.2027)">
<stop stop-color="#42E8E0"/>
<stop offset="0.0143" stop-color="#40DED8"/>
<stop offset="0.0908" stop-color="#34AFB4"/>
<stop offset="0.1719" stop-color="#2A8593"/>
<stop offset="0.2563" stop-color="#226278"/>
<stop offset="0.345" stop-color="#1B4562"/>
<stop offset="0.4394" stop-color="#162F51"/>
<stop offset="0.542" stop-color="#121F44"/>
<stop offset="0.6591" stop-color="#10163D"/>
<stop offset="0.8226" stop-color="#0F133B"/>
</radialGradient>
<radialGradient id="paint25_radial_1307_1211" cx="0" cy="0" r="1" gradientUnits="userSpaceOnUse" gradientTransform="translate(441.773 222.534) scale(12.9875 14.2027)">
<stop stop-color="#42E8E0"/>
<stop offset="0.0143" stop-color="#40DED8"/>
<stop offset="0.0908" stop-color="#34AFB4"/>
<stop offset="0.1719" stop-color="#2A8593"/>
<stop offset="0.2563" stop-color="#226278"/>
<stop offset="0.345" stop-color="#1B4562"/>
<stop offset="0.4394" stop-color="#162F51"/>
<stop offset="0.542" stop-color="#121F44"/>
<stop offset="0.6591" stop-color="#10163D"/>
<stop offset="0.8226" stop-color="#0F133B"/>
</radialGradient>
</defs>
</svg>
