<svg width="50" height="50" viewBox="0 0 50 50" fill="none" xmlns="http://www.w3.org/2000/svg">
<path fill-rule="evenodd" clip-rule="evenodd" d="M25 0C18.3696 0 12.0107 2.63392 7.32233 7.32233C2.63392 12.0107 0 18.3696 0 25C0 31.6304 2.63392 37.9893 7.32233 42.6777C12.0107 47.3661 18.3696 50 25 50C31.6304 50 37.9893 47.3661 42.6777 42.6777C47.3661 37.9893 50 31.6304 50 25C50 18.3696 47.3661 12.0107 42.6777 7.32233C37.9893 2.63392 31.6304 0 25 0ZM17.996 17.8L19.352 19.27L14.492 23.742L14.3 23.532L11.45 20.746L12.848 19.316L14.548 20.972L17.994 17.8H17.996ZM21.996 18.004H37.996V20.004H21.996V18.004ZM21.996 22.004H37.996V24.004H21.996V22.004ZM17.996 25.8L19.352 27.27L14.492 31.742L14.3 31.532L11.45 28.746L12.848 27.316L14.548 28.972L17.994 25.8H17.996ZM21.996 26.004H37.996V28.004H21.996V26.004ZM21.996 30.004H37.996V32.004H21.996V30.004Z" fill="#595BD4"/>
</svg>
