<svg width="23" height="23" viewBox="0 0 23 23" fill="none" xmlns="http://www.w3.org/2000/svg">
<g id="Cross">
<g id="Group">
<path id="Vector" d="M11.5 1.4375C9.50983 1.4375 7.56435 2.02766 5.90958 3.13334C4.25481 4.23902 2.96507 5.81057 2.20347 7.64925C1.44186 9.48793 1.24259 11.5112 1.63085 13.4631C2.01912 15.415 2.97748 17.208 4.38474 18.6153C5.79201 20.0225 7.58497 20.9809 9.53691 21.3692C11.4888 21.7574 13.5121 21.5581 15.3508 20.7965C17.1894 20.0349 18.761 18.7452 19.8667 17.0904C20.9723 15.4357 21.5625 13.4902 21.5625 11.5C21.5625 8.83126 20.5023 6.27182 18.6153 4.38474C16.7282 2.49765 14.1687 1.4375 11.5 1.4375ZM11.5 20.125C9.79414 20.125 8.12659 19.6192 6.70821 18.6714C5.28984 17.7237 4.18435 16.3767 3.53154 14.8006C2.87874 13.2246 2.70793 11.4904 3.04073 9.81735C3.37353 8.14426 4.19498 6.60743 5.40121 5.4012C6.60744 4.19498 8.14426 3.37352 9.81735 3.04073C11.4904 2.70793 13.2246 2.87873 14.8006 3.53154C16.3767 4.18434 17.7237 5.28983 18.6714 6.70821C19.6192 8.12658 20.125 9.79414 20.125 11.5C20.125 13.7875 19.2163 15.9813 17.5988 17.5988C15.9813 19.2163 13.7875 20.125 11.5 20.125Z" fill="white"/>
<path id="Vector_2" d="M16.3228 6.67696C16.256 6.60959 16.1765 6.55612 16.0889 6.51963C16.0013 6.48314 15.9074 6.46436 15.8125 6.46436C15.7176 6.46436 15.6237 6.48314 15.5361 6.51963C15.4485 6.55612 15.369 6.60959 15.3022 6.67696L11.5 10.4863L7.69783 6.67696C7.56249 6.54162 7.37892 6.46558 7.18752 6.46558C6.99611 6.46558 6.81255 6.54162 6.6772 6.67696C6.54186 6.8123 6.46583 6.99587 6.46583 7.18727C6.46583 7.37868 6.54186 7.56224 6.6772 7.69759L10.4866 11.4998L6.6772 15.302C6.60984 15.3688 6.55637 15.4483 6.51988 15.5359C6.48339 15.6234 6.4646 15.7174 6.4646 15.8123C6.4646 15.9072 6.48339 16.0011 6.51988 16.0887C6.55637 16.1763 6.60984 16.2558 6.6772 16.3226C6.74402 16.39 6.82352 16.4434 6.9111 16.4799C6.99869 16.5164 7.09263 16.5352 7.18752 16.5352C7.2824 16.5352 7.37635 16.5164 7.46393 16.4799C7.55152 16.4434 7.63101 16.39 7.69783 16.3226L11.5 12.5132L15.3022 16.3226C15.369 16.39 15.4485 16.4434 15.5361 16.4799C15.6237 16.5164 15.7176 16.5352 15.8125 16.5352C15.9074 16.5352 16.0013 16.5164 16.0889 16.4799C16.1765 16.4434 16.256 16.39 16.3228 16.3226C16.3902 16.2558 16.4437 16.1763 16.4802 16.0887C16.5166 16.0011 16.5354 15.9072 16.5354 15.8123C16.5354 15.7174 16.5166 15.6234 16.4802 15.5359C16.4437 15.4483 16.3902 15.3688 16.3228 15.302L12.5135 11.4998L16.3228 7.69759C16.3902 7.63077 16.4437 7.55127 16.4802 7.46369C16.5166 7.3761 16.5354 7.28216 16.5354 7.18727C16.5354 7.09239 16.5166 6.99844 16.4802 6.91086C16.4437 6.82327 16.3902 6.74378 16.3228 6.67696Z" fill="white"/>
</g>
</g>
</svg>
