<svg width="100" height="100" viewBox="0 0 100 100" fill="none" xmlns="http://www.w3.org/2000/svg">
<path d="M5.55514 100C4.82543 100.001 4.10274 99.8343 3.42844 99.51C2.75413 99.1857 2.14146 98.71 1.62547 98.11C1.10949 97.51 0.700335 96.7976 0.421425 96.0135C0.142515 95.2295 -0.000673187 94.3892 5.76186e-05 93.5407V87.0814C-0.0184002 72.1886 4.39833 57.7479 12.4997 46.2129C20.6011 34.678 31.8874 26.7605 44.4407 23.8058V12.7991C44.4407 9.34987 45.5962 6.10729 47.6904 3.66567C51.8901 -1.22404 59.2172 -1.21758 63.4058 3.65921L98.3361 43.7264C98.8628 44.3255 99.2813 45.0409 99.5671 45.8307C99.8528 46.6205 100 47.4686 100 48.3254C100 49.1822 99.8528 50.0304 99.5671 50.8201C99.2813 51.6099 98.8628 52.3253 98.3361 52.9245L63.378 93.0175C59.2339 97.8361 51.8956 97.8684 47.696 92.9852C46.6608 91.7888 45.84 90.3655 45.2812 88.7977C44.7224 87.2299 44.4368 85.5488 44.4407 83.8517V74.5696C30.5808 75.868 19.3151 80.9321 10.1992 97.0739C9.69478 97.9715 9.00614 98.709 8.19539 99.2198C7.38463 99.7307 6.47727 99.9988 5.55514 100ZM49.9958 61.3151L55.5509 61.2505V83.8517L86.526 48.3254L55.5509 12.825V35.4132C55.5509 35.4132 53.4177 35.3874 50.6013 35.7491C41.517 36.9095 32.963 41.3055 26.1097 48.3354C19.2565 55.3654 14.4387 64.686 12.3157 75.0218C24.098 63.8601 37.5968 61.6768 49.9958 61.3151Z" fill="#D8A353"/>
</svg>
