<svg width="301" height="251" viewBox="0 0 301 251" fill="none" xmlns="http://www.w3.org/2000/svg">
<path d="M275.331 130.251C275.331 113.257 271.711 96.4571 264.712 80.9686C257.713 65.4801 247.496 51.6577 234.738 40.4201C221.981 29.1825 206.976 20.7872 190.721 15.7921C174.466 10.7971 157.333 9.31668 140.461 11.4494L154.56 122.826C155.614 122.693 156.685 122.785 157.701 123.098C158.717 123.41 159.655 123.935 160.452 124.637C161.249 125.339 161.888 126.203 162.325 127.171C162.763 128.139 162.989 129.189 162.989 130.251H275.331Z" fill="#732E60" stroke="white"/>
<path d="M140.461 11.4493C117.585 14.3411 96.0291 23.7671 78.3801 38.5967C60.7312 53.4262 47.7386 73.0293 40.9611 95.0543C34.1835 117.079 33.909 140.591 40.1703 162.768C46.4316 184.945 58.9629 204.845 76.2607 220.082C93.5586 235.32 114.888 245.246 137.691 248.67C160.494 252.095 183.801 248.872 204.816 239.389C225.832 229.905 243.663 214.564 256.17 195.206C268.678 175.848 275.331 153.294 275.331 130.251H162.989C162.989 131.691 162.573 133.101 161.791 134.311C161.01 135.521 159.895 136.48 158.582 137.072C157.268 137.665 155.812 137.866 154.386 137.652C152.961 137.438 151.628 136.818 150.547 135.866C149.466 134.913 148.683 133.67 148.291 132.284C147.9 130.897 147.917 129.428 148.341 128.051C148.764 126.675 149.576 125.45 150.679 124.523C151.782 123.596 153.13 123.007 154.56 122.826L140.461 11.4493Z" fill="#732E60" stroke="white"/>
<path d="M234.739 40.4201L254.549 17.9623" stroke="#732E60"/>
<path d="M258.52 3.27273V12H257.464V4.38068H257.412L255.282 5.79545V4.72159L257.464 3.27273H258.52ZM263.877 12.1193C263.235 12.1193 262.688 11.9446 262.236 11.5952C261.785 11.2429 261.439 10.733 261.201 10.0653C260.962 9.39489 260.843 8.58523 260.843 7.63636C260.843 6.69318 260.962 5.88778 261.201 5.22017C261.442 4.54972 261.789 4.03835 262.241 3.68608C262.695 3.33097 263.241 3.15341 263.877 3.15341C264.513 3.15341 265.057 3.33097 265.509 3.68608C265.964 4.03835 266.31 4.54972 266.549 5.22017C266.79 5.88778 266.911 6.69318 266.911 7.63636C266.911 8.58523 266.792 9.39489 266.553 10.0653C266.314 10.733 265.969 11.2429 265.518 11.5952C265.066 11.9446 264.519 12.1193 263.877 12.1193ZM263.877 11.1818C264.513 11.1818 265.008 10.875 265.36 10.2614C265.712 9.64773 265.888 8.77273 265.888 7.63636C265.888 6.88068 265.807 6.23722 265.645 5.70597C265.486 5.17472 265.256 4.76989 264.955 4.49148C264.657 4.21307 264.297 4.07386 263.877 4.07386C263.246 4.07386 262.753 4.38494 262.398 5.0071C262.043 5.62642 261.866 6.50284 261.866 7.63636C261.866 8.39205 261.945 9.03409 262.104 9.5625C262.263 10.0909 262.492 10.4929 262.79 10.7685C263.091 11.044 263.454 11.1818 263.877 11.1818ZM269.743 10.8068L269.675 11.267C269.626 11.5909 269.552 11.9375 269.453 12.3068C269.356 12.6761 269.256 13.0241 269.15 13.3509C269.045 13.6776 268.959 13.9375 268.89 14.1307H268.123C268.16 13.9489 268.209 13.7088 268.268 13.4105C268.328 13.1122 268.388 12.7784 268.447 12.4091C268.51 12.0426 268.561 11.6676 268.601 11.2841L268.652 10.8068H269.743ZM274.131 12.1193C273.489 12.1193 272.942 11.9446 272.49 11.5952C272.039 11.2429 271.693 10.733 271.455 10.0653C271.216 9.39489 271.097 8.58523 271.097 7.63636C271.097 6.69318 271.216 5.88778 271.455 5.22017C271.696 4.54972 272.043 4.03835 272.494 3.68608C272.949 3.33097 273.494 3.15341 274.131 3.15341C274.767 3.15341 275.311 3.33097 275.763 3.68608C276.218 4.03835 276.564 4.54972 276.803 5.22017C277.044 5.88778 277.165 6.69318 277.165 7.63636C277.165 8.58523 277.046 9.39489 276.807 10.0653C276.568 10.733 276.223 11.2429 275.771 11.5952C275.32 11.9446 274.773 12.1193 274.131 12.1193ZM274.131 11.1818C274.767 11.1818 275.262 10.875 275.614 10.2614C275.966 9.64773 276.142 8.77273 276.142 7.63636C276.142 6.88068 276.061 6.23722 275.899 5.70597C275.74 5.17472 275.51 4.76989 275.209 4.49148C274.911 4.21307 274.551 4.07386 274.131 4.07386C273.5 4.07386 273.007 4.38494 272.652 5.0071C272.297 5.62642 272.119 6.50284 272.119 7.63636C272.119 8.39205 272.199 9.03409 272.358 9.5625C272.517 10.0909 272.746 10.4929 273.044 10.7685C273.345 11.044 273.708 11.1818 274.131 11.1818ZM281.631 12.1193C280.989 12.1193 280.442 11.9446 279.99 11.5952C279.539 11.2429 279.193 10.733 278.955 10.0653C278.716 9.39489 278.597 8.58523 278.597 7.63636C278.597 6.69318 278.716 5.88778 278.955 5.22017C279.196 4.54972 279.543 4.03835 279.994 3.68608C280.449 3.33097 280.994 3.15341 281.631 3.15341C282.267 3.15341 282.811 3.33097 283.263 3.68608C283.718 4.03835 284.064 4.54972 284.303 5.22017C284.544 5.88778 284.665 6.69318 284.665 7.63636C284.665 8.58523 284.546 9.39489 284.307 10.0653C284.068 10.733 283.723 11.2429 283.271 11.5952C282.82 11.9446 282.273 12.1193 281.631 12.1193ZM281.631 11.1818C282.267 11.1818 282.762 10.875 283.114 10.2614C283.466 9.64773 283.642 8.77273 283.642 7.63636C283.642 6.88068 283.561 6.23722 283.399 5.70597C283.24 5.17472 283.01 4.76989 282.709 4.49148C282.411 4.21307 282.051 4.07386 281.631 4.07386C281 4.07386 280.507 4.38494 280.152 5.0071C279.797 5.62642 279.619 6.50284 279.619 7.63636C279.619 8.39205 279.699 9.03409 279.858 9.5625C280.017 10.0909 280.246 10.4929 280.544 10.7685C280.845 11.044 281.208 11.1818 281.631 11.1818ZM289.131 12.1193C288.489 12.1193 287.942 11.9446 287.49 11.5952C287.039 11.2429 286.693 10.733 286.455 10.0653C286.216 9.39489 286.097 8.58523 286.097 7.63636C286.097 6.69318 286.216 5.88778 286.455 5.22017C286.696 4.54972 287.043 4.03835 287.494 3.68608C287.949 3.33097 288.494 3.15341 289.131 3.15341C289.767 3.15341 290.311 3.33097 290.763 3.68608C291.218 4.03835 291.564 4.54972 291.803 5.22017C292.044 5.88778 292.165 6.69318 292.165 7.63636C292.165 8.58523 292.046 9.39489 291.807 10.0653C291.568 10.733 291.223 11.2429 290.771 11.5952C290.32 11.9446 289.773 12.1193 289.131 12.1193ZM289.131 11.1818C289.767 11.1818 290.262 10.875 290.614 10.2614C290.966 9.64773 291.142 8.77273 291.142 7.63636C291.142 6.88068 291.061 6.23722 290.899 5.70597C290.74 5.17472 290.51 4.76989 290.209 4.49148C289.911 4.21307 289.551 4.07386 289.131 4.07386C288.5 4.07386 288.007 4.38494 287.652 5.0071C287.297 5.62642 287.119 6.50284 287.119 7.63636C287.119 8.39205 287.199 9.03409 287.358 9.5625C287.517 10.0909 287.746 10.4929 288.044 10.7685C288.345 11.044 288.708 11.1818 289.131 11.1818ZM296.358 13.0909V2.18182H297.057V13.0909H296.358ZM298.71 5.45455C298.659 5.02273 298.452 4.6875 298.088 4.44886C297.725 4.21023 297.279 4.09091 296.75 4.09091C296.364 4.09091 296.026 4.15341 295.736 4.27841C295.449 4.40341 295.225 4.57528 295.063 4.79403C294.904 5.01278 294.824 5.26136 294.824 5.53977C294.824 5.77273 294.879 5.97301 294.99 6.14062C295.104 6.3054 295.249 6.44318 295.425 6.55398C295.601 6.66193 295.786 6.75142 295.979 6.82244C296.172 6.89062 296.35 6.94602 296.512 6.98864L297.398 7.22727C297.625 7.28693 297.878 7.36932 298.156 7.47443C298.438 7.57955 298.706 7.72301 298.962 7.90483C299.22 8.08381 299.433 8.31392 299.601 8.59517C299.769 8.87642 299.852 9.22159 299.852 9.63068C299.852 10.1023 299.729 10.5284 299.482 10.9091C299.237 11.2898 298.879 11.5923 298.408 11.8168C297.939 12.0412 297.369 12.1534 296.699 12.1534C296.074 12.1534 295.533 12.0526 295.075 11.8509C294.621 11.6491 294.263 11.3679 294.002 11.0071C293.743 10.6463 293.597 10.2273 293.563 9.75H294.654C294.682 10.0795 294.793 10.3523 294.986 10.5682C295.182 10.7812 295.429 10.9403 295.727 11.0455C296.029 11.1477 296.352 11.1989 296.699 11.1989C297.102 11.1989 297.465 11.1335 297.786 11.0028C298.107 10.8693 298.361 10.6847 298.548 10.4489C298.736 10.2102 298.83 9.93182 298.83 9.61364C298.83 9.32386 298.749 9.08807 298.587 8.90625C298.425 8.72443 298.212 8.5767 297.948 8.46307C297.683 8.34943 297.398 8.25 297.091 8.16477L296.017 7.85795C295.335 7.66193 294.796 7.3821 294.398 7.01847C294 6.65483 293.801 6.17898 293.801 5.59091C293.801 5.10227 293.933 4.67614 294.198 4.3125C294.465 3.94602 294.823 3.66193 295.271 3.46023C295.723 3.25568 296.227 3.15341 296.784 3.15341C297.347 3.15341 297.847 3.25426 298.284 3.45597C298.722 3.65483 299.068 3.92756 299.324 4.27415C299.583 4.62074 299.719 5.0142 299.733 5.45455H298.71Z" fill="#732E60"/>
<path d="M76.2608 220.083L56.4512 242.54" stroke="#732E60"/>
<path d="M4.3054 236.697C3.7429 236.697 3.24148 236.601 2.80114 236.408C2.36364 236.214 2.01563 235.946 1.7571 235.602C1.50142 235.256 1.36222 234.854 1.33949 234.396H2.41335C2.43608 234.677 2.53267 234.92 2.70312 235.125C2.87358 235.327 3.09659 235.483 3.37216 235.594C3.64773 235.704 3.95313 235.76 4.28835 235.76C4.66335 235.76 4.99574 235.695 5.28551 235.564C5.57528 235.433 5.80256 235.251 5.96733 235.018C6.1321 234.785 6.21449 234.516 6.21449 234.209C6.21449 233.888 6.13494 233.605 5.97585 233.361C5.81676 233.114 5.58381 232.92 5.27699 232.781C4.97017 232.642 4.59517 232.572 4.15199 232.572H3.45312V231.635H4.15199C4.49858 231.635 4.80256 231.572 5.06392 231.447C5.32813 231.322 5.53409 231.146 5.68182 230.919C5.83239 230.692 5.90767 230.425 5.90767 230.118C5.90767 229.822 5.84233 229.565 5.71165 229.346C5.58097 229.128 5.39631 228.957 5.15767 228.835C4.92188 228.713 4.64347 228.652 4.32244 228.652C4.02131 228.652 3.73722 228.707 3.47017 228.818C3.20597 228.926 2.99006 229.084 2.82244 229.291C2.65483 229.496 2.56392 229.743 2.54972 230.033H1.52699C1.54403 229.575 1.68182 229.175 1.94034 228.831C2.19886 228.484 2.53693 228.214 2.95455 228.021C3.375 227.828 3.83665 227.731 4.33949 227.731C4.87926 227.731 5.34233 227.841 5.72869 228.06C6.11506 228.275 6.41193 228.561 6.61932 228.916C6.8267 229.271 6.9304 229.655 6.9304 230.067C6.9304 230.558 6.80114 230.977 6.54261 231.324C6.28693 231.67 5.93892 231.91 5.49858 232.044V232.112C6.04972 232.203 6.48011 232.437 6.78977 232.815C7.09943 233.19 7.25426 233.655 7.25426 234.209C7.25426 234.683 7.125 235.109 6.86648 235.487C6.6108 235.862 6.26136 236.158 5.81818 236.373C5.375 236.589 4.87074 236.697 4.3054 236.697ZM11.8438 236.697C11.2017 236.697 10.6548 236.523 10.2031 236.173C9.75142 235.821 9.40625 235.311 9.16761 234.643C8.92898 233.973 8.80966 233.163 8.80966 232.214C8.80966 231.271 8.92898 230.466 9.16761 229.798C9.40909 229.128 9.75568 228.616 10.2074 228.264C10.6619 227.909 11.2074 227.731 11.8438 227.731C12.4801 227.731 13.0241 227.909 13.4759 228.264C13.9304 228.616 14.277 229.128 14.5156 229.798C14.7571 230.466 14.8778 231.271 14.8778 232.214C14.8778 233.163 14.7585 233.973 14.5199 234.643C14.2812 235.311 13.9361 235.821 13.4844 236.173C13.0327 236.523 12.4858 236.697 11.8438 236.697ZM11.8438 235.76C12.4801 235.76 12.9744 235.453 13.3267 234.839C13.679 234.226 13.8551 233.351 13.8551 232.214C13.8551 231.459 13.7741 230.815 13.6122 230.284C13.4531 229.753 13.223 229.348 12.9219 229.07C12.6236 228.791 12.2642 228.652 11.8438 228.652C11.2131 228.652 10.7202 228.963 10.3651 229.585C10.0099 230.204 9.83239 231.081 9.83239 232.214C9.83239 232.97 9.91193 233.612 10.071 234.141C10.2301 234.669 10.4588 235.071 10.7571 235.346C11.0582 235.622 11.4205 235.76 11.8438 235.76ZM17.7095 235.385L17.6413 235.845C17.593 236.169 17.5192 236.516 17.4197 236.885C17.3232 237.254 17.2223 237.602 17.1172 237.929C17.0121 238.256 16.9254 238.516 16.8572 238.709H16.0902C16.1271 238.527 16.1754 238.287 16.2351 237.989C16.2947 237.69 16.3544 237.356 16.4141 236.987C16.4766 236.621 16.5277 236.246 16.5675 235.862L16.6186 235.385H17.7095ZM22.0977 236.697C21.4556 236.697 20.9087 236.523 20.457 236.173C20.0053 235.821 19.6602 235.311 19.4215 234.643C19.1829 233.973 19.0636 233.163 19.0636 232.214C19.0636 231.271 19.1829 230.466 19.4215 229.798C19.663 229.128 20.0096 228.616 20.4613 228.264C20.9158 227.909 21.4613 227.731 22.0977 227.731C22.734 227.731 23.2781 227.909 23.7298 228.264C24.1843 228.616 24.5309 229.128 24.7695 229.798C25.011 230.466 25.1317 231.271 25.1317 232.214C25.1317 233.163 25.0124 233.973 24.7738 234.643C24.5352 235.311 24.19 235.821 23.7383 236.173C23.2866 236.523 22.7397 236.697 22.0977 236.697ZM22.0977 235.76C22.734 235.76 23.2283 235.453 23.5806 234.839C23.9329 234.226 24.109 233.351 24.109 232.214C24.109 231.459 24.0281 230.815 23.8661 230.284C23.707 229.753 23.4769 229.348 23.1758 229.07C22.8775 228.791 22.5181 228.652 22.0977 228.652C21.467 228.652 20.9741 228.963 20.619 229.585C20.2638 230.204 20.0863 231.081 20.0863 232.214C20.0863 232.97 20.1658 233.612 20.3249 234.141C20.484 234.669 20.7127 235.071 21.011 235.346C21.3121 235.622 21.6744 235.76 22.0977 235.76ZM29.5977 236.697C28.9556 236.697 28.4087 236.523 27.957 236.173C27.5053 235.821 27.1602 235.311 26.9215 234.643C26.6829 233.973 26.5636 233.163 26.5636 232.214C26.5636 231.271 26.6829 230.466 26.9215 229.798C27.163 229.128 27.5096 228.616 27.9613 228.264C28.4158 227.909 28.9613 227.731 29.5977 227.731C30.234 227.731 30.7781 227.909 31.2298 228.264C31.6843 228.616 32.0309 229.128 32.2695 229.798C32.511 230.466 32.6317 231.271 32.6317 232.214C32.6317 233.163 32.5124 233.973 32.2738 234.643C32.0352 235.311 31.69 235.821 31.2383 236.173C30.7866 236.523 30.2397 236.697 29.5977 236.697ZM29.5977 235.76C30.234 235.76 30.7283 235.453 31.0806 234.839C31.4329 234.226 31.609 233.351 31.609 232.214C31.609 231.459 31.5281 230.815 31.3661 230.284C31.207 229.753 30.9769 229.348 30.6758 229.07C30.3775 228.791 30.0181 228.652 29.5977 228.652C28.967 228.652 28.4741 228.963 28.119 229.585C27.7638 230.204 27.5863 231.081 27.5863 232.214C27.5863 232.97 27.6658 233.612 27.8249 234.141C27.984 234.669 28.2127 235.071 28.511 235.346C28.8121 235.622 29.1744 235.76 29.5977 235.76ZM37.0977 236.697C36.4556 236.697 35.9087 236.523 35.457 236.173C35.0053 235.821 34.6602 235.311 34.4215 234.643C34.1829 233.973 34.0636 233.163 34.0636 232.214C34.0636 231.271 34.1829 230.466 34.4215 229.798C34.663 229.128 35.0096 228.616 35.4613 228.264C35.9158 227.909 36.4613 227.731 37.0977 227.731C37.734 227.731 38.2781 227.909 38.7298 228.264C39.1843 228.616 39.5309 229.128 39.7695 229.798C40.011 230.466 40.1317 231.271 40.1317 232.214C40.1317 233.163 40.0124 233.973 39.7738 234.643C39.5352 235.311 39.19 235.821 38.7383 236.173C38.2866 236.523 37.7397 236.697 37.0977 236.697ZM37.0977 235.76C37.734 235.76 38.2283 235.453 38.5806 234.839C38.9329 234.226 39.109 233.351 39.109 232.214C39.109 231.459 39.0281 230.815 38.8661 230.284C38.707 229.753 38.4769 229.348 38.1758 229.07C37.8775 228.791 37.5181 228.652 37.0977 228.652C36.467 228.652 35.9741 228.963 35.619 229.585C35.2638 230.204 35.0863 231.081 35.0863 232.214C35.0863 232.97 35.1658 233.612 35.3249 234.141C35.484 234.669 35.7127 235.071 36.011 235.346C36.3121 235.622 36.6744 235.76 37.0977 235.76ZM44.5977 236.697C43.9556 236.697 43.4087 236.523 42.957 236.173C42.5053 235.821 42.1602 235.311 41.9215 234.643C41.6829 233.973 41.5636 233.163 41.5636 232.214C41.5636 231.271 41.6829 230.466 41.9215 229.798C42.163 229.128 42.5096 228.616 42.9613 228.264C43.4158 227.909 43.9613 227.731 44.5977 227.731C45.234 227.731 45.7781 227.909 46.2298 228.264C46.6843 228.616 47.0309 229.128 47.2695 229.798C47.511 230.466 47.6317 231.271 47.6317 232.214C47.6317 233.163 47.5124 233.973 47.2738 234.643C47.0352 235.311 46.69 235.821 46.2383 236.173C45.7866 236.523 45.2397 236.697 44.5977 236.697ZM44.5977 235.76C45.234 235.76 45.7283 235.453 46.0806 234.839C46.4329 234.226 46.609 233.351 46.609 232.214C46.609 231.459 46.5281 230.815 46.3661 230.284C46.207 229.753 45.9769 229.348 45.6758 229.07C45.3775 228.791 45.0181 228.652 44.5977 228.652C43.967 228.652 43.4741 228.963 43.119 229.585C42.7638 230.204 42.5863 231.081 42.5863 232.214C42.5863 232.97 42.6658 233.612 42.8249 234.141C42.984 234.669 43.2127 235.071 43.511 235.346C43.8121 235.622 44.1744 235.76 44.5977 235.76ZM51.8249 237.669V226.76H52.5238V237.669H51.8249ZM54.1772 230.033C54.1261 229.601 53.9187 229.266 53.555 229.027C53.1914 228.788 52.7454 228.669 52.217 228.669C51.8306 228.669 51.4925 228.731 51.2028 228.856C50.9158 228.981 50.6914 229.153 50.5295 229.372C50.3704 229.591 50.2908 229.839 50.2908 230.118C50.2908 230.351 50.3462 230.551 50.457 230.719C50.5707 230.883 50.7156 231.021 50.8917 231.132C51.0678 231.24 51.2525 231.329 51.4457 231.4C51.6388 231.469 51.8164 231.524 51.9783 231.567L52.8647 231.805C53.092 231.865 53.3448 231.947 53.6232 232.052C53.9045 232.158 54.1729 232.301 54.4286 232.483C54.6871 232.662 54.9002 232.892 55.0678 233.173C55.2354 233.454 55.3192 233.8 55.3192 234.209C55.3192 234.68 55.1957 235.106 54.9485 235.487C54.7042 235.868 54.3462 236.17 53.8746 236.395C53.4059 236.619 52.8363 236.731 52.1658 236.731C51.5408 236.731 50.9996 236.631 50.5423 236.429C50.0877 236.227 49.7298 235.946 49.4684 235.585C49.2099 235.224 49.0636 234.805 49.0295 234.328H50.1204C50.1488 234.658 50.2596 234.93 50.4528 235.146C50.6488 235.359 50.896 235.518 51.1942 235.623C51.4954 235.726 51.8192 235.777 52.1658 235.777C52.5692 235.777 52.9315 235.712 53.2525 235.581C53.5735 235.447 53.8278 235.263 54.0153 235.027C54.2028 234.788 54.2965 234.51 54.2965 234.192C54.2965 233.902 54.2156 233.666 54.0536 233.484C53.8917 233.302 53.6786 233.155 53.4144 233.041C53.1502 232.927 52.8647 232.828 52.5579 232.743L51.484 232.436C50.8022 232.24 50.2624 231.96 49.8647 231.596C49.467 231.233 49.2681 230.757 49.2681 230.169C49.2681 229.68 49.4002 229.254 49.6644 228.891C49.9315 228.524 50.2894 228.24 50.7383 228.038C51.19 227.834 51.6942 227.731 52.2511 227.731C52.8136 227.731 53.3136 227.832 53.7511 228.034C54.1886 228.233 54.5352 228.506 54.7908 228.852C55.0494 229.199 55.1857 229.592 55.1999 230.033H54.1772Z" fill="#732E60"/>
</svg>
