<svg width="52" height="50" viewBox="0 0 52 50" fill="none" xmlns="http://www.w3.org/2000/svg">
<path d="M26.1462 50C31.1422 50 36.026 48.5338 40.1801 45.7867C44.3342 43.0397 47.5719 39.1352 49.4838 34.5671C51.3957 29.9989 51.8959 24.9723 50.9212 20.1228C49.9465 15.2732 47.5407 10.8187 44.008 7.32234C40.4752 3.82603 35.9743 1.44501 31.0742 0.480379C26.1742 -0.484251 21.0952 0.0108321 16.4794 1.90302C11.8637 3.79521 7.91854 6.99953 5.14289 11.1108C2.36724 15.222 0.885742 20.0555 0.885742 25C0.885742 31.6304 3.5471 37.9893 8.28435 42.6777C10.63 44.9991 13.4147 46.8406 16.4794 48.097C19.5442 49.3534 22.8289 50 26.1462 50ZM16.7821 23.2325C17.0166 23.0003 17.295 22.816 17.6014 22.6903C17.9079 22.5646 18.2363 22.4999 18.568 22.4999C18.8998 22.4999 19.2282 22.5646 19.5347 22.6903C19.8411 22.816 20.1195 23.0003 20.3539 23.2325L23.6201 26.4648L31.9384 18.2325C32.4148 17.7771 33.0529 17.5251 33.7152 17.5308C34.3775 17.5365 35.0111 17.7994 35.4794 18.263C35.9478 18.7265 36.2134 19.3535 36.2192 20.009C36.225 20.6645 35.9703 21.296 35.5102 21.7675L25.406 31.7675C25.1716 31.9997 24.8932 32.1839 24.5867 32.3096C24.2803 32.4353 23.9518 32.5 23.6201 32.5C23.2884 32.5 22.96 32.4353 22.6535 32.3096C22.3471 32.1839 22.0687 31.9997 21.8342 31.7675L16.7821 26.7675C16.5475 26.5355 16.3613 26.2599 16.2343 25.9567C16.1073 25.6534 16.0419 25.3283 16.0419 25C16.0419 24.6717 16.1073 24.3466 16.2343 24.0434C16.3613 23.7401 16.5475 23.4645 16.7821 23.2325Z" fill="#595BD4"/>
</svg>
