<svg width="18" height="18" viewBox="0 0 18 18" fill="none" xmlns="http://www.w3.org/2000/svg">
<path d="M9 0C4.02837 0 0 4.02837 0 9C0 13.9716 4.02837 18 9 18C13.9716 18 18 13.9716 18 9C18 4.02837 13.9716 0 9 0ZM9 17.2514C6.46442 17.2514 4.19279 16.1005 2.67837 14.2962C3.44856 13.963 5.36971 13.2707 6.58558 12.9159C6.68077 12.8856 6.69808 12.8813 6.69808 12.4529C6.69808 11.9942 6.64615 11.6697 6.53365 11.4317C6.38221 11.1072 6.20048 10.5577 6.13558 10.0644C5.95385 9.8524 5.70721 9.43702 5.54712 8.64087C5.40865 7.9399 5.47356 7.68462 5.56442 7.44664C5.57308 7.42067 5.58606 7.39471 5.59038 7.36875C5.625 7.20865 5.5774 6.35192 5.45625 5.6899C5.37404 5.23558 5.47789 4.27067 6.10529 3.47019C6.49904 2.96394 7.25625 2.34519 8.6149 2.25865H9.37212C10.7524 2.34519 11.5096 2.96394 11.9034 3.47019C12.5308 4.27067 12.6346 5.23558 12.5481 5.6899C12.4269 6.35192 12.3793 7.20433 12.4139 7.36875C12.4183 7.39471 12.4313 7.42067 12.4399 7.44231C12.5308 7.68029 12.6 7.93558 12.4572 8.63654C12.2971 9.43269 12.0505 9.84808 11.8687 10.0601C11.8038 10.5534 11.6221 11.0986 11.4707 11.4274C11.3279 11.726 11.1851 12.0808 11.1851 12.4356C11.1851 12.8639 11.2024 12.8683 11.3019 12.8986C12.4572 13.2404 14.4476 13.9284 15.326 14.2875C13.8115 16.0962 11.5399 17.2514 9 17.2514Z" fill="#020C29"/>
</svg>
