<svg width="100" height="100" viewBox="0 0 100 100" fill="none" xmlns="http://www.w3.org/2000/svg">
<path d="M50 0C40.111 0 30.444 2.93245 22.2215 8.42652C13.999 13.9206 7.59043 21.7295 3.80604 30.8658C0.0216642 40.0021 -0.968502 50.0555 0.960758 59.7545C2.89002 69.4536 7.65206 78.3627 14.6447 85.3553C21.6373 92.3479 30.5465 97.11 40.2455 99.0392C49.9445 100.968 59.9979 99.9783 69.1342 96.194C78.2705 92.4096 86.0794 86.0009 91.5735 77.7785C97.0676 69.556 100 59.8891 100 50C100 36.7392 94.7322 24.0215 85.3553 14.6447C75.9785 5.26784 63.2608 0 50 0ZM50 92.8571C41.5237 92.8571 33.2377 90.3436 26.1899 85.6344C19.142 80.9252 13.6489 74.2318 10.4052 66.4007C7.16143 58.5696 6.31271 49.9524 7.96637 41.639C9.62002 33.3255 13.7018 25.6891 19.6954 19.6954C25.6891 13.7017 33.3255 9.62 41.639 7.96634C49.9525 6.31269 58.5696 7.16141 66.4007 10.4052C74.2318 13.6489 80.9252 19.142 85.6344 26.1898C90.3436 33.2377 92.8571 41.5236 92.8571 50C92.8571 61.3664 88.3419 72.2673 80.3046 80.3046C72.2673 88.3418 61.3664 92.8571 50 92.8571ZM64.2857 57.1428C64.2857 59.9845 63.1569 62.7097 61.1476 64.719C59.1383 66.7283 56.413 67.8571 53.5714 67.8571V75H46.4286V67.8571H39.2857V60.7143H53.5714C54.5186 60.7143 55.4271 60.338 56.0968 59.6682C56.7666 58.9985 57.1429 58.09 57.1429 57.1428C57.1429 56.1956 56.7666 55.2872 56.0968 54.6175C55.4271 53.9477 54.5186 53.5714 53.5714 53.5714H46.4286C43.587 53.5714 40.8618 52.4426 38.8524 50.4333C36.8431 48.424 35.7143 45.6987 35.7143 42.8571C35.7143 40.0155 36.8431 37.2903 38.8524 35.281C40.8618 33.2717 43.587 32.1428 46.4286 32.1428V25H53.5714V32.1428H60.7143V39.2857H46.4286C45.4814 39.2857 44.573 39.662 43.9032 40.3318C43.2334 41.0015 42.8572 41.9099 42.8572 42.8571C42.8572 43.8043 43.2334 44.7127 43.9032 45.3825C44.573 46.0523 45.4814 46.4286 46.4286 46.4286H53.5714C56.413 46.4286 59.1383 47.5574 61.1476 49.5667C63.1569 51.576 64.2857 54.3012 64.2857 57.1428Z" fill="url(#paint0_linear_2_167)"/>
<defs>
<linearGradient id="paint0_linear_2_167" x1="50" y1="0" x2="50" y2="100" gradientUnits="userSpaceOnUse">
<stop stop-color="white"/>
<stop offset="1" stop-color="#2C4872"/>
</linearGradient>
</defs>
</svg>
