<svg width="36" height="36" viewBox="0 0 36 36" fill="none" xmlns="http://www.w3.org/2000/svg">
<path d="M17.7497 35.4841C27.5525 35.4841 35.4993 27.5408 35.4993 17.7421C35.4993 7.9434 27.5525 0 17.7497 0C7.94679 0 0 7.9434 0 17.7421C0 27.5408 7.94679 35.4841 17.7497 35.4841Z" fill="#239FDB"/>
<path d="M17.0453 35.4487C17.2799 35.4652 17.5147 35.477 17.7496 35.4842C18.1689 35.4844 18.5881 35.4697 19.0063 35.4402C19.5964 35.3986 20.1841 35.3275 20.7671 35.2273C21.3502 35.1266 21.9279 34.9968 22.498 34.8384C23.0679 34.6797 23.6295 34.4925 24.1807 34.2777C24.732 34.0636 25.2723 33.822 25.7995 33.5539C26.3274 33.2855 26.8416 32.9908 27.3401 32.671C27.8379 32.3513 28.3194 32.0069 28.7828 31.6391C29.2465 31.2717 29.6915 30.8814 30.1162 30.4696C30.5408 30.0576 30.9446 29.6246 31.326 29.1723C31.7066 28.7201 32.0645 28.2493 32.3981 27.7614C32.7332 27.2725 33.0436 26.767 33.3282 26.247C33.6116 25.7279 33.869 25.195 34.0992 24.6502C34.329 24.1052 34.5313 23.549 34.7055 22.9838C34.8803 22.419 35.0268 21.8458 35.1443 21.2664C35.2625 20.6869 35.3516 20.1019 35.4113 19.5135C35.4701 18.9249 35.4995 18.3337 35.4993 17.7421C35.4951 17.4926 35.4856 17.2432 35.4709 16.9941L29.8308 11.355H7.09985V25.5061L17.0453 35.4487Z" fill="#0B5ECD"/>
<g clip-path="url(#clip0_1408_4729)">
<path d="M17.1318 12.3398H17.6935V23.4286H17.1318V12.3398ZM18.2552 12.3398H18.8169V23.4286H18.2552V12.3398Z" fill="white"/>
<path d="M17.9711 22.0069C16.8236 22.0069 16.0136 21.776 15.5637 21.3208C15.166 20.9182 15.166 20.4707 15.166 20.3021L15.7277 20.301C15.7277 20.4255 15.7277 20.6825 15.9611 20.9185C16.1953 21.1556 16.734 21.4383 17.9711 21.4383C19.0316 21.4383 19.7672 21.2321 20.1567 20.8258C20.53 20.4369 20.5148 19.9265 20.505 19.5884C20.5036 19.5367 20.5021 19.4895 20.5021 19.448C20.5021 19.4309 20.4333 17.742 17.9711 17.742C15.6081 17.742 15.4539 15.7281 15.4441 15.4901C15.4295 15.3608 15.3679 14.5837 15.9024 13.9596C16.3383 13.4506 17.0342 13.1927 17.9709 13.1927C20.7473 13.1927 20.7793 15.1631 20.7793 15.183H20.2176H20.4985L20.2176 15.1853C20.2168 15.1273 20.1685 13.7614 17.9709 13.7614C17.2075 13.7614 16.6556 13.9519 16.3307 14.3275C15.9249 14.7964 16.0015 15.4225 16.0024 15.4284L16.0052 15.4674C16.0058 15.5359 16.0411 17.1733 17.9711 17.1733C20.9796 17.1733 21.0638 19.4252 21.0638 19.448C21.0638 19.4844 21.065 19.5259 21.0664 19.5716C21.0776 19.9521 21.0984 20.6603 20.5597 21.2222C20.0604 21.7428 19.1895 22.0069 17.9711 22.0069Z" fill="white"/>
<path d="M17.9745 26.8406C15.5741 26.8406 13.3172 25.894 11.62 24.1753C9.92225 22.4568 8.9873 20.1722 8.9873 17.7421C8.9873 15.3119 9.92225 13.0273 11.62 11.3088C13.3172 9.59008 15.5741 8.64355 17.9745 8.64355C20.3749 8.64355 22.6318 9.59008 24.3292 11.3088C26.0267 13.0273 26.9616 15.3119 26.9616 17.7421C26.9616 20.1722 26.0267 22.4568 24.329 24.1753C22.6318 25.894 20.3749 26.8406 17.9745 26.8406ZM17.9745 9.21221C15.724 9.21221 13.6084 10.0996 12.0171 11.7109C10.4255 13.3219 9.549 15.4637 9.549 17.7421C9.549 20.0204 10.4255 22.1622 12.0171 23.7732C13.6084 25.3845 15.724 26.2719 17.9745 26.2719C20.2249 26.2719 22.3406 25.3845 23.9321 23.7732C25.5237 22.1622 26.3999 20.0204 26.3999 17.7421C26.3999 15.4637 25.5234 13.3219 23.9318 11.7109C22.3406 10.0996 20.2249 9.21221 17.9745 9.21221Z" fill="white"/>
</g>
<defs>
<clipPath id="clip0_1408_4729">
<rect width="17.9743" height="18.197" fill="white" transform="translate(8.9873 8.64355)"/>
</clipPath>
</defs>
</svg>
