<svg width="36" height="36" viewBox="0 0 36 36" fill="none" xmlns="http://www.w3.org/2000/svg">
<path d="M17.7497 35.4841C27.5525 35.4841 35.4993 27.5407 35.4993 17.7421C35.4993 7.9434 27.5525 0 17.7497 0C7.94679 0 0 7.9434 0 17.7421C0 27.5407 7.94679 35.4841 17.7497 35.4841Z" fill="#239FDB"/>
<path d="M17.0453 35.4487C17.2799 35.4652 17.5147 35.477 17.7496 35.4842C18.1689 35.4844 18.5881 35.4697 19.0063 35.4402C19.5964 35.3986 20.1841 35.3275 20.7671 35.2273C21.3502 35.1266 21.9279 34.9968 22.498 34.8384C23.0679 34.6797 23.6295 34.4925 24.1807 34.2777C24.732 34.0636 25.2723 33.822 25.7995 33.5539C26.3274 33.2855 26.8416 32.9908 27.3401 32.671C27.8379 32.3513 28.3194 32.0069 28.7828 31.6391C29.2465 31.2717 29.6915 30.8814 30.1162 30.4696C30.5408 30.0576 30.9446 29.6246 31.326 29.1723C31.7066 28.7201 32.0645 28.2493 32.3981 27.7614C32.7332 27.2725 33.0436 26.767 33.3282 26.247C33.6116 25.7279 33.869 25.195 34.0992 24.6502C34.329 24.1052 34.5313 23.549 34.7055 22.9838C34.8803 22.419 35.0268 21.8458 35.1443 21.2664C35.2625 20.6869 35.3516 20.1019 35.4113 19.5135C35.4701 18.9249 35.4995 18.3337 35.4993 17.7421C35.4951 17.4926 35.4856 17.2432 35.4709 16.9941L29.8308 11.355H7.09985V25.5061L17.0453 35.4487Z" fill="#0B5ECD"/>
<path d="M9.05094 25.9746H5.2068C5.13191 25.9746 5.07129 25.9169 5.07129 25.849V19.4007C5.07129 19.3294 5.13191 19.2717 5.2068 19.2717H9.05094C9.12583 19.2717 9.18645 19.3294 9.18645 19.4007V25.849C9.18288 25.9169 9.12583 25.9746 9.05094 25.9746Z" stroke="white" stroke-miterlimit="10" stroke-linecap="round" stroke-linejoin="round"/>
<path d="M9.18286 19.9639C12.164 19.7976 14.6424 19.8146 16.1116 21.2876H19.1641C19.7632 21.2876 20.2482 21.7491 20.2482 22.3193C20.2482 22.8895 19.7632 23.351 19.1641 23.351H13.8436" stroke="white" stroke-miterlimit="10" stroke-linecap="round" stroke-linejoin="round"/>
<path d="M9.18286 25.0445L16.4218 26.772C17.1992 26.9587 18.023 26.867 18.7326 26.5141L27.3694 22.2548C28.532 21.6201 27.7225 20.0114 25.2726 20.8701L20.1554 22.7299" stroke="white" stroke-miterlimit="10" stroke-linecap="round" stroke-linejoin="round"/>
<path d="M17.3098 15.484H19.0892" stroke="white" stroke-miterlimit="10" stroke-linecap="round" stroke-linejoin="round"/>
<path d="M18.5258 17.4423L17.3098 16.2375H17.7663C18.2156 16.2375 18.5829 15.8913 18.5829 15.4603C18.5829 15.0327 18.2191 14.6831 17.7663 14.6831H17.3098H19.0857" stroke="white" stroke-miterlimit="10" stroke-linecap="round" stroke-linejoin="round"/>
<path d="M11.3296 19.1392H25.0694" stroke="white" stroke-miterlimit="10" stroke-linecap="round" stroke-linejoin="round"/>
<path d="M15.1309 19.1358V17.2217" stroke="white" stroke-miterlimit="10" stroke-linecap="round" stroke-linejoin="round"/>
<path d="M12.9915 19.1358V11.6456H11.968L14.104 9.60925L16.2615 11.6625H15.1311V14.4625" stroke="white" stroke-miterlimit="10" stroke-linecap="round" stroke-linejoin="round"/>
<path d="M21.25 14.1435V11.6218H20.2266L22.3305 9.62622L24.4237 11.6184H23.4074V19.1358" stroke="white" stroke-miterlimit="10" stroke-linecap="round" stroke-linejoin="round"/>
<path d="M21.2502 19.1368V17.5374" stroke="white" stroke-miterlimit="10" stroke-linecap="round" stroke-linejoin="round"/>
<path d="M18.2834 19.1392C20.1957 19.1392 21.746 17.6638 21.746 15.8438C21.746 14.0238 20.1957 12.5483 18.2834 12.5483C16.3711 12.5483 14.8208 14.0238 14.8208 15.8438C14.8208 17.6638 16.3711 19.1392 18.2834 19.1392Z" stroke="white" stroke-miterlimit="10" stroke-linecap="round" stroke-linejoin="round"/>
<path d="M17.1099 12.7418V8.15666H16.0508L18.2296 6.08301L20.4013 8.14648H19.2423V12.6739" stroke="white" stroke-miterlimit="10" stroke-linecap="round" stroke-linejoin="round"/>
<path d="M18.2834 18.1483C19.6206 18.1483 20.7047 17.1166 20.7047 15.8439C20.7047 14.5712 19.6206 13.5394 18.2834 13.5394C16.9461 13.5394 15.8621 14.5712 15.8621 15.8439C15.8621 17.1166 16.9461 18.1483 18.2834 18.1483Z" stroke="white" stroke-miterlimit="10" stroke-linecap="round" stroke-linejoin="round"/>
</svg>
