<svg width="36" height="36" viewBox="0 0 36 36" fill="none" xmlns="http://www.w3.org/2000/svg">
<circle cx="17.5635" cy="17.5703" r="17.5" fill="url(#paint0_linear_300_255)"/>
<g clip-path="url(#clip0_300_255)">
<path d="M17.4204 9.92029C15.9371 9.92029 14.487 10.3602 13.2536 11.1843C12.0203 12.0084 11.059 13.1797 10.4913 14.5502C9.92366 15.9206 9.77513 17.4286 10.0645 18.8835C10.3539 20.3383 11.0682 21.6747 12.1171 22.7236C13.166 23.7725 14.5024 24.4868 15.9572 24.7762C17.4121 25.0656 18.9201 24.917 20.2905 24.3494C21.661 23.7817 22.8323 22.8204 23.6564 21.5871C24.4805 20.3537 24.9204 18.9036 24.9204 17.4203C24.9204 15.4312 24.1302 13.5235 22.7237 12.117C21.3172 10.7105 19.4095 9.92029 17.4204 9.92029ZM17.4204 23.8489C16.149 23.8489 14.9061 23.4718 13.8489 22.7654C12.7917 22.0591 11.9678 21.0551 11.4812 19.8804C10.9946 18.7057 10.8673 17.4132 11.1154 16.1661C11.3634 14.9191 11.9757 13.7737 12.8747 12.8746C13.7738 11.9755 14.9192 11.3633 16.1663 11.1152C17.4133 10.8672 18.7059 10.9945 19.8805 11.4811C21.0552 11.9676 22.0592 12.7916 22.7656 13.8488C23.472 14.9059 23.849 16.1488 23.849 17.4203C23.849 19.1252 23.1717 20.7604 21.9661 21.966C20.7605 23.1716 19.1254 23.8489 17.4204 23.8489ZM19.5633 18.4917C19.5633 18.918 19.3939 19.3267 19.0925 19.6281C18.7911 19.9295 18.3824 20.0989 17.9561 20.0989V21.1703H16.8847V20.0989H15.8133V19.0274H17.9561C18.0982 19.0274 18.2345 18.971 18.3349 18.8705C18.4354 18.7701 18.4918 18.6338 18.4918 18.4917C18.4918 18.3496 18.4354 18.2134 18.3349 18.1129C18.2345 18.0124 18.0982 17.956 17.9561 17.956H16.8847C16.4585 17.956 16.0497 17.7867 15.7483 17.4853C15.4469 17.1839 15.2776 16.7751 15.2776 16.3489C15.2776 15.9226 15.4469 15.5138 15.7483 15.2124C16.0497 14.911 16.4585 14.7417 16.8847 14.7417V13.6703H17.9561V14.7417H19.0276V15.8131H16.8847C16.7426 15.8131 16.6064 15.8696 16.5059 15.9701C16.4054 16.0705 16.349 16.2068 16.349 16.3489C16.349 16.4909 16.4054 16.6272 16.5059 16.7277C16.6064 16.8281 16.7426 16.8846 16.8847 16.8846H17.9561C18.3824 16.8846 18.7911 17.0539 19.0925 17.3553C19.3939 17.6567 19.5633 18.0655 19.5633 18.4917Z" fill="white"/>
</g>
<defs>
<linearGradient id="paint0_linear_300_255" x1="7.73068" y1="-15.3084" x2="-23.0267" y2="30.872" gradientUnits="userSpaceOnUse">
<stop stop-color="#487106"/>
</linearGradient>
<clipPath id="clip0_300_255">
<rect width="14.9762" height="14.9762" fill="white" transform="translate(9.98438 9.98425)"/>
</clipPath>
</defs>
</svg>
