<svg width="100" height="100" viewBox="0 0 100 100" fill="none" xmlns="http://www.w3.org/2000/svg">
<path d="M37.2031 45.7187C37.3281 45.8437 37.4844 45.9375 37.6406 46.0156C38.2969 55 45.7969 62.1094 54.9531 62.1094C64.5312 62.1094 72.3281 54.3125 72.3281 44.7344C72.3281 39.7969 70.2344 35.3281 66.9062 32.1719L67.4219 25.0312C67.5469 23.125 66.9688 21.3594 65.5938 19.4531C65.0625 18.7187 64.4062 18.0312 63.5 17.2656C62.5156 16.4375 61.5469 15.5469 60.5781 14.6562C58.3125 12.5781 55.9688 10.4375 53.2188 8.70311C50.3906 6.93749 46.9688 5.15624 42.9219 5.42186L38.4219 5.70311C37.1719 5.78124 35.9062 5.95311 34.6875 6.21874L14.7031 10.5625V8.26561C14.7031 7.42186 14.0312 6.74999 13.1875 6.74999H1.51562C0.671875 6.74999 0 7.42186 0 8.26561V37.7656C0 38.6094 0.671875 39.2812 1.51562 39.2812H13.1875C13.875 39.2812 14.4219 38.8125 14.6094 38.2031C19.0938 41.25 22.75 41.2812 26.0312 41.3125C29.7188 41.3125 32.9062 41.3437 37.2031 45.7187ZM11.6719 36.25H3.03125V9.78124H11.6719V36.25ZM69.2969 44.7344C69.2969 52.6406 62.8594 59.0781 54.9531 59.0781C47.0469 59.0781 40.6094 52.6406 40.6094 44.7344C40.6094 36.8281 47.0469 30.3906 54.9531 30.3906C62.8594 30.3906 69.2969 36.8281 69.2969 44.7344ZM42 26.5312L46.9844 21.5L52.9688 27.4844C50.2813 27.7969 47.7969 28.7187 45.625 30.1094L42 26.5312ZM14.7031 13.6719L35.3281 9.17186C36.4062 8.93749 37.5 8.78124 38.6094 8.71874L43.1094 8.43749C46.2812 8.23436 49.0625 9.67186 51.5938 11.2656C54.1094 12.8594 56.3594 14.9062 58.5156 16.8906C59.5312 17.8125 60.5156 18.7187 61.5312 19.5781C62.2344 20.1875 62.75 20.7031 63.125 21.2344C64.0781 22.5469 64.4688 23.6719 64.3906 24.8281L64.0156 29.9687C62 28.7344 59.7344 27.8906 57.2969 27.5625L49.1094 19.375C47.9375 18.2031 46.0469 18.2031 44.875 19.375L39.8438 24.4062C39.2812 24.9687 38.9688 25.7187 38.9688 26.5312C38.9688 27.3281 39.2812 28.0781 39.8438 28.6562L43.2031 32.0156C40.2977 34.6871 38.3906 38.2698 37.7969 42.1719C33.3281 38.3594 29.6406 38.3281 26.0469 38.2969C22.5312 38.2812 19.2031 38.25 14.7031 34.5V13.6719Z" fill="url(#paint0_linear_540_164)"/>
<path d="M54.7502 36.1094C54.7346 36.1406 54.7189 36.1875 54.7033 36.25L54.5002 38.25C53.9221 38.3125 53.4064 38.4375 52.9533 38.6406C52.5002 38.8281 52.1096 39.0781 51.7971 39.375C51.4846 39.6875 51.2502 40.0312 51.0783 40.4375C50.9064 40.8437 50.8283 41.2969 50.8283 41.7969C50.8283 42.3438 50.9064 42.8125 51.0783 43.2031C51.2346 43.5937 51.4533 43.9219 51.7346 44.1875C52.0002 44.4531 52.3127 44.6875 52.6565 44.875C53.0002 45.0625 53.3439 45.2188 53.7033 45.3594C54.0627 45.5 54.4065 45.625 54.7502 45.75C55.094 45.875 55.3908 46.0156 55.6721 46.1719C55.9377 46.3281 56.1564 46.5156 56.3283 46.7187C56.4846 46.9219 56.5783 47.1875 56.5783 47.5C56.5783 47.9844 56.3908 48.3594 56.0158 48.6562C55.6408 48.9375 55.0627 49.0938 54.2815 49.0938C53.7815 49.0938 53.344 49.0469 52.9846 48.9375C52.6096 48.8438 52.2971 48.7344 52.0471 48.6094C51.7815 48.4844 51.5783 48.375 51.4065 48.2812C51.2346 48.1875 51.1096 48.125 51.0314 48.125C50.9689 48.125 50.9064 48.1406 50.8596 48.1719C50.8127 48.2031 50.7658 48.25 50.7346 48.3281C50.7033 48.4063 50.6721 48.5156 50.6721 48.6719C50.6565 48.8125 50.6564 49 50.6564 49.2344C50.6564 49.5312 50.6721 49.75 50.7033 49.8906C50.7346 50.0469 50.7971 50.1563 50.8752 50.2344C50.9533 50.3125 51.0627 50.3906 51.2189 50.4687C51.3752 50.5469 51.5471 50.625 51.7502 50.7031C51.9533 50.7813 52.1877 50.8438 52.4377 50.9063C52.6877 50.9688 52.9533 51.0156 53.2502 51.0625L53.0471 53.0781C53.0282 53.1456 53.0337 53.2175 53.0627 53.2812C53.0783 53.3437 53.1408 53.3906 53.2033 53.4219C53.2814 53.4531 53.3752 53.4844 53.5002 53.5C53.6252 53.5156 53.7971 53.5312 54.0158 53.5312C54.1877 53.5312 54.3127 53.5156 54.4221 53.5C54.5315 53.4844 54.6252 53.4688 54.6877 53.4375C54.7502 53.4063 54.7971 53.375 54.8127 53.3438L54.8596 53.2031L55.0627 51.0781C55.7033 51.0312 56.2814 50.9063 56.7971 50.7031C57.3283 50.5 57.7658 50.2344 58.1408 49.9063C58.5158 49.5781 58.7971 49.1719 59.0002 48.7188C59.2033 48.2656 59.2971 47.75 59.2971 47.1719C59.2971 46.6406 59.219 46.1719 59.0471 45.7969C58.7278 45.0779 58.1628 44.4962 57.4533 44.1562C57.1096 43.9688 56.7502 43.8125 56.3908 43.6719C56.0314 43.5313 55.6721 43.4063 55.3283 43.2813C54.9846 43.1563 54.6721 43.0156 54.3908 42.8594C54.1096 42.7031 53.8908 42.5312 53.7346 42.3125C53.5622 42.0895 53.4737 41.8129 53.4846 41.5312C53.4846 41.3281 53.5158 41.1562 53.5939 40.9844C53.6721 40.8125 53.7815 40.6719 53.9377 40.5625C54.094 40.4375 54.2971 40.3438 54.5315 40.2813C54.7815 40.2188 55.0783 40.1875 55.4221 40.1875C55.7971 40.1875 56.1408 40.2344 56.4689 40.3125C56.7814 40.4062 57.0627 40.4844 57.2971 40.5937C57.5314 40.6875 57.7502 40.7812 57.9065 40.875C58.0783 40.9687 58.2033 41 58.2814 41C58.3283 41 58.3752 40.9844 58.4065 40.9687C58.4377 40.9375 58.4689 40.9062 58.5002 40.8281C58.5361 40.7335 58.5521 40.6324 58.5471 40.5313C58.5627 40.4063 58.5627 40.2344 58.5627 40.0313C58.5627 39.875 58.5627 39.75 58.5471 39.625C58.5471 39.5156 58.5315 39.4063 58.5158 39.3281C58.5002 39.25 58.4689 39.1719 58.4533 39.125C58.4221 39.0625 58.3752 39.0156 58.3283 38.9531C58.2416 38.8731 58.141 38.8096 58.0314 38.7656C57.8908 38.7031 57.719 38.625 57.5471 38.5625C57.3752 38.5 57.1721 38.4375 56.9689 38.3906C56.7658 38.3437 56.5627 38.3125 56.3752 38.2812L56.5783 36.4062C56.5783 36.3281 56.5627 36.2656 56.5471 36.2031C56.5314 36.1406 56.4846 36.0937 56.4064 36.0625C56.3066 36.0216 56.2013 35.9953 56.094 35.9844C55.9221 35.9375 55.7502 35.9375 55.5471 35.9375C55.3752 35.9375 55.2346 35.9375 55.1252 35.9531C55.0391 35.9608 54.9548 35.9819 54.8752 36.0156C54.8127 36.0469 54.7658 36.0781 54.7502 36.1094ZM98.3439 61.875C98.3221 61.4874 98.153 61.1228 97.8713 60.8556C97.5896 60.5884 97.2166 60.4389 96.8283 60.4375H85.1252C84.2815 60.4375 83.6096 61.1094 83.6096 61.9531V64.625H79.1252C77.4221 64.625 75.7658 65 74.2033 65.7656L66.0783 69.6719C65.3283 70.0469 64.5158 70.2344 63.6565 70.2344H52.4377C50.1877 70.2344 48.6877 72.6875 48.0315 74.7969L31.4221 68.2031C28.7814 67.1406 25.7658 68.2656 24.4533 70.6875C23.7346 72.0313 23.5783 73.5625 24.0158 75.0312C24.4533 76.4688 25.4064 77.6406 26.7189 78.3438L55.1096 93.4844C56.5315 94.2344 58.1096 94.625 59.6877 94.625C60.3127 94.625 60.9377 94.5625 61.5471 94.4375C66.5002 93.4375 73.4221 90.8125 77.1096 89.3281C78.0158 88.9687 78.9533 88.7969 79.9065 88.7969H83.6096V91.4531C83.6096 92.2969 84.2815 92.9688 85.1252 92.9688H98.4846C98.6897 92.9692 98.8927 92.9275 99.0811 92.8463C99.2695 92.7651 99.4392 92.6462 99.5798 92.4968C99.7204 92.3474 99.8289 92.1708 99.8985 91.9779C99.9681 91.7849 99.9974 91.5797 99.9846 91.375L98.3439 61.875ZM83.6096 85.7656H79.9065C78.5627 85.7656 77.2346 86.0156 75.9846 86.5156C72.3908 87.9531 65.6564 90.5 60.9533 91.4688C59.4689 91.7656 57.9065 91.5312 56.5315 90.7969L28.1252 75.6562C27.5314 75.3437 27.0939 74.8125 26.8908 74.1406C26.6877 73.4531 26.7502 72.75 27.0939 72.125C27.6877 71.0156 29.0002 70.5 30.2814 71.0156L48.2033 78.1406L48.344 78.2344C49.2971 80.5 50.7815 81.8438 52.4065 81.8438H64.9221C65.7658 81.8438 66.4377 81.1719 66.4377 80.3281C66.4377 79.4844 65.7658 78.8125 64.9221 78.8125H52.4065C52.1877 78.7812 51.4377 78.0625 50.9221 76.5625C50.8752 76.3906 50.8127 76.2187 50.7815 76.0469C51.1721 74.5156 52.0471 73.3281 52.4065 73.2656H63.6252C64.9533 73.2656 66.2033 72.9688 67.3752 72.4062L75.5002 68.5C76.6565 67.9531 77.8596 67.6719 79.1096 67.6719H83.594V85.7656H83.6096ZM86.6408 89.9375V63.4687H95.3908L96.8752 89.9375H86.6408Z" fill="url(#paint1_linear_540_164)"/>
<defs>
<linearGradient id="paint0_linear_540_164" x1="36.1641" y1="5.39542" x2="36.1641" y2="62.1094" gradientUnits="userSpaceOnUse">
<stop stop-color="white"/>
<stop offset="1" stop-color="#00C6FF"/>
</linearGradient>
<linearGradient id="paint1_linear_540_164" x1="61.88" y1="35.9375" x2="61.88" y2="94.625" gradientUnits="userSpaceOnUse">
<stop stop-color="white"/>
<stop offset="1" stop-color="#00C6FF"/>
</linearGradient>
</defs>
</svg>
