<svg width="107" height="94" viewBox="0 0 107 94" fill="none" xmlns="http://www.w3.org/2000/svg">
<path d="M100.277 41.1666H60.4V6.16665C60.4 4.61955 59.6998 3.13582 58.4534 2.04186C57.207 0.947896 55.5165 0.333313 53.7539 0.333313C51.9912 0.333313 50.3007 0.947896 49.0543 2.04186C47.8079 3.13582 47.1077 4.61955 47.1077 6.16665V41.1666H7.23065C5.46797 41.1666 3.77749 41.7812 2.53109 42.8752C1.28469 43.9691 0.584473 45.4529 0.584473 47C0.584473 48.5471 1.28469 50.0308 2.53109 51.1248C3.77749 52.2187 5.46797 52.8333 7.23065 52.8333H47.1077V87.8333C47.1077 89.3804 47.8079 90.8641 49.0543 91.9581C50.3007 93.052 51.9912 93.6666 53.7539 93.6666C55.5165 93.6666 57.207 93.052 58.4534 91.9581C59.6998 90.8641 60.4 89.3804 60.4 87.8333V52.8333H100.277C102.04 52.8333 103.73 52.2187 104.977 51.1248C106.223 50.0308 106.923 48.5471 106.923 47C106.923 45.4529 106.223 43.9691 104.977 42.8752C103.73 41.7812 102.04 41.1666 100.277 41.1666Z" fill="#D8A353"/>
</svg>
