<svg width="30" height="30" viewBox="0 0 30 30" fill="none" xmlns="http://www.w3.org/2000/svg">
<g clip-path="url(#clip0_2144_516)">
<path d="M18.0683 0C13.9717 0 10.3579 1.92143 8.20935 4.8482C8.49827 5.1554 8.72099 5.51771 8.85523 5.91643C10.7454 3.0197 14.168 1.08055 18.0683 1.08055C24.0072 1.08055 28.8388 5.56201 28.8388 11.0881C28.8388 12.7171 28.4186 14.3062 27.6745 15.6029H12.1408C12.168 16.0351 12.1853 16.4089 12.1921 16.8322C12.5757 16.9663 12.9211 17.1479 13.1145 17.3393C13.2551 17.4784 13.3213 17.6296 13.3112 17.7814C13.2794 18.2624 12.7507 18.6635 12.2394 19.0498C12.2067 19.0746 12.1738 19.1004 12.1409 19.1254C12.1357 19.2199 12.1307 19.3146 12.1247 19.4105C12.0991 19.8172 11.8879 20.175 11.5716 20.4158C13.4411 21.5473 15.672 22.2053 18.0683 22.2053C24.658 22.2053 30 17.2345 30 11.1027C30 4.97095 24.658 0 18.0683 0Z" fill="#D8A353"/>
<path d="M19.4601 5.98601H16.6766L15.5221 8.57933H20.6146L19.4601 5.98601ZM17.0372 6.46685L16.324 7.41244L16.8843 6.20212H18.3991L17.0372 6.46685ZM16.6564 9.1196H13.8729L12.7184 11.7129H17.8109L16.6564 9.1196ZM14.2334 9.61719L13.5204 10.5545L14.0807 9.33582H15.5954L14.2334 9.61719ZM19.4803 9.1196L18.3258 11.7129H23.4183L22.2638 9.1196H19.4803ZM19.8408 9.61719L19.1278 10.5545L19.6881 9.33582H21.2029L19.8408 9.61719ZM13.967 12.5774H11.5969C11.6197 12.5774 11.642 12.6854 11.6634 12.7935H12.9061L11.7328 13.0384C11.9018 13.6691 12.0244 14.3062 12.1006 15.1707H15.1214L13.967 12.5774ZM16.6765 12.5774L15.5223 15.1707H20.6145L19.4603 12.5774H16.6765ZM17.037 13.0652L16.3243 14.0072L16.8843 12.7935H18.3994L17.037 13.0652ZM22.1696 12.5774L21.0154 15.1707H26.1076L24.9534 12.5774H22.1696ZM22.5301 13.0652L21.8174 14.0072L22.3774 12.7935H23.8925L22.5301 13.0652ZM12.3682 8.90349H12.4316C12.5486 7.60683 13.0079 7.16889 14.4014 7.06007V7.00097C13.0079 6.89216 12.5486 6.52628 12.4316 5.22963H12.3682C12.2511 6.52628 11.8467 6.89216 10.4532 7.00097V7.06007C11.8467 7.16889 12.2511 7.60683 12.3682 8.90349ZM25.8038 10.9565H25.8672C25.9842 9.65987 26.3622 9.302 27.7557 9.19308V9.13397C26.3622 9.02516 25.9842 8.68738 25.8672 7.28267H25.8038C25.6867 8.68738 25.3171 9.02527 23.8075 9.13397V9.19308C25.317 9.302 25.6867 9.65987 25.8038 10.9565ZM20.5793 5.98601H20.6427C20.7597 4.68935 21.1366 4.32672 22.53 4.2178V4.1587C21.1366 4.04999 20.7597 3.60881 20.6427 2.31215H20.5793C20.4622 3.60881 20.0914 4.04999 18.5818 4.1587V4.2178C20.0914 4.32672 20.4622 4.68935 20.5793 5.98601ZM5.29512 28.6012L5.57602 28.3101V27.8938C5.34378 26.88 5.11153 24.99 5.57602 23.9743V19.4502V18.9527H6.04052V19.4502V23.1485C6.62113 22.4896 7.22404 22.0153 7.80234 21.5844C7.99557 21.4404 8.18496 21.3044 8.35973 21.1651C8.55551 21.009 8.71135 20.8811 8.9436 20.7674V19.1651V19.0852C8.82747 18.9792 8.6397 18.8747 8.49467 18.7772C7.69539 18.2396 7.20384 17.8905 7.15147 17.5029C7.13254 17.363 7.17481 17.2313 7.27258 17.122C7.398 16.9819 7.59726 16.9109 7.86795 16.9109C8.17231 16.9109 8.59523 16.9967 8.9436 17.0994V16.0284V12.4532C9.52421 13.4579 9.92705 15.4819 9.6883 19.2786C9.65834 19.7552 10.0503 20.1642 10.5625 20.1921C10.5809 20.1931 10.5997 20.1936 10.6181 20.1936C11.1063 20.1936 11.516 19.8391 11.5449 19.3796C11.8319 14.8145 11.2185 11.8362 9.72128 10.5272C9.06901 9.95692 8.43184 9.87263 8.10519 9.86561C8.08684 9.86453 8.06872 9.87631 8.05003 9.87631H3.56372C3.54503 9.87631 3.52679 9.86464 3.50833 9.86561C3.22255 9.87177 2.69907 9.94254 2.1354 10.3434C2.05493 10.4007 1.97388 10.4592 1.89236 10.5304C0.395296 11.8391 -0.2183 14.8159 0.0686408 19.381C0.0975555 19.8405 0.50689 20.1943 0.995189 20.1942C1.01342 20.1942 1.03188 20.1934 1.05035 20.1923C1.56257 20.1644 1.95344 19.7552 1.92348 19.2787C1.78599 17.0922 1.88446 15.494 2.08895 14.3393C2.23957 13.4888 2.44069 12.879 2.67294 12.4529V16.0283V18.0749V19.1651V28.6642C2.67294 29.4022 3.31255 30.0001 4.1052 30.0001C4.5366 30.0001 4.93049 29.8222 5.19374 29.5421C5.01805 29.2491 5.05056 28.8734 5.29512 28.6012ZM6.64912 29.6699C6.63785 29.6824 6.62543 29.6936 6.61347 29.7053C6.85953 29.8893 7.17156 30 7.51168 30C7.75705 30 7.9879 29.9425 8.18996 29.8416C7.67031 29.7122 7.24042 29.5492 6.90122 29.3896L6.64912 29.6699Z" fill="#D8A353"/>
<path d="M5.80687 9.23371C7.24986 9.23371 8.41964 8.14521 8.41964 6.80248C8.41964 5.45975 7.24986 4.37125 5.80687 4.37125C4.36387 4.37125 3.19409 5.45975 3.19409 6.80248C3.19409 8.14521 4.36387 9.23371 5.80687 9.23371Z" fill="#D8A353"/>
<path d="M11.0301 20.3726C10.9014 20.4167 10.7631 20.4418 10.6186 20.4418C10.5951 20.4418 10.5717 20.4413 10.548 20.4399C10.3687 20.4301 10.1985 20.383 10.0456 20.3053C9.82749 20.6592 9.17522 20.8812 8.5607 21.3713C7.67201 22.08 6.5506 22.7298 5.85235 23.9899C5.24503 25.0858 5.77397 27.6552 5.92214 28.3061L5.50015 28.7755C5.2873 29.0123 5.32144 29.3679 5.57575 29.5659C5.83006 29.764 6.21234 29.7323 6.42519 29.4956L6.82907 29.0464C7.58236 29.4384 8.83905 29.8728 10.6553 29.8175C12.3296 29.7666 13.3744 29.4208 13.9942 29.0988L14.4305 29.5841C14.6434 29.8208 15.0256 29.8525 15.2799 29.6544C15.5344 29.4564 15.5684 29.1008 15.3555 28.864L14.8777 28.3325C15.2119 27.6607 16.2476 25.3011 15.2043 23.6945C13.9772 21.8044 12.2739 21.3713 11.5756 20.8397C11.2939 20.6252 11.118 20.4941 11.0301 20.3726ZM11.9962 23.6712L11.3746 24.0664C11.1335 23.8514 10.8898 23.7642 10.5681 23.7642C10.1663 23.7642 9.91493 23.9327 9.91493 24.2058C9.91493 24.357 9.99459 24.4963 10.1465 24.6009C10.2804 24.6939 10.3426 24.723 10.8516 24.9496C11.8072 25.3855 12.1126 25.6819 12.1126 26.1991C12.1126 26.7745 11.6144 27.1464 10.8015 27.2161V27.705H10.337V27.2161C9.75642 27.1753 9.34836 26.9837 8.98234 26.6639L9.59094 26.2863C9.97485 26.5943 10.2122 26.693 10.5873 26.693C10.9713 26.693 11.2106 26.5129 11.2106 26.2281C11.2106 26.0712 11.1203 25.9201 10.9685 25.8039C10.8166 25.6935 10.7269 25.647 10.2 25.4029C9.32491 24.9961 9.06293 24.7172 9.06293 24.2464C9.06293 23.7119 9.52429 23.3166 10.3372 23.2411V22.8425H10.8016V23.2411C11.266 23.2761 11.648 23.4155 11.9962 23.6712ZM11.8338 19.0095C12.3643 18.5987 12.9921 18.1878 13.0198 17.7683C13.0373 17.5047 12.4881 17.2129 11.8785 17.0309C11.8853 17.6527 11.8704 18.3124 11.8338 19.0095ZM9.43348 19.094C9.46611 18.5319 9.48341 18.01 9.48678 17.5276C8.72617 17.3262 7.75178 17.0117 7.49736 17.2958C7.13737 17.6978 8.5557 18.4206 9.43348 19.094Z" fill="#D8A353"/>
</g>
<defs>
<clipPath id="clip0_2144_516">
<rect width="30" height="30" fill="white"/>
</clipPath>
</defs>
</svg>
