<svg width="18" height="18" viewBox="0 0 18 18" fill="none" xmlns="http://www.w3.org/2000/svg">
<g clip-path="url(#clip0_689_212)">
<path d="M10.8411 0C8.38309 0 6.21477 1.15286 4.92566 2.90892C5.09901 3.09324 5.23264 3.31063 5.31319 3.54986C6.44727 1.81182 8.50084 0.648329 10.8411 0.648329C14.4044 0.648329 17.3033 3.33721 17.3033 6.65289C17.3033 7.63024 17.0512 8.58374 16.6048 9.36173H7.28454C7.30085 9.62107 7.31123 9.84532 7.31534 10.0993C7.54547 10.1798 7.75268 10.2887 7.86876 10.4036C7.95313 10.487 7.99285 10.5777 7.98679 10.6688C7.9677 10.9575 7.65047 11.1981 7.3437 11.4299C7.32405 11.4448 7.30433 11.4602 7.28461 11.4752C7.28148 11.5319 7.27848 11.5887 7.27486 11.6463C7.25953 11.8903 7.13279 12.105 6.943 12.2495C8.06468 12.9284 9.40326 13.3232 10.8411 13.3232C14.7948 13.3232 18.0001 10.3407 18.0001 6.66164C18.0001 2.98257 14.7948 0 10.8411 0Z" fill="#020C29"/>
<path d="M11.676 3.59165H10.006L9.31326 5.14763H12.3687L11.676 3.59165ZM10.2223 3.88015L9.79443 4.4475L10.1306 3.72131H11.0394L10.2223 3.88015ZM9.99384 5.4718H8.32375L7.63105 7.02779H10.6865L9.99384 5.4718ZM8.54002 5.77035L8.11222 6.33271L8.4484 5.60153H9.35723L8.54002 5.77035ZM11.6882 5.4718L10.9955 7.02779H14.051L13.3583 5.4718H11.6882ZM11.9045 5.77035L11.4767 6.33271L11.8129 5.60153H12.7217L11.9045 5.77035ZM8.38019 7.54645H6.95814C6.9718 7.54645 6.98517 7.61128 6.99806 7.67612H7.74364L7.03966 7.82309C7.1411 8.20152 7.21461 8.58378 7.26039 9.10244H9.07282L8.38019 7.54645ZM10.0059 7.54645L9.3134 9.10244H12.3687L11.6762 7.54645H10.0059ZM10.2222 7.83917L9.79457 8.40438L10.1306 7.67612H11.0396L10.2222 7.83917ZM13.3017 7.54645L12.6093 9.10244H15.6645L14.972 7.54645H13.3017ZM13.5181 7.83917L13.0904 8.40438L13.4265 7.67612H14.3355L13.5181 7.83917ZM7.42092 5.34213H7.45896C7.52919 4.56414 7.80475 4.30137 8.64084 4.23608V4.20062C7.80475 4.13533 7.52919 3.91581 7.45896 3.13782H7.42092C7.35068 3.91581 7.10801 4.13533 6.27192 4.20062V4.23608C7.10801 4.30137 7.35068 4.56414 7.42092 5.34213ZM15.4823 6.57396H15.5203C15.5905 5.79596 15.8173 5.58124 16.6534 5.51589V5.48042C15.8173 5.41513 15.5905 5.21247 15.5203 4.36964H15.4823C15.412 5.21247 15.1903 5.4152 14.2845 5.48042V5.51589C15.1902 5.58124 15.412 5.79596 15.4823 6.57396ZM12.3476 3.59165H12.3856C12.4558 2.81365 12.6819 2.59607 13.518 2.53072V2.49526C12.6819 2.43004 12.4558 2.16532 12.3856 1.38733H12.3476C12.2773 2.16532 12.0549 2.43004 11.1491 2.49526V2.53072C12.0549 2.59607 12.2773 2.81365 12.3476 3.59165ZM3.17707 17.1608L3.34561 16.9861V16.7363C3.20627 16.1281 3.06692 14.9941 3.34561 14.3846V11.6701V11.3717H3.62431V11.6701V13.8891C3.97268 13.4938 4.33443 13.2092 4.6814 12.9507C4.79734 12.8643 4.91098 12.7827 5.01584 12.6991C5.13331 12.6054 5.22681 12.5287 5.36616 12.4605V11.4991V11.4511C5.29648 11.3875 5.18382 11.3248 5.0968 11.2664C4.61723 10.9438 4.3223 10.7343 4.29088 10.5018C4.27952 10.4178 4.30488 10.3388 4.36355 10.2733C4.4388 10.1892 4.55836 10.1466 4.72077 10.1466C4.90338 10.1466 5.15714 10.1981 5.36616 10.2597V9.61708V7.47196C5.71453 8.07477 5.95623 9.28916 5.81298 11.5672C5.795 11.8532 6.03015 12.0986 6.33748 12.1153C6.34856 12.1159 6.35985 12.1162 6.37086 12.1162C6.66377 12.1162 6.90958 11.9035 6.92693 11.6278C7.09916 8.88875 6.73107 7.10176 5.83277 6.31638C5.44141 5.97419 5.05911 5.92362 4.86311 5.9194C4.8521 5.91876 4.84124 5.92582 4.83002 5.92582H2.13823C2.12701 5.92582 2.11608 5.91882 2.105 5.9194C1.93353 5.9231 1.61944 5.96557 1.28124 6.2061C1.23296 6.24046 1.18433 6.27553 1.13541 6.31826C0.237177 7.10351 -0.13098 8.88959 0.0411845 11.6287C0.0585333 11.9043 0.304134 12.1166 0.597113 12.1166C0.608052 12.1166 0.61913 12.1161 0.630208 12.1154C0.937541 12.0987 1.17206 11.8532 1.15409 11.5673C1.07159 10.2554 1.13068 9.29642 1.25337 8.60361C1.34374 8.09332 1.46442 7.72746 1.60376 7.47176V9.61702V10.845V11.4991V17.1986C1.60376 17.6414 1.98753 18.0001 2.46312 18.0001C2.72196 18.0001 2.9583 17.8934 3.11625 17.7253C3.01083 17.5495 3.03034 17.3241 3.17707 17.1608ZM3.98947 17.802C3.98271 17.8095 3.97526 17.8162 3.96808 17.8232C4.11572 17.9336 4.30293 18 4.50701 18C4.65423 18 4.79274 17.9655 4.91397 17.905C4.60218 17.8274 4.34425 17.7296 4.14073 17.6338L3.98947 17.802Z" fill="#020C29"/>
<path d="M3.48417 5.54028C4.34997 5.54028 5.05183 4.88718 5.05183 4.08154C5.05183 3.2759 4.34997 2.6228 3.48417 2.6228C2.61837 2.6228 1.9165 3.2759 1.9165 4.08154C1.9165 4.88718 2.61837 5.54028 3.48417 5.54028Z" fill="#020C29"/>
<path d="M6.61801 12.2235C6.54081 12.25 6.45783 12.265 6.37116 12.265C6.35701 12.265 6.34301 12.2647 6.3288 12.2639C6.22122 12.258 6.11908 12.2298 6.02732 12.1831C5.89647 12.3955 5.50511 12.5286 5.13639 12.8227C4.60318 13.248 3.93034 13.6378 3.51139 14.3939C3.14699 15.0514 3.46436 16.5931 3.55326 16.9836L3.30007 17.2653C3.17235 17.4073 3.19284 17.6207 3.34542 17.7395C3.49801 17.8583 3.72738 17.8393 3.85509 17.6973L4.09742 17.4278C4.54939 17.663 5.3034 17.9236 6.39317 17.8904C7.39773 17.8599 8.02459 17.6524 8.39651 17.4592L8.65828 17.7504C8.78599 17.8924 9.01536 17.9114 9.16794 17.7926C9.3206 17.6738 9.34101 17.4604 9.2133 17.3184L8.92659 16.9994C9.12711 16.5964 9.74853 15.1806 9.12258 14.2166C8.38627 13.0826 7.36429 12.8227 6.94534 12.5037C6.77631 12.375 6.67076 12.2964 6.61801 12.2235ZM7.1977 14.2027L6.82473 14.4398C6.68009 14.3108 6.53385 14.2584 6.34085 14.2584C6.09978 14.2584 5.94893 14.3596 5.94893 14.5234C5.94893 14.6141 5.99673 14.6977 6.08786 14.7605C6.1682 14.8163 6.20554 14.8338 6.51092 14.9697C7.08427 15.2313 7.26751 15.4091 7.26751 15.7194C7.26751 16.0646 6.96861 16.2878 6.48089 16.3296V16.623H6.2022V16.3296C5.85383 16.3051 5.60899 16.1901 5.38938 15.9983L5.75454 15.7717C5.98488 15.9565 6.1273 16.0157 6.35234 16.0157C6.58276 16.0157 6.72636 15.9077 6.72636 15.7368C6.72636 15.6427 6.67215 15.552 6.58108 15.4823C6.48995 15.416 6.43609 15.3881 6.11998 15.2417C5.59492 14.9976 5.43773 14.8303 5.43773 14.5478C5.43773 14.2271 5.71455 13.9899 6.20227 13.9446V13.7054H6.48096V13.9446C6.75959 13.9656 6.98875 14.0492 7.1977 14.2027ZM7.10023 11.4057C7.41857 11.1592 7.79522 10.9126 7.81188 10.6609C7.82233 10.5027 7.49284 10.3277 7.12705 10.2185C7.13116 10.5916 7.12224 10.9874 7.10023 11.4057ZM5.66006 11.4564C5.67964 11.1191 5.69002 10.806 5.69204 10.5165C5.23568 10.3956 4.65105 10.207 4.49839 10.3774C4.2824 10.6186 5.1334 11.0523 5.66006 11.4564Z" fill="#020C29"/>
</g>
<defs>
<clipPath id="clip0_689_212">
<rect width="18" height="18" fill="white"/>
</clipPath>
</defs>
</svg>
