<svg width="35" height="35" viewBox="0 0 35 35" fill="none" xmlns="http://www.w3.org/2000/svg">
<path d="M17.5 34.998C27.165 34.998 35 27.163 35 17.498C35 7.83306 27.165 -0.00195312 17.5 -0.00195312C7.83502 -0.00195312 0 7.83306 0 17.498C0 27.163 7.83502 34.998 17.5 34.998Z" fill="#239FDB"/>
<path d="M16.8056 34.9631C17.0368 34.9794 17.2683 34.9911 17.5 34.9981C17.9134 34.9983 18.3266 34.9838 18.739 34.9547C19.3208 34.9137 19.9002 34.8436 20.475 34.7447C21.0499 34.6454 21.6195 34.5174 22.1816 34.3611C22.7435 34.2045 23.2972 34.02 23.8406 33.8081C24.3842 33.5969 24.9168 33.3586 25.4366 33.0941C25.9571 32.8294 26.4641 32.5387 26.9556 32.2233C27.4464 31.908 27.9211 31.5683 28.378 31.2055C28.8352 30.8431 29.2739 30.4581 29.6926 30.0519C30.1113 29.6455 30.5094 29.2185 30.8854 28.7723C31.2607 28.3263 31.6135 27.8619 31.9424 27.3807C32.2728 26.8984 32.5789 26.3999 32.8594 25.8869C33.1389 25.3749 33.3926 24.8493 33.6196 24.3119C33.8461 23.7744 34.0457 23.2258 34.2174 22.6683C34.3897 22.1112 34.5341 21.5458 34.65 20.9743C34.7665 20.4027 34.8543 19.8257 34.9132 19.2453C34.9712 18.6647 35.0002 18.0816 35 17.4981C34.9959 17.252 34.9865 17.006 34.972 16.7603L29.4112 11.1981H7V25.1561L16.8056 34.9631Z" fill="#0B5ECD"/>
<path d="M24.0626 8.07502H21.4376V6.72887C21.4376 6.48107 21.2417 6.28015 21.0001 6.28015C20.7585 6.28015 20.5626 6.48107 20.5626 6.72887V8.07502H14.4378V6.72887C14.4378 6.48107 14.2419 6.28015 14.0003 6.28015C13.7587 6.28015 13.5628 6.48107 13.5628 6.72887V8.07502H10.9374C9.72987 8.07634 8.75128 9.08004 8.75 10.3186V21.9853C8.75128 23.2239 9.72987 24.2276 10.9374 24.2289H24.0626C25.2702 24.2277 26.2489 23.2239 26.25 21.9853V10.3186C26.2489 9.07998 25.2702 8.07617 24.0626 8.07502ZM25.375 21.9853C25.3742 22.7284 24.7871 23.3306 24.0626 23.3314H10.9374C10.2129 23.3306 9.62578 22.7284 9.62498 21.9853V14.3571H25.375V21.9853ZM25.375 13.4596H9.62498V10.3186C9.62578 9.57548 10.2129 8.97328 10.9374 8.97246H13.5628V10.3186C13.563 10.5663 13.7588 10.7675 14.0003 10.7673C14.2417 10.7672 14.4379 10.5663 14.4378 10.3186V8.97246H20.5626V10.3186C20.5628 10.5663 20.7586 10.7675 21.0001 10.7673C21.2416 10.7672 21.4378 10.5663 21.4376 10.3186V8.97246H24.0626C24.7871 8.97328 25.3742 9.57548 25.375 10.3186V13.4596Z" fill="white"/>
</svg>
