<svg width="35" height="35" viewBox="0 0 35 35" fill="none" xmlns="http://www.w3.org/2000/svg">
<path d="M17.5 35C27.165 35 35 27.165 35 17.5C35 7.83502 27.165 0 17.5 0C7.83502 0 0 7.83502 0 17.5C0 27.165 7.83502 35 17.5 35Z" fill="#239FDB"/>
<path d="M16.8056 34.9651C17.0368 34.9813 17.2683 34.993 17.5 35.0001C17.9134 35.0002 18.3266 34.9858 18.739 34.9567C19.3208 34.9156 19.9002 34.8456 20.475 34.7467C21.0499 34.6473 21.6195 34.5193 22.1816 34.3631C22.7435 34.2065 23.2972 34.0219 23.8406 33.8101C24.3842 33.5988 24.9168 33.3605 25.4366 33.0961C25.9571 32.8313 26.4641 32.5407 26.9556 32.2253C27.4464 31.9099 27.9211 31.5702 28.378 31.2075C28.8352 30.8451 29.2739 30.4601 29.6926 30.0539C30.1113 29.6475 30.5094 29.2204 30.8854 28.7743C31.2607 28.3283 31.6135 27.8639 31.9424 27.3827C32.2728 26.9004 32.5789 26.4018 32.8594 25.8889C33.1389 25.3769 33.3926 24.8512 33.6196 24.3139C33.8461 23.7763 34.0457 23.2278 34.2174 22.6703C34.3897 22.1132 34.5341 21.5478 34.65 20.9763C34.7665 20.4047 34.8543 19.8276 34.9132 19.2473C34.9712 18.6667 35.0002 18.0836 35 17.5001C34.9959 17.254 34.9865 17.008 34.972 16.7623L29.4112 11.2001H7V25.1581L16.8056 34.9651Z" fill="#0B5ECD"/>
<path fill-rule="evenodd" clip-rule="evenodd" d="M31.0623 16.4607L25.1912 18.7334H9.12886C8.95205 18.7334 8.78248 18.7946 8.65746 18.9035C8.53244 19.0124 8.4622 19.16 8.4622 19.314C8.4622 19.468 8.53244 19.6157 8.65746 19.7246C8.78248 19.8335 8.95205 19.8947 9.12886 19.8947H25.3332C25.4264 19.8947 25.5187 19.8778 25.604 19.8448L31.6039 17.5222C31.684 17.4913 31.7562 17.4469 31.8166 17.3916C31.8769 17.3363 31.9241 17.2712 31.9556 17.2C31.987 17.1288 32.002 17.0529 31.9998 16.9767C31.9975 16.9004 31.9781 16.8253 31.9425 16.7556C31.9069 16.6859 31.856 16.623 31.7925 16.5704C31.729 16.5179 31.6542 16.4767 31.5725 16.4493C31.4908 16.422 31.4036 16.4089 31.3161 16.4108C31.2285 16.4128 31.1423 16.4297 31.0623 16.4607ZM4.66666 18.7334C4.48985 18.7334 4.32028 18.7946 4.19526 18.9035C4.07024 19.0124 4 19.16 4 19.314C4 19.468 4.07024 19.6157 4.19526 19.7246C4.32028 19.8335 4.48985 19.8947 4.66666 19.8947H6.4518C6.62861 19.8947 6.79818 19.8335 6.9232 19.7246C7.04823 19.6157 7.11846 19.468 7.11846 19.314C7.11846 19.16 7.04823 19.0124 6.9232 18.9035C6.79818 18.7946 6.62861 18.7334 6.4518 18.7334H4.66666Z" fill="#FF5576"/>
<path fill-rule="evenodd" clip-rule="evenodd" d="M31.0623 19.364L25.1912 21.6367H4.66666C4.48985 21.6367 4.32028 21.6978 4.19526 21.8067C4.07024 21.9156 4 22.0633 4 22.2173C4 22.3713 4.07024 22.519 4.19526 22.6279C4.32028 22.7368 4.48985 22.7979 4.66666 22.7979H25.3332C25.4264 22.798 25.5187 22.781 25.604 22.7481L31.6039 20.4255C31.684 20.3945 31.7562 20.3501 31.8166 20.2949C31.8769 20.2396 31.9241 20.1745 31.9556 20.1033C31.987 20.0321 32.002 19.9562 31.9998 19.8799C31.9975 19.8037 31.9781 19.7286 31.9425 19.6589C31.9069 19.5892 31.856 19.5262 31.7925 19.4737C31.729 19.4211 31.6542 19.38 31.5725 19.3526C31.4908 19.3252 31.4036 19.3121 31.3161 19.3141C31.2285 19.316 31.1423 19.333 31.0623 19.364ZM31.0623 13.5575L25.1912 15.8302H4.66666C4.48985 15.8302 4.32028 15.8914 4.19526 16.0003C4.07024 16.1092 4 16.2568 4 16.4108C4 16.5648 4.07024 16.7125 4.19526 16.8214C4.32028 16.9303 4.48985 16.9915 4.66666 16.9915H25.3332C25.4264 16.9916 25.5187 16.9746 25.604 16.9416L31.6039 14.619C31.684 14.5881 31.7562 14.5437 31.8166 14.4884C31.8769 14.4331 31.9241 14.368 31.9556 14.2968C31.987 14.2256 32.002 14.1497 31.9998 14.0735C31.9975 13.9972 31.9781 13.9221 31.9425 13.8524C31.9069 13.7827 31.856 13.7198 31.7925 13.6672C31.729 13.6147 31.6542 13.5735 31.5725 13.5461C31.4908 13.5188 31.4036 13.5057 31.3161 13.5076C31.2285 13.5096 31.1423 13.5265 31.0623 13.5575Z" fill="#5D6D83"/>
<path fill-rule="evenodd" clip-rule="evenodd" d="M31.0623 10.6543L25.1912 12.927H4.66666C4.48985 12.927 4.32028 12.9882 4.19526 13.0971C4.07024 13.206 4 13.3537 4 13.5076C4 13.6616 4.07024 13.8093 4.19526 13.9182C4.32028 14.0271 4.48985 14.0883 4.66666 14.0883H25.3332C25.4264 14.0884 25.5187 14.0714 25.604 14.0384L31.6039 11.7158C31.684 11.6849 31.7562 11.6405 31.8166 11.5852C31.8769 11.5299 31.9241 11.4648 31.9556 11.3936C31.987 11.3224 32.002 11.2465 31.9998 11.1703C31.9975 11.094 31.9781 11.0189 31.9425 10.9492C31.9069 10.8795 31.856 10.8166 31.7925 10.764C31.729 10.7115 31.6542 10.6703 31.5725 10.6429C31.4908 10.6156 31.4036 10.6025 31.3161 10.6044C31.2285 10.6064 31.1423 10.6233 31.0623 10.6543Z" fill="#5D6D83"/>
<path fill-rule="evenodd" clip-rule="evenodd" d="M4.6665 10.6044L10.6665 8.2818H31.3329L25.333 10.6044C18.4442 10.6044 11.5553 10.6044 4.6665 10.6044Z" fill="#F2A50C"/>
<path fill-rule="evenodd" clip-rule="evenodd" d="M21.4097 7.70117H23.3331L18.6664 11.185V25.1205H10.6665V11.185L15.3331 7.70117H17.2793" fill="#E7E7E7"/>
<path fill-rule="evenodd" clip-rule="evenodd" d="M15.3331 7.70117L10.6665 11.185L10.6665 23.255C12.8846 22.6326 15.1782 21.4223 17.2342 19.7893C17.7306 19.3929 18.2094 18.9748 18.6664 18.5384L18.6664 11.185L23.3331 7.70117H21.4099H17.2797H15.3331Z" fill="#FAFAFA"/>
<path fill-rule="evenodd" clip-rule="evenodd" d="M14.6666 13.9431C14.5785 13.9431 14.4912 13.9581 14.4098 13.9871C14.3283 14.0162 14.2543 14.0588 14.1921 14.1126C14.1298 14.1663 14.0804 14.2301 14.0468 14.3002C14.0131 14.3704 13.9959 14.4456 13.9961 14.5215V15.1929C13.1364 15.4295 12.4961 16.1066 12.4961 16.9155C12.4961 17.9241 13.4915 18.73 14.6666 18.73C15.1474 18.73 15.4948 19.0328 15.4948 19.3901C15.4948 19.7474 15.1474 20.0478 14.6666 20.0478C14.1859 20.0478 13.8372 19.7474 13.8372 19.3901C13.8376 19.237 13.7672 19.09 13.6417 18.9815C13.5162 18.8731 13.3458 18.812 13.168 18.8117C13.0797 18.8115 12.9923 18.8264 12.9107 18.8554C12.8291 18.8844 12.7549 18.927 12.6925 18.9808C12.6301 19.0345 12.5806 19.0983 12.5469 19.1686C12.5132 19.2388 12.4959 19.3141 12.4961 19.3901C12.4961 20.199 13.1364 20.8761 13.9961 21.1127V21.7841C13.9959 21.86 14.0131 21.9352 14.0468 22.0054C14.0804 22.0755 14.1298 22.1393 14.1921 22.193C14.2543 22.2468 14.3283 22.2894 14.4098 22.3184C14.4912 22.3475 14.5785 22.3625 14.6666 22.3625C14.7548 22.3625 14.8421 22.3475 14.9235 22.3184C15.005 22.2894 15.079 22.2468 15.1412 22.193C15.2035 22.1393 15.2529 22.0755 15.2865 22.0054C15.3202 21.9352 15.3374 21.86 15.3372 21.7841V21.1127C16.1966 20.8761 16.8359 20.199 16.8359 19.3901C16.8359 18.3815 15.8418 17.5756 14.6666 17.5756C14.1859 17.5756 13.8372 17.2728 13.8372 16.9155C13.8372 16.5582 14.1859 16.2578 14.6666 16.2578C15.1474 16.2578 15.4948 16.5582 15.4948 16.9155C15.4946 16.9914 15.5118 17.0666 15.5455 17.1368C15.5791 17.207 15.6285 17.2707 15.6907 17.3245C15.753 17.3782 15.827 17.4208 15.9084 17.4499C15.9899 17.479 16.0772 17.4939 16.1653 17.4939C16.2535 17.4939 16.3408 17.479 16.4222 17.4499C16.5037 17.4208 16.5776 17.3782 16.6399 17.3245C16.7022 17.2707 16.7516 17.207 16.7852 17.1368C16.8188 17.0666 16.8361 16.9914 16.8359 16.9155C16.8359 16.1066 16.1966 15.4295 15.3372 15.1929V14.5215C15.3374 14.4456 15.3202 14.3704 15.2865 14.3002C15.2529 14.2301 15.2035 14.1663 15.1412 14.1126C15.079 14.0588 15.005 14.0162 14.9235 13.9871C14.8421 13.9581 14.7548 13.9431 14.6666 13.9431Z" fill="#5D6D83"/>
<path fill-rule="evenodd" clip-rule="evenodd" d="M31.0623 22.2672L25.1912 24.5399H23.9946C23.8178 24.5399 23.6482 24.601 23.5232 24.7099C23.3982 24.8188 23.328 24.9665 23.328 25.1205C23.328 25.2745 23.3982 25.4222 23.5232 25.5311C23.6482 25.64 23.8178 25.7011 23.9946 25.7011H25.3332C25.4264 25.7012 25.5187 25.6842 25.604 25.6513L31.6039 23.3287C31.684 23.2977 31.7562 23.2533 31.8166 23.1981C31.8769 23.1428 31.9241 23.0777 31.9556 23.0065C31.987 22.9353 32.002 22.8594 31.9998 22.7831C31.9975 22.7069 31.9781 22.6318 31.9425 22.5621C31.9069 22.4924 31.856 22.4294 31.7925 22.3769C31.729 22.3243 31.6542 22.2832 31.5725 22.2558C31.4908 22.2284 31.4036 22.2153 31.3161 22.2173C31.2285 22.2193 31.1423 22.2362 31.0623 22.2672ZM4.66666 24.5399C4.48985 24.5399 4.32028 24.601 4.19526 24.7099C4.07024 24.8188 4 24.9665 4 25.1205C4 25.2745 4.07024 25.4222 4.19526 25.5311C4.32028 25.64 4.48985 25.7011 4.66666 25.7011H21.1834C21.3603 25.7011 21.5298 25.64 21.6548 25.5311C21.7799 25.4222 21.8501 25.2745 21.8501 25.1205C21.8501 24.9665 21.7799 24.8188 21.6548 24.7099C21.5298 24.601 21.3603 24.5399 21.1834 24.5399H4.66666Z" fill="#5D6D83"/>
</svg>
