<svg width="50" height="50" viewBox="0 0 50 50" fill="none" xmlns="http://www.w3.org/2000/svg">
<path d="M27.22 34.6H25.04V36.94H27.22V34.6Z" fill="#595BD4"/>
<path d="M16.7801 34.6H14.6001V36.94H16.7801V34.6Z" fill="#595BD4"/>
<path d="M27.22 23.72H25.04V26.06H27.22V23.72Z" fill="#595BD4"/>
<path d="M37.66 34.6H35.48V36.94H37.66V34.6Z" fill="#595BD4"/>
<path d="M37.66 23.72H35.48V26.06H37.66V23.72Z" fill="#595BD4"/>
<path d="M44.9599 7.99999H35.4799V5.29999C35.4799 5.03477 35.3745 4.78042 35.187 4.59288C34.9995 4.40534 34.7451 4.29999 34.4799 4.29999C34.2163 4.30511 33.9649 4.41211 33.7785 4.59855C33.592 4.78498 33.485 5.03637 33.4799 5.29999V7.99999H25.0399V5.63999C25.0399 5.37477 24.9345 5.12042 24.747 4.93288C24.5595 4.74534 24.3051 4.63999 24.0399 4.63999C23.7747 4.63999 23.5203 4.74534 23.3328 4.93288C23.1452 5.12042 23.0399 5.37477 23.0399 5.63999V7.99999H19.4599C19.2423 7.71991 19.0086 7.45279 18.7599 7.19999C18.53 6.90584 18.2758 6.63154 17.9999 6.37999C17.7454 6.17035 17.4783 5.97665 17.1999 5.79999C17.1407 5.78631 17.0791 5.78631 17.0199 5.79999C16.7687 5.63827 16.5082 5.49136 16.2399 5.35999C15.9292 5.19966 15.6085 5.05938 15.2799 4.93999C15 4.83237 14.7125 4.74547 14.4199 4.67999C14.2178 4.61899 14.0101 4.57878 13.7999 4.55999H13.2599C12.9135 4.54007 12.5663 4.54007 12.2199 4.55999C9.74176 4.61182 7.38109 5.62612 5.63776 7.38812C3.89444 9.15011 2.90533 11.5214 2.87989 14C2.87927 14.509 2.9194 15.0173 2.99989 15.52C3.0271 15.7831 3.0739 16.0438 3.13989 16.3C3.20814 16.6116 3.29496 16.9188 3.39989 17.22C3.50577 17.5413 3.63271 17.8553 3.77989 18.16C3.88113 18.3925 3.99463 18.6195 4.11989 18.84C4.32754 19.2547 4.58257 19.644 4.87989 20C5.05989 20.26 5.27989 20.48 5.47989 20.72L6.23989 21.42V45.24C6.23989 45.5052 6.34525 45.7596 6.53278 45.9471C6.72032 46.1346 6.97467 46.24 7.23989 46.24H44.9599C45.2251 46.24 45.4795 46.1346 45.667 45.9471C45.8545 45.7596 45.9599 45.5052 45.9599 45.24V8.89999C45.935 8.65246 45.8188 8.4231 45.6339 8.25668C45.449 8.09026 45.2087 7.99874 44.9599 7.99999ZM22.9599 9.99999V11.86C22.965 12.1236 23.072 12.375 23.2584 12.5614C23.4449 12.7479 23.6963 12.8549 23.9599 12.86C24.2251 12.86 24.4795 12.7546 24.667 12.5671C24.8545 12.3796 24.9599 12.1252 24.9599 11.86V9.99999H33.3999V11.86C33.405 12.1236 33.512 12.375 33.6984 12.5614C33.8849 12.7479 34.1363 12.8549 34.3999 12.86C34.6651 12.86 34.9195 12.7546 35.107 12.5671C35.2945 12.3796 35.3999 12.1252 35.3999 11.86V9.99999H43.9999V17.36H20.9799C21.3807 16.2853 21.5839 15.147 21.5799 14C21.5998 13.6469 21.5998 13.293 21.5799 12.94C21.5059 12.1756 21.338 11.4233 21.0799 10.7C20.9785 10.4576 20.8581 10.2235 20.7199 9.99999H22.9599ZM18.7799 33.6V38C18.7799 38.2652 18.6745 38.5196 18.487 38.7071C18.2995 38.8946 18.0451 39 17.7799 39H13.5999C13.3347 39 13.0803 38.8946 12.8928 38.7071C12.7052 38.5196 12.5999 38.2652 12.5999 38V33.6C12.5999 33.3348 12.7052 33.0804 12.8928 32.8929C13.0803 32.7053 13.3347 32.6 13.5999 32.6H17.7799C18.0451 32.6 18.2995 32.7053 18.487 32.8929C18.6745 33.0804 18.7799 33.3348 18.7799 33.6ZM23.9999 32.6H28.1799C28.4451 32.6 28.6995 32.7053 28.887 32.8929C29.0745 33.0804 29.1799 33.3348 29.1799 33.6V38C29.1799 38.2652 29.0745 38.5196 28.887 38.7071C28.6995 38.8946 28.4451 39 28.1799 39H23.9999C23.7347 39 23.4803 38.8946 23.2928 38.7071C23.1052 38.5196 22.9999 38.2652 22.9999 38V33.6C22.9999 33.3348 23.1052 33.0804 23.2928 32.8929C23.4803 32.7053 23.7347 32.6 23.9999 32.6ZM22.9999 27.06V22.72C22.9999 22.4548 23.1052 22.2004 23.2928 22.0129C23.4803 21.8253 23.7347 21.72 23.9999 21.72H28.1799C28.4451 21.72 28.6995 21.8253 28.887 22.0129C29.0745 22.2004 29.1799 22.4548 29.1799 22.72V27.06C29.1799 27.3252 29.0745 27.5796 28.887 27.7671C28.6995 27.9546 28.4451 28.06 28.1799 28.06H23.9999C23.7417 28.0496 23.4975 27.9397 23.3185 27.7533C23.1395 27.5669 23.0397 27.3184 23.0399 27.06H22.9999ZM33.4799 38V33.6C33.4799 33.3348 33.5852 33.0804 33.7728 32.8929C33.9603 32.7053 34.2147 32.6 34.4799 32.6H38.6599C38.9251 32.6 39.1795 32.7053 39.367 32.8929C39.5545 33.0804 39.6599 33.3348 39.6599 33.6V38C39.6599 38.2652 39.5545 38.5196 39.367 38.7071C39.1795 38.8946 38.9251 39 38.6599 39H34.4799C34.2147 39 33.9603 38.8946 33.7728 38.7071C33.5852 38.5196 33.4799 38.2652 33.4799 38ZM39.6599 27.12C39.6599 27.3852 39.5545 27.6396 39.367 27.8271C39.1795 28.0146 38.9251 28.12 38.6599 28.12H34.4799C34.2147 28.12 33.9603 28.0146 33.7728 27.8271C33.5852 27.6396 33.4799 27.3852 33.4799 27.12V22.72C33.4799 22.4548 33.5852 22.2004 33.7728 22.0129C33.9603 21.8253 34.2147 21.72 34.4799 21.72H38.6599C38.9251 21.72 39.1795 21.8253 39.367 22.0129C39.5545 22.2004 39.6599 22.4548 39.6599 22.72V27.12ZM4.87989 14C4.8369 12.0069 5.58498 10.0779 6.9605 8.6349C8.33602 7.19192 10.227 6.3524 12.2199 6.29999C13.4038 6.29909 14.5698 6.58852 15.6158 7.14292C16.6619 7.69732 17.556 8.49977 18.2199 9.47999C19.0442 10.6963 19.5176 12.1162 19.5881 13.5838C19.6587 15.0515 19.3237 16.5102 18.6199 17.8C17.9918 18.9286 17.0763 19.8709 15.9663 20.5312C14.8563 21.1916 13.5914 21.5465 12.2999 21.56C10.7581 21.5992 9.24646 21.1282 7.99989 20.22C7.02807 19.5009 6.23921 18.5631 5.69717 17.4825C5.15514 16.4019 4.87515 15.2089 4.87989 14Z" fill="#595BD4"/>
<path d="M13.9998 17.04C14.1562 17.1353 14.3367 17.1839 14.5198 17.18C14.7338 17.1753 14.9405 17.102 15.1098 16.971C15.279 16.84 15.4017 16.6582 15.4599 16.4522C15.5181 16.2463 15.5087 16.0271 15.4331 15.8269C15.3575 15.6267 15.2196 15.4561 15.0398 15.34L13.2998 14.26V8.90002C13.2998 8.63481 13.1944 8.38045 13.0069 8.19292C12.8194 8.00538 12.565 7.90002 12.2998 7.90002C12.0346 7.90002 11.7802 8.00538 11.5927 8.19292C11.4052 8.38045 11.2998 8.63481 11.2998 8.90002V14.9C11.3003 15.0696 11.3448 15.2362 11.4289 15.3834C11.5131 15.5306 11.634 15.6535 11.7798 15.74L13.9998 17.04Z" fill="#595BD4"/>
</svg>
