<svg width="100" height="85" viewBox="0 0 100 85" fill="none" xmlns="http://www.w3.org/2000/svg">
<path d="M99.1073 15.4344C99.344 15.4344 99.571 15.2988 99.7384 15.0573C99.9058 14.8159 99.9998 14.4884 99.9998 14.1469V6.42199C99.9998 6.08053 99.9058 5.75305 99.7384 5.5116C99.571 5.27015 99.344 5.1345 99.1073 5.1345H96.4298V1.28749C96.4298 0.946025 96.3357 0.618549 96.1683 0.377098C96.001 0.135647 95.774 0 95.5373 0H54.4819C54.2452 0 54.0181 0.135647 53.8508 0.377098C53.6834 0.618549 53.5894 0.946025 53.5894 1.28749V32.1615C53.5894 32.5029 53.6834 32.8304 53.8508 33.0718C54.0181 33.3133 54.2452 33.4489 54.4819 33.4489C54.7186 33.4489 54.9456 33.3133 55.113 33.0718C55.2803 32.8304 55.3744 32.5029 55.3744 32.1615V2.57498H87.5047V52.0969L82.5477 56.8658C82.4254 56.9834 82.3252 57.1427 82.2557 57.3295C82.1863 57.5163 82.1499 57.725 82.1496 57.937V82.3992H54.4819C54.2452 82.3992 54.0181 82.5349 53.8508 82.7763C53.6834 83.0178 53.5894 83.3453 53.5894 83.6867C53.5894 84.0282 53.6834 84.3557 53.8508 84.5971C54.0181 84.8386 54.2452 84.9742 54.4819 84.9742H95.5373C95.774 84.9742 96.001 84.8386 96.1683 84.5971C96.3357 84.3557 96.4298 84.0282 96.4298 83.6867V41.1842H99.1073C99.344 41.1842 99.571 41.0485 99.7384 40.8071C99.9058 40.5656 99.9998 40.2381 99.9998 39.8967V32.1718C99.9998 31.8303 99.9058 31.5028 99.7384 31.2614C99.571 31.0199 99.344 30.8843 99.1073 30.8843H96.4298V28.3093H99.1073C99.344 28.3093 99.571 28.1736 99.7384 27.9322C99.9058 27.6907 99.9998 27.3633 99.9998 27.0218V19.2969C99.9998 18.9554 99.9058 18.6279 99.7384 18.3865C99.571 18.145 99.344 18.0094 99.1073 18.0094H96.4298V15.4344H99.1073ZM96.4298 7.70948H98.2148V12.8594H96.4298V7.70948ZM94.6447 6.42199V82.3992H83.9346V58.6271L88.8916 53.8582C89.0139 53.7406 89.1142 53.5813 89.1836 53.3945C89.253 53.2076 89.2895 52.999 89.2897 52.787V2.57498H94.6447V6.42199ZM98.2148 33.4592V38.6092H96.4298V33.4592H98.2148ZM98.2148 20.5844V25.7343H96.4298V20.5844H98.2148Z" fill="url(#paint0_linear_2_101)"/>
<path d="M81.2576 20.5998C81.4943 20.5998 81.7213 20.4642 81.8887 20.2227C82.0561 19.9813 82.1501 19.6538 82.1501 19.3123V11.5874C82.1501 11.246 82.0561 10.9185 81.8887 10.677C81.7213 10.4356 81.4943 10.2999 81.2576 10.2999H66.9775C66.7408 10.2999 66.5137 10.4356 66.3464 10.677C66.179 10.9185 66.085 11.246 66.085 11.5874V19.3123C66.085 19.6538 66.179 19.9813 66.3464 20.2227C66.5137 20.4642 66.7408 20.5998 66.9775 20.5998H81.2576ZM67.87 12.8749H80.3651V18.0249H67.87V12.8749Z" fill="url(#paint1_linear_2_101)"/>
<path d="M67.8306 30.874H48.1954V14.1469C48.1954 9.17723 45.393 5.13452 41.9479 5.13452H6.24756C2.80248 5.13452 0 9.17723 0 14.1469V24.4623C0 24.8038 0.0940316 25.1312 0.261409 25.3727C0.428787 25.6141 0.6558 25.7498 0.892508 25.7498H10.7101V75.9618C10.7101 76.3033 10.8041 76.6308 10.9715 76.8722C11.1389 77.1137 11.3659 77.2493 11.6026 77.2493H17.8519C17.8576 79.2927 18.4239 81.2498 19.4271 82.6926C20.4303 84.1354 21.7887 84.9465 23.2052 84.9485V85H67.8306C70.783 85 73.1857 81.5341 73.1857 77.2751V38.5989C73.1857 34.3399 70.7848 30.874 67.8306 30.874ZM10.7101 21.8719V23.1748H1.78502V14.1469C1.78502 10.5986 3.78602 7.7095 6.24756 7.7095C8.7091 7.7095 10.7101 10.5986 10.7101 14.1469V21.8719ZM26.7752 77.2751C26.7752 80.1153 25.1741 82.425 23.2052 82.425V82.3735C22.2621 82.3715 21.3577 81.8317 20.6893 80.8718C20.0209 79.912 19.6426 78.6098 19.637 77.2493H26.7752V77.2751ZM16.9577 54.0591H26.7752V59.209H16.9577C16.7209 59.209 16.4939 59.3447 16.3266 59.5861C16.1592 59.8276 16.0651 60.155 16.0651 60.4965C16.0651 60.838 16.1592 61.1654 16.3266 61.4069C16.4939 61.6483 16.7209 61.784 16.9577 61.784H26.7752V66.9339H16.9577C16.7209 66.9339 16.4939 67.0696 16.3266 67.3111C16.1592 67.5525 16.0651 67.88 16.0651 68.2214C16.0651 68.5629 16.1592 68.8904 16.3266 69.1318C16.4939 69.3733 16.7209 69.5089 16.9577 69.5089H26.7752V74.6743H12.4951V14.1469C12.4951 11.6235 11.7686 9.34718 10.6066 7.7095H41.9479C44.4094 7.7095 46.4104 10.5986 46.4104 14.1469V43.8004H32.1303C31.95 43.8004 31.7787 43.8519 31.6019 43.8776C31.4877 43.8015 31.3636 43.7612 31.2378 43.7592H16.9577C16.7209 43.7592 16.4939 43.8948 16.3266 44.1363C16.1592 44.3777 16.0651 44.7052 16.0651 45.0466C16.0651 45.3881 16.1592 45.7156 16.3266 45.957C16.4939 46.1985 16.7209 46.3341 16.9577 46.3341H28.1908C27.2922 47.7377 26.7882 49.5736 26.777 51.4841H16.9559C16.8387 51.4843 16.7226 51.5177 16.6144 51.5826C16.5062 51.6474 16.4078 51.7424 16.325 51.8621C16.2422 51.9818 16.1766 52.1238 16.1319 52.2801C16.0871 52.4363 16.0641 52.6038 16.0643 52.7729C16.0644 52.9419 16.0876 53.1093 16.1325 53.2655C16.1775 53.4216 16.2433 53.5634 16.3263 53.6829C16.4093 53.8023 16.5077 53.897 16.616 53.9616C16.7244 54.0261 16.8405 54.0592 16.9577 54.0591ZM71.4007 60.4862V77.2751C71.4007 80.1153 69.7995 82.425 67.8306 82.425H27.1947C28.0761 81.0112 28.5632 79.1765 28.562 77.2751V51.5253C28.562 48.6851 30.1632 46.3753 32.1321 46.3753H67.8324C69.8013 46.3753 71.4025 48.6851 71.4025 51.5253V60.4862H71.4007ZM71.4007 45.8088C70.4253 44.522 69.1524 43.8058 67.8306 43.8004H48.1954V33.449H67.8306C69.7995 33.449 71.4007 35.7587 71.4007 38.5989V45.8088Z" fill="url(#paint2_linear_2_101)"/>
<path d="M22.3125 15.4344H36.5926C36.8293 15.4344 37.0564 15.2988 37.2237 15.0573C37.3911 14.8159 37.4851 14.4884 37.4851 14.1469C37.4851 13.8055 37.3911 13.478 37.2237 13.2365C37.0564 12.9951 36.8293 12.8594 36.5926 12.8594H22.3125C22.0758 12.8594 21.8488 12.9951 21.6814 13.2365C21.514 13.478 21.42 13.8055 21.42 14.1469C21.42 14.4884 21.514 14.8159 21.6814 15.0573C21.8488 15.2988 22.0758 15.4344 22.3125 15.4344ZM16.9574 23.1593H41.9477C42.1844 23.1593 42.4114 23.0237 42.5788 22.7822C42.7462 22.5408 42.8402 22.2133 42.8402 21.8719C42.8402 21.5304 42.7462 21.2029 42.5788 20.9615C42.4114 20.72 42.1844 20.5844 41.9477 20.5844H16.9574C16.7207 20.5844 16.4937 20.72 16.3264 20.9615C16.159 21.2029 16.0649 21.5304 16.0649 21.8719C16.0649 22.2133 16.159 22.5408 16.3264 22.7822C16.4937 23.0237 16.7207 23.1593 16.9574 23.1593ZM16.9574 30.8843H41.9477C42.1844 30.8843 42.4114 30.7486 42.5788 30.5072C42.7462 30.2657 42.8402 29.9382 42.8402 29.5968C42.8402 29.2553 42.7462 28.9278 42.5788 28.6864C42.4114 28.4449 42.1844 28.3093 41.9477 28.3093H16.9574C16.7207 28.3093 16.4937 28.4449 16.3264 28.6864C16.159 28.9278 16.0649 29.2553 16.0649 29.5968C16.0649 29.9382 16.159 30.2657 16.3264 30.5072C16.4937 30.7486 16.7207 30.8843 16.9574 30.8843ZM16.9574 38.6092H41.9477C42.1844 38.6092 42.4114 38.4736 42.5788 38.2321C42.7462 37.9907 42.8402 37.6632 42.8402 37.3217C42.8402 36.9802 42.7462 36.6528 42.5788 36.4113C42.4114 36.1699 42.1844 36.0342 41.9477 36.0342H16.9574C16.7207 36.0342 16.4937 36.1699 16.3264 36.4113C16.159 36.6528 16.0649 36.9802 16.0649 37.3217C16.0649 37.6632 16.159 37.9907 16.3264 38.2321C16.4937 38.4736 16.7207 38.6092 16.9574 38.6092Z" fill="url(#paint3_linear_2_101)"/>
<defs>
<linearGradient id="paint0_linear_2_101" x1="76.7946" y1="0" x2="76.7946" y2="84.9742" gradientUnits="userSpaceOnUse">
<stop stop-color="#26D7FE"/>
<stop offset="1" stop-color="#178198"/>
</linearGradient>
<linearGradient id="paint1_linear_2_101" x1="74.1175" y1="10.2999" x2="74.1175" y2="20.5998" gradientUnits="userSpaceOnUse">
<stop stop-color="#26D7FE"/>
<stop offset="1" stop-color="#178198"/>
</linearGradient>
<linearGradient id="paint2_linear_2_101" x1="36.5928" y1="5.13452" x2="36.5928" y2="85" gradientUnits="userSpaceOnUse">
<stop stop-color="#0082FF"/>
<stop offset="1" stop-color="#00C6FF"/>
</linearGradient>
<linearGradient id="paint3_linear_2_101" x1="29.4526" y1="12.8594" x2="29.4526" y2="38.6092" gradientUnits="userSpaceOnUse">
<stop stop-color="#0082FF"/>
<stop offset="1" stop-color="#00C6FF"/>
</linearGradient>
</defs>
</svg>
