<svg width="36" height="36" viewBox="0 0 36 36" fill="none" xmlns="http://www.w3.org/2000/svg">
<circle cx="17.5635" cy="17.5703" r="17.5" fill="url(#paint0_linear_300_204)"/>
<path d="M17.4725 9.98425C15.9915 9.98425 14.5437 10.4234 13.3123 11.2462C12.0809 12.069 11.1211 13.2385 10.5544 14.6068C9.98762 15.975 9.83933 17.4806 10.1283 18.9332C10.4172 20.3857 11.1304 21.72 12.1776 22.7672C13.2248 23.8144 14.5591 24.5276 16.0116 24.8165C17.4642 25.1055 18.9698 24.9572 20.338 24.3904C21.7063 23.8237 22.8758 22.8639 23.6986 21.6325C24.5214 20.4011 24.9605 18.9533 24.9605 17.4723C24.9605 15.4864 24.1716 13.5817 22.7673 12.1775C21.363 10.7732 19.4584 9.98425 17.4725 9.98425ZM17.4725 23.8907C16.203 23.8907 14.9621 23.5143 13.9066 22.809C12.8511 22.1037 12.0285 21.1013 11.5427 19.9285C11.0569 18.7557 10.9298 17.4652 11.1774 16.2202C11.4251 14.9751 12.0364 13.8315 12.934 12.9339C13.8316 12.0362 14.9753 11.425 16.2203 11.1773C17.4653 10.9297 18.7559 11.0568 19.9287 11.5425C21.1015 12.0283 22.1039 12.851 22.8091 13.9065C23.5144 14.962 23.8908 16.2029 23.8908 17.4723C23.8908 19.1746 23.2146 20.8071 22.0109 22.0108C20.8073 23.2145 19.1747 23.8907 17.4725 23.8907Z" fill="white"/>
<path d="M21.0612 13.8833C21.0114 13.8332 20.9523 13.7934 20.8871 13.7662C20.8219 13.7391 20.752 13.7251 20.6814 13.7251C20.6108 13.7251 20.5409 13.7391 20.4757 13.7662C20.4105 13.7934 20.3514 13.8332 20.3017 13.8833L17.4722 16.7181L14.6428 13.8833C14.5421 13.7826 14.4055 13.726 14.2631 13.726C14.1206 13.726 13.984 13.7826 13.8833 13.8833C13.7826 13.984 13.726 14.1206 13.726 14.2631C13.726 14.4055 13.7826 14.5421 13.8833 14.6428L16.7181 17.4722L13.8833 20.3017C13.8332 20.3514 13.7934 20.4105 13.7662 20.4757C13.7391 20.5409 13.7251 20.6108 13.7251 20.6814C13.7251 20.752 13.7391 20.8219 13.7662 20.8871C13.7934 20.9523 13.8332 21.0114 13.8833 21.0612C13.933 21.1113 13.9922 21.1511 14.0574 21.1782C14.1225 21.2054 14.1925 21.2194 14.2631 21.2194C14.3337 21.2194 14.4036 21.2054 14.4688 21.1782C14.5339 21.1511 14.5931 21.1113 14.6428 21.0612L17.4722 18.2264L20.3017 21.0612C20.3514 21.1113 20.4105 21.1511 20.4757 21.1782C20.5409 21.2054 20.6108 21.2194 20.6814 21.2194C20.752 21.2194 20.8219 21.2054 20.8871 21.1782C20.9523 21.1511 21.0114 21.1113 21.0612 21.0612C21.1113 21.0114 21.1511 20.9523 21.1782 20.8871C21.2054 20.8219 21.2194 20.752 21.2194 20.6814C21.2194 20.6108 21.2054 20.5409 21.1782 20.4757C21.1511 20.4105 21.1113 20.3514 21.0612 20.3017L18.2264 17.4722L21.0612 14.6428C21.1113 14.5931 21.1511 14.5339 21.1782 14.4688C21.2054 14.4036 21.2194 14.3337 21.2194 14.2631C21.2194 14.1925 21.2054 14.1225 21.1782 14.0574C21.1511 13.9922 21.1113 13.933 21.0612 13.8833Z" fill="white"/>
<defs>
<linearGradient id="paint0_linear_300_204" x1="7.73068" y1="-15.3084" x2="-23.0267" y2="30.872" gradientUnits="userSpaceOnUse">
<stop stop-color="#EB1616"/>
<stop offset="0.511667" stop-color="#E25E33"/>
<stop offset="1" stop-color="#E16B39"/>
</linearGradient>
</defs>
</svg>
