<svg width="36" height="36" viewBox="0 0 36 36" fill="none" xmlns="http://www.w3.org/2000/svg">
<circle cx="17.5635" cy="18.4679" r="17.5" fill="url(#paint0_linear_300_169)"/>
<path d="M18.4705 11.7207C14.3404 11.7207 10.9824 14.8268 10.9824 18.6472C10.9824 22.4676 14.3404 25.5737 18.4705 25.5737C22.6007 25.5737 25.9586 22.4676 25.9586 18.6472C25.9586 14.8268 22.6007 11.7207 18.4705 11.7207ZM18.4705 24.7079C14.8581 24.7079 11.9184 21.9887 11.9184 18.6472C11.9184 15.3057 14.8581 12.5865 18.4705 12.5865C22.0829 12.5865 25.0226 15.3057 25.0226 18.6472C25.0226 21.9887 22.0829 24.7079 18.4705 24.7079ZM22.7645 16.3041L17.9089 21.5531C17.827 21.6423 17.71 21.6965 17.5842 21.7046C17.5725 21.7046 17.5637 21.7046 17.552 21.7046C17.438 21.7046 17.3268 21.6667 17.242 21.5963L14.2204 19.1207C14.0274 18.961 14.0098 18.6878 14.1795 18.5092C14.3521 18.3306 14.6475 18.3144 14.8405 18.4713L17.5052 20.6548L22.0507 15.7386C22.2175 15.5573 22.5129 15.5357 22.7118 15.6899C22.9107 15.8495 22.9312 16.1228 22.7645 16.3041Z" fill="white"/>
<defs>
<linearGradient id="paint0_linear_300_169" x1="7.73068" y1="-14.4108" x2="-23.0267" y2="31.7696" gradientUnits="userSpaceOnUse">
<stop stop-color="#16B4EB"/>
<stop offset="1" stop-color="#23E73C"/>
</linearGradient>
</defs>
</svg>
