<svg width="11" height="11" viewBox="0 0 11 11" fill="none" xmlns="http://www.w3.org/2000/svg">
<path d="M7.401 6.89607C7.96535 6.2129 8.32179 5.33666 8.32179 4.37131C8.32179 2.203 6.55446 0.435669 4.38614 0.435669C2.21783 0.435669 0.4505 2.203 0.4505 4.37131C0.4505 6.53963 2.21783 8.30696 4.38614 8.30696C5.33664 8.30696 6.22773 7.96537 6.9109 7.38616L9.9703 10.4456C10.0446 10.5198 10.1337 10.5495 10.2228 10.5495C10.3119 10.5495 10.401 10.5198 10.4753 10.4456C10.6089 10.3119 10.6089 10.0743 10.4753 9.94062L7.401 6.89607ZM4.37129 7.59408C2.58911 7.59408 1.14852 6.15349 1.14852 4.37131C1.14852 2.58913 2.58911 1.14854 4.37129 1.14854C6.15347 1.14854 7.59406 2.58913 7.59406 4.37131C7.59406 6.15349 6.15347 7.59408 4.37129 7.59408Z" fill="#E2E8F0"/>
</svg>
