<svg width="72" height="58" viewBox="0 0 72 58" fill="none" xmlns="http://www.w3.org/2000/svg">
<path d="M71.3573 10.5317C71.5277 10.5317 71.6912 10.4392 71.8117 10.2744C71.9322 10.1097 71.9999 9.8862 71.9999 9.6532V4.38207C71.9999 4.14907 71.9322 3.92561 71.8117 3.76086C71.6912 3.5961 71.5277 3.50355 71.3573 3.50355H69.4295V0.878522C69.4295 0.645523 69.3618 0.422069 69.2413 0.257314C69.1208 0.0925593 68.9573 0 68.7869 0H39.2271C39.0566 0 38.8932 0.0925593 38.7727 0.257314C38.6522 0.422069 38.5845 0.645523 38.5845 0.878522V21.9455C38.5845 22.1785 38.6522 22.4019 38.7727 22.5667C38.8932 22.7314 39.0566 22.824 39.2271 22.824C39.3975 22.824 39.561 22.7314 39.6815 22.5667C39.802 22.4019 39.8697 22.1785 39.8697 21.9455V1.75705H63.0035V35.5485L59.4344 38.8025C59.3464 38.8828 59.2742 38.9915 59.2242 39.119C59.1742 39.2465 59.148 39.3888 59.1478 39.5335V56.2254H39.2271C39.0566 56.2254 38.8932 56.3179 38.7727 56.4827C38.6522 56.6475 38.5845 56.8709 38.5845 57.1039C38.5845 57.3369 38.6522 57.5604 38.7727 57.7251C38.8932 57.8899 39.0566 57.9824 39.2271 57.9824H68.7869C68.9573 57.9824 69.1208 57.8899 69.2413 57.7251C69.3618 57.5604 69.4295 57.3369 69.4295 57.1039V28.1022H71.3573C71.5277 28.1022 71.6912 28.0096 71.8117 27.8448C71.9322 27.6801 71.9999 27.4566 71.9999 27.2236V21.9525C71.9999 21.7195 71.9322 21.496 71.8117 21.3313C71.6912 21.1665 71.5277 21.074 71.3573 21.074H69.4295V19.3169H71.3573C71.5277 19.3169 71.6912 19.2244 71.8117 19.0596C71.9322 18.8949 71.9999 18.6714 71.9999 18.4384V13.1673C71.9999 12.9343 71.9322 12.7108 71.8117 12.5461C71.6912 12.3813 71.5277 12.2888 71.3573 12.2888H69.4295V10.5317H71.3573ZM69.4295 5.26059H70.7147V8.77468H69.4295V5.26059ZM68.1443 4.38207V56.2254H60.433V40.0044L64.0021 36.7503C64.0901 36.6701 64.1623 36.5614 64.2123 36.4339C64.2623 36.3064 64.2885 36.164 64.2887 36.0194V1.75705H68.1443V4.38207ZM70.7147 22.831V26.3451H69.4295V22.831H70.7147ZM70.7147 14.0458V17.5599H69.4295V14.0458H70.7147Z" fill="url(#paint0_linear_1408_4708)"/>
<path d="M58.5053 14.0564C58.6758 14.0564 58.8392 13.9638 58.9597 13.7991C59.0802 13.6343 59.1479 13.4108 59.1479 13.1778V7.90672C59.1479 7.67372 59.0802 7.45027 58.9597 7.28551C58.8392 7.12076 58.6758 7.0282 58.5053 7.0282H48.2237C48.0532 7.0282 47.8898 7.12076 47.7693 7.28551C47.6488 7.45027 47.5811 7.67372 47.5811 7.90672V13.1778C47.5811 13.4108 47.6488 13.6343 47.7693 13.7991C47.8898 13.9638 48.0532 14.0564 48.2237 14.0564H58.5053ZM48.8663 8.78524H57.8627V12.2993H48.8663V8.78524Z" fill="url(#paint1_linear_1408_4708)"/>
<path d="M48.838 21.0669H34.7006V9.65319C34.7006 6.2621 32.6829 3.50354 30.2024 3.50354H4.49823C2.01778 3.50354 0 6.2621 0 9.65319V16.6919C0 16.9249 0.0677026 17.1484 0.188214 17.3131C0.308726 17.4779 0.472175 17.5704 0.642604 17.5704H7.71126V51.8328C7.71126 52.0658 7.77896 52.2892 7.89947 52.454C8.01998 52.6187 8.18343 52.7113 8.35386 52.7113H12.8534C12.8575 54.1056 13.2652 55.4411 13.9875 56.4255C14.7098 57.41 15.6878 57.9635 16.7077 57.9648V58H48.838C50.9637 58 52.6936 55.635 52.6936 52.7289V26.3381C52.6936 23.4319 50.965 21.0669 48.838 21.0669ZM7.71126 14.9243V15.8134H1.28521V9.65319C1.28521 7.23199 2.72593 5.26058 4.49823 5.26058C6.27054 5.26058 7.71126 7.23199 7.71126 9.65319V14.9243ZM19.2781 52.7289C19.2781 54.6669 18.1253 56.2429 16.7077 56.2429V56.2078C16.0287 56.2064 15.3775 55.8381 14.8963 55.1831C14.415 54.5282 14.1427 53.6396 14.1386 52.7113H19.2781V52.7289ZM12.2095 36.8874H19.2781V40.4014H12.2095C12.0391 40.4014 11.8756 40.494 11.7551 40.6588C11.6346 40.8235 11.5669 41.047 11.5669 41.28C11.5669 41.513 11.6346 41.7364 11.7551 41.9012C11.8756 42.0659 12.0391 42.1585 12.2095 42.1585H19.2781V45.6726H12.2095C12.0391 45.6726 11.8756 45.7651 11.7551 45.9299C11.6346 46.0946 11.5669 46.3181 11.5669 46.5511C11.5669 46.7841 11.6346 47.0075 11.7551 47.1723C11.8756 47.3371 12.0391 47.4296 12.2095 47.4296H19.2781V50.9542H8.99646V9.65319C8.99646 7.93129 8.47338 6.37806 7.63671 5.26058H30.2024C31.9747 5.26058 33.4154 7.23199 33.4154 9.65319V29.8873H23.1338C23.004 29.8873 22.8806 29.9224 22.7533 29.94C22.6711 29.8881 22.5817 29.8606 22.4912 29.8592H12.2095C12.0391 29.8592 11.8756 29.9517 11.7551 30.1165C11.6346 30.2813 11.5669 30.5047 11.5669 30.7377C11.5669 30.9707 11.6346 31.1942 11.7551 31.3589C11.8756 31.5237 12.0391 31.6162 12.2095 31.6162H20.2973C19.6504 32.5739 19.2875 33.8267 19.2794 35.1303H12.2082C12.1238 35.1304 12.0403 35.1533 11.9623 35.1975C11.8844 35.2418 11.8136 35.3066 11.754 35.3882C11.6944 35.4699 11.6471 35.5668 11.6149 35.6735C11.5827 35.7801 11.5662 35.8943 11.5662 36.0097C11.5663 36.1251 11.583 36.2393 11.6154 36.3458C11.6478 36.4524 11.6952 36.5492 11.7549 36.6307C11.8146 36.7122 11.8855 36.7768 11.9635 36.8208C12.0415 36.8649 12.1251 36.8875 12.2095 36.8874ZM51.4084 41.2729V52.7289C51.4084 54.6669 50.2555 56.2429 48.838 56.2429H19.5802C20.2148 55.2782 20.5655 54.0263 20.5646 52.7289V35.1584C20.5646 33.2204 21.7175 31.6443 23.1351 31.6443H48.8392C50.2568 31.6443 51.4097 33.2204 51.4097 35.1584V41.2729H51.4084ZM51.4084 31.2578C50.7061 30.3797 49.7896 29.891 48.838 29.8873H34.7006V22.824H48.838C50.2555 22.824 51.4084 24.4001 51.4084 26.3381V31.2578Z" fill="url(#paint2_linear_1408_4708)"/>
<path d="M16.0651 10.5317H26.3468C26.5172 10.5317 26.6807 10.4391 26.8012 10.2744C26.9217 10.1096 26.9894 9.88618 26.9894 9.65318C26.9894 9.42018 26.9217 9.19673 26.8012 9.03197C26.6807 8.86722 26.5172 8.77466 26.3468 8.77466H16.0651C15.8947 8.77466 15.7312 8.86722 15.6107 9.03197C15.4902 9.19673 15.4225 9.42018 15.4225 9.65318C15.4225 9.88618 15.4902 10.1096 15.6107 10.2744C15.7312 10.4391 15.8947 10.5317 16.0651 10.5317ZM12.2095 15.8028H30.2024C30.3729 15.8028 30.5363 15.7103 30.6568 15.5455C30.7773 15.3808 30.845 15.1573 30.845 14.9243C30.845 14.6913 30.7773 14.4679 30.6568 14.3031C30.5363 14.1383 30.3729 14.0458 30.2024 14.0458H12.2095C12.0391 14.0458 11.8756 14.1383 11.7551 14.3031C11.6346 14.4679 11.5669 14.6913 11.5669 14.9243C11.5669 15.1573 11.6346 15.3808 11.7551 15.5455C11.8756 15.7103 12.0391 15.8028 12.2095 15.8028ZM12.2095 21.074H30.2024C30.3729 21.074 30.5363 20.9814 30.6568 20.8166C30.7773 20.6519 30.845 20.4284 30.845 20.1954C30.845 19.9624 30.7773 19.739 30.6568 19.5742C30.5363 19.4095 30.3729 19.3169 30.2024 19.3169H12.2095C12.0391 19.3169 11.8756 19.4095 11.7551 19.5742C11.6346 19.739 11.5669 19.9624 11.5669 20.1954C11.5669 20.4284 11.6346 20.6519 11.7551 20.8166C11.8756 20.9814 12.0391 21.074 12.2095 21.074ZM12.2095 26.3451H30.2024C30.3729 26.3451 30.5363 26.2525 30.6568 26.0878C30.7773 25.923 30.845 25.6996 30.845 25.4666C30.845 25.2336 30.7773 25.0101 30.6568 24.8454C30.5363 24.6806 30.3729 24.588 30.2024 24.588H12.2095C12.0391 24.588 11.8756 24.6806 11.7551 24.8454C11.6346 25.0101 11.5669 25.2336 11.5669 25.4666C11.5669 25.6996 11.6346 25.923 11.7551 26.0878C11.8756 26.2525 12.0391 26.3451 12.2095 26.3451Z" fill="url(#paint3_linear_1408_4708)"/>
<defs>
<linearGradient id="paint0_linear_1408_4708" x1="55.2922" y1="0" x2="55.2922" y2="57.9824" gradientUnits="userSpaceOnUse">
<stop stop-color="#26D7FE"/>
<stop offset="1" stop-color="#178198"/>
</linearGradient>
<linearGradient id="paint1_linear_1408_4708" x1="53.3645" y1="7.0282" x2="53.3645" y2="14.0564" gradientUnits="userSpaceOnUse">
<stop stop-color="#26D7FE"/>
<stop offset="1" stop-color="#178198"/>
</linearGradient>
<linearGradient id="paint2_linear_1408_4708" x1="26.3468" y1="3.50354" x2="26.3468" y2="58" gradientUnits="userSpaceOnUse">
<stop stop-color="#0082FF"/>
<stop offset="1" stop-color="#00C6FF"/>
</linearGradient>
<linearGradient id="paint3_linear_1408_4708" x1="21.206" y1="8.77466" x2="21.206" y2="26.3451" gradientUnits="userSpaceOnUse">
<stop stop-color="#0082FF"/>
<stop offset="1" stop-color="#00C6FF"/>
</linearGradient>
</defs>
</svg>
