<svg width="30" height="30" viewBox="0 0 30 30" fill="none" xmlns="http://www.w3.org/2000/svg">
<path d="M20.4974 9.50255C20.3597 9.36367 20.1958 9.25343 20.0152 9.1782C19.8347 9.10297 19.641 9.06424 19.4454 9.06424C19.2498 9.06424 19.0561 9.10297 18.8755 9.1782C18.6949 9.25343 18.5311 9.36367 18.3933 9.50255L15 12.9107L11.6067 9.50255C11.3277 9.22353 10.9492 9.06677 10.5546 9.06677C10.16 9.06677 9.78158 9.22353 9.50255 9.50255C9.22353 9.78158 9.06677 10.16 9.06677 10.5546C9.06677 10.9492 9.22353 11.3277 9.50255 11.6067L12.9107 15L9.50255 18.3933C9.36367 18.5311 9.25343 18.6949 9.1782 18.8755C9.10297 19.0561 9.06424 19.2498 9.06424 19.4454C9.06424 19.641 9.10297 19.8347 9.1782 20.0152C9.25343 20.1958 9.36367 20.3597 9.50255 20.4974C9.6403 20.6363 9.80419 20.7466 9.98476 20.8218C10.1653 20.897 10.359 20.9358 10.5546 20.9358C10.7502 20.9358 10.9439 20.897 11.1245 20.8218C11.3051 20.7466 11.4689 20.6363 11.6067 20.4974L15 17.0893L18.3933 20.4974C18.5311 20.6363 18.6949 20.7466 18.8755 20.8218C19.0561 20.897 19.2498 20.9358 19.4454 20.9358C19.641 20.9358 19.8347 20.897 20.0152 20.8218C20.1958 20.7466 20.3597 20.6363 20.4974 20.4974C20.6363 20.3597 20.7466 20.1958 20.8218 20.0152C20.897 19.8347 20.9358 19.641 20.9358 19.4454C20.9358 19.2498 20.897 19.0561 20.8218 18.8755C20.7466 18.6949 20.6363 18.5311 20.4974 18.3933L17.0893 15L20.4974 11.6067C20.6363 11.4689 20.7466 11.3051 20.8218 11.1245C20.897 10.9439 20.9358 10.7502 20.9358 10.5546C20.9358 10.359 20.897 10.1653 20.8218 9.98476C20.7466 9.80419 20.6363 9.6403 20.4974 9.50255ZM25.4763 4.52373C24.1094 3.10847 22.4743 1.97961 20.6664 1.20302C18.8586 0.426427 16.9142 0.0176566 14.9467 0.000559476C12.9792 -0.0165377 11.0279 0.358381 9.20688 1.10344C7.38581 1.8485 5.73136 2.94877 4.34007 4.34007C2.94877 5.73136 1.8485 7.38581 1.10344 9.20688C0.358381 11.0279 -0.0165377 12.9792 0.000559476 14.9467C0.0176566 16.9142 0.426427 18.8586 1.20302 20.6664C1.97961 22.4743 3.10847 24.1094 4.52373 25.4763C5.89064 26.8915 7.52572 28.0204 9.33356 28.797C11.1414 29.5736 13.0858 29.9823 15.0533 29.9994C17.0208 30.0165 18.9721 29.6416 20.7931 28.8966C22.6142 28.1515 24.2686 27.0512 25.6599 25.6599C27.0512 24.2686 28.1515 22.6142 28.8966 20.7931C29.6416 18.9721 30.0165 17.0208 29.9994 15.0533C29.9823 13.0858 29.5736 11.1414 28.797 9.33356C28.0204 7.52572 26.8915 5.89064 25.4763 4.52373ZM23.3869 23.3869C21.4488 25.3272 18.8979 26.5355 16.1688 26.8059C13.4397 27.0763 10.7013 26.3921 8.42014 24.8699C6.13894 23.3477 4.4561 21.0816 3.65833 18.4577C2.86055 15.8339 2.9972 13.0146 4.04499 10.4802C5.09278 7.94582 6.98688 5.85312 9.40459 4.55865C11.8223 3.26418 14.6141 2.84802 17.3042 3.38109C19.9943 3.91415 22.4164 5.36345 24.1578 7.48207C25.8992 9.60069 26.8522 12.2576 26.8543 15C26.8596 16.5578 26.5559 18.1012 25.9607 19.5408C25.3655 20.9804 24.4907 22.2877 23.3869 23.3869Z" fill="white"/>
</svg>
