<svg width="28" height="28" viewBox="0 0 28 28" fill="none" xmlns="http://www.w3.org/2000/svg">
<path d="M14 0C11.2311 0 8.52431 0.821086 6.22202 2.35943C3.91973 3.89777 2.12532 6.08427 1.06569 8.64243C0.00606596 11.2006 -0.271181 14.0155 0.269012 16.7313C0.809205 19.447 2.14258 21.9416 4.10051 23.8995C6.05845 25.8574 8.55301 27.1908 11.2687 27.731C13.9845 28.2712 16.7994 27.9939 19.3576 26.9343C21.9157 25.8747 24.1022 24.0803 25.6406 21.778C27.1789 19.4757 28 16.7689 28 14C28 10.287 26.525 6.72601 23.8995 4.1005C21.274 1.475 17.713 0 14 0ZM14 26C11.6266 26 9.30655 25.2962 7.33316 23.9776C5.35977 22.6591 3.8217 20.7849 2.91345 18.5922C2.0052 16.3995 1.76756 13.9867 2.23058 11.6589C2.69361 9.33114 3.83649 7.19295 5.51472 5.51472C7.19296 3.83649 9.33115 2.6936 11.6589 2.23058C13.9867 1.76755 16.3995 2.00519 18.5922 2.91345C20.7849 3.8217 22.6591 5.35977 23.9776 7.33316C25.2962 9.30655 26 11.6266 26 14C26 17.1826 24.7357 20.2348 22.4853 22.4853C20.2348 24.7357 17.1826 26 14 26ZM18 16C18 16.7956 17.6839 17.5587 17.1213 18.1213C16.5587 18.6839 15.7957 19 15 19V21H13V19H11V17H15C15.2652 17 15.5196 16.8946 15.7071 16.7071C15.8947 16.5196 16 16.2652 16 16C16 15.7348 15.8947 15.4804 15.7071 15.2929C15.5196 15.1054 15.2652 15 15 15H13C12.2044 15 11.4413 14.6839 10.8787 14.1213C10.3161 13.5587 10 12.7956 10 12C10 11.2044 10.3161 10.4413 10.8787 9.87868C11.4413 9.31607 12.2044 9 13 9V7H15V9H17V11H13C12.7348 11 12.4804 11.1054 12.2929 11.2929C12.1054 11.4804 12 11.7348 12 12C12 12.2652 12.1054 12.5196 12.2929 12.7071C12.4804 12.8946 12.7348 13 13 13H15C15.7957 13 16.5587 13.3161 17.1213 13.8787C17.6839 14.4413 18 15.2044 18 16Z" fill="url(#paint0_linear_1599_702)"/>
<defs>
<linearGradient id="paint0_linear_1599_702" x1="14" y1="0" x2="14" y2="28" gradientUnits="userSpaceOnUse">
<stop stop-color="#0084FF"/>
<stop offset="1" stop-color="#00CBFF"/>
</linearGradient>
</defs>
</svg>
