<svg width="24" height="26" viewBox="0 0 24 26" fill="none" xmlns="http://www.w3.org/2000/svg">
<ellipse cx="11.9898" cy="12.6858" rx="11.9898" ry="12.6857" fill="#020F33"/>
<path fill-rule="evenodd" clip-rule="evenodd" d="M10.8149 5.9338C11.5799 5.12424 12.6176 4.66936 13.6996 4.66922H15.7978C15.9523 4.66922 16.1006 4.73419 16.2099 4.84984C16.3192 4.96549 16.3806 5.12234 16.3806 5.28589V8.24589C16.3806 8.40944 16.3192 8.5663 16.2099 8.68194C16.1006 8.79759 15.9523 8.86256 15.7978 8.86256H13.6996C13.6843 8.86256 13.6691 8.86575 13.6549 8.87195C13.6408 8.87815 13.628 8.88723 13.6171 8.89868C13.6063 8.91014 13.5977 8.92373 13.5919 8.9387C13.586 8.95366 13.583 8.9697 13.583 8.98589V10.5892H15.7978C15.8864 10.5892 15.9738 10.6105 16.0535 10.6516C16.1331 10.6927 16.2029 10.7524 16.2574 10.8263C16.312 10.9002 16.3499 10.9862 16.3682 11.078C16.3866 11.1697 16.385 11.2646 16.3635 11.3555L15.6641 14.3155C15.6326 14.449 15.5597 14.5675 15.4572 14.6521C15.3547 14.7367 15.2284 14.7826 15.0984 14.7826H13.583V20.0859C13.583 20.2495 13.5216 20.4063 13.4123 20.522C13.303 20.6376 13.1547 20.7026 13.0002 20.7026H10.2025C10.048 20.7026 9.89971 20.6376 9.79041 20.522C9.6811 20.4063 9.6197 20.2495 9.6197 20.0859V14.7826H8.10432C7.94974 14.7826 7.8015 14.7176 7.69219 14.602C7.58289 14.4863 7.52148 14.3295 7.52148 14.1659V11.2059C7.52148 11.1249 7.53656 11.0447 7.56585 10.9699C7.59514 10.8951 7.63807 10.8271 7.69219 10.7698C7.74631 10.7126 7.81057 10.6672 7.88128 10.6362C7.95199 10.6052 8.02778 10.5892 8.10432 10.5892H9.6197V8.98589C9.61983 7.84109 10.0498 6.74323 10.8149 5.9338ZM13.6996 5.90256C12.9267 5.90256 12.1854 6.22741 11.6389 6.80564C11.0924 7.38388 10.7854 8.16814 10.7854 8.98589V11.2059C10.7854 11.3694 10.724 11.5263 10.6147 11.6419C10.5054 11.7576 10.3571 11.8226 10.2025 11.8226H8.68716V13.5492H10.2025C10.3571 13.5492 10.5054 13.6142 10.6147 13.7299C10.724 13.8455 10.7854 14.0024 10.7854 14.1659V19.4692H12.4173V14.1659C12.4173 14.0024 12.4787 13.8455 12.588 13.7299C12.6973 13.6142 12.8456 13.5492 13.0002 13.5492H14.643L15.051 11.8226H13.0002C12.8456 11.8226 12.6973 11.7576 12.588 11.6419C12.4787 11.5263 12.4173 11.3694 12.4173 11.2059V8.98589C12.4173 8.62608 12.5524 8.28101 12.7929 8.02658C13.0333 7.77216 13.3595 7.62923 13.6996 7.62923H15.2149V5.90256H13.6996Z" fill="white"/>
</svg>
