<svg width="22" height="22" viewBox="0 0 22 22" fill="none" xmlns="http://www.w3.org/2000/svg">
<path d="M11 22C4.93416 22 0 17.0658 0 11C0 4.93416 4.93416 0 11 0C17.0658 0 22 4.93416 22 11C22 17.0658 17.065 22 11 22ZM11 1.76C5.9048 1.76 1.76 5.9048 1.76 11C1.76 16.0952 5.9048 20.24 11 20.24C16.0952 20.24 20.24 16.0952 20.24 11C20.24 5.9048 16.0943 1.76 11 1.76ZM10.9296 11.8096H5.28C5.04661 11.8096 4.82278 11.7169 4.65775 11.5519C4.49271 11.3868 4.4 11.163 4.4 10.9296C4.4 10.6962 4.49271 10.4724 4.65775 10.3073C4.82278 10.1423 5.04661 10.0496 5.28 10.0496H10.0496V3.52C10.0496 3.28661 10.1423 3.06278 10.3073 2.89775C10.4724 2.73271 10.6962 2.64 10.9296 2.64C11.163 2.64 11.3868 2.73271 11.5519 2.89775C11.7169 3.06278 11.8096 3.28661 11.8096 3.52V10.9296C11.8096 11.163 11.7169 11.3868 11.5519 11.5519C11.3868 11.7169 11.163 11.8096 10.9296 11.8096Z" fill="white"/>
</svg>
