<svg width="14" height="13" viewBox="0 0 14 13" fill="none" xmlns="http://www.w3.org/2000/svg">
<path d="M0 1.5101C0 1.07238 0.157662 0.711271 0.472973 0.426768C0.788284 0.142252 1.1982 0 1.7027 0C2.1982 0 2.59909 0.140059 2.90541 0.420202C3.22072 0.709091 3.37838 1.08551 3.37838 1.54949C3.37838 1.9697 3.22523 2.31986 2.91892 2.6C2.60361 2.88889 2.18919 3.03333 1.67568 3.03333H1.66216C1.16666 3.03333 0.76577 2.88889 0.459459 2.6C0.153149 2.31111 0 1.94781 0 1.5101ZM0.175676 13V4.22828H3.17568V13H0.175676ZM4.83784 13H7.83784V8.10202C7.83784 7.79561 7.87388 7.55925 7.94595 7.39293C8.07207 7.09528 8.26351 6.84359 8.52027 6.63788C8.77703 6.43215 9.09909 6.32929 9.48649 6.32929C10.4955 6.32929 11 6.99023 11 8.31212V13H14V7.97071C14 6.67508 13.6847 5.69242 13.0541 5.02273C12.4234 4.35303 11.5901 4.01818 10.5541 4.01818C9.39189 4.01818 8.48649 4.50404 7.83784 5.47576V5.50202H7.82432L7.83784 5.47576V4.22828H4.83784C4.85585 4.50841 4.86486 5.37945 4.86486 6.84141C4.86486 8.30336 4.85585 10.3562 4.83784 13Z" fill="white"/>
</svg>
