<svg width="35" height="36" viewBox="0 0 35 36" fill="none" xmlns="http://www.w3.org/2000/svg">
<path d="M17.5 35.2988C27.165 35.2988 35 27.4638 35 17.7988C35 8.13384 27.165 0.298828 17.5 0.298828C7.83502 0.298828 0 8.13384 0 17.7988C0 27.4638 7.83502 35.2988 17.5 35.2988Z" fill="#239FDB"/>
<path d="M16.8056 35.2639C17.0368 35.2802 17.2683 35.2918 17.5 35.2989C17.9134 35.2991 18.3266 35.2846 18.739 35.2555C19.3208 35.2145 19.9002 35.1444 20.475 35.0455C21.0499 34.9462 21.6195 34.8181 22.1816 34.6619C22.7435 34.5053 23.2972 34.3208 23.8406 34.1089C24.3842 33.8976 24.9168 33.6593 25.4366 33.3949C25.9571 33.1302 26.4641 32.8395 26.9556 32.5241C27.4464 32.2088 27.9211 31.8691 28.378 31.5063C28.8352 31.1439 29.2739 30.7589 29.6926 30.3527C30.1113 29.9463 30.5094 29.5193 30.8854 29.0731C31.2607 28.6271 31.6135 28.1627 31.9424 27.6815C32.2728 27.1992 32.5789 26.7006 32.8594 26.1877C33.1389 25.6757 33.3926 25.15 33.6196 24.6127C33.8461 24.0751 34.0457 23.5266 34.2174 22.9691C34.3897 22.412 34.5341 21.8466 34.65 21.2751C34.7665 20.7035 34.8543 20.1265 34.9132 19.5461C34.9712 18.9655 35.0002 18.3824 35 17.7989C34.9959 17.5528 34.9865 17.3068 34.972 17.0611L29.4112 11.4989H7V25.4569L16.8056 35.2639Z" fill="#0B5ECD"/>
<g clip-path="url(#clip0_1485_895)">
<path d="M19.1686 17.4569L18.0308 17.065L17.8521 17.5841L18.9899 17.9759C19.0237 17.9873 19.0595 17.9918 19.0951 17.9893C19.1307 17.9867 19.1654 17.9772 19.1974 17.9613C19.2293 17.9453 19.2578 17.9232 19.2811 17.8962C19.3045 17.8693 19.3224 17.8379 19.3336 17.8041C19.3609 17.7368 19.3609 17.6616 19.3336 17.5944C19.2989 17.5286 19.2396 17.4791 19.1686 17.4569Z" fill="white"/>
<path d="M18 14.9062C17.1795 14.9063 16.3926 15.2322 15.8124 15.8124C15.2322 16.3926 14.9063 17.1795 14.9063 18C14.9062 18.1438 14.9165 18.2874 14.9372 18.4297C14.9441 18.4932 14.9545 18.5563 14.9681 18.6188C14.9681 18.6841 14.9991 18.7459 15.0163 18.8113C15.05 18.9442 15.0949 19.0742 15.1503 19.1997C15.1744 19.2581 15.2019 19.3131 15.2294 19.3681C15.2552 19.4245 15.2839 19.4796 15.3153 19.5331C15.587 20.0028 15.9775 20.3927 16.4475 20.6637C16.9175 20.9348 17.4506 21.0775 17.9931 21.0775C18.5357 21.0775 19.0687 20.9348 19.5387 20.6637C20.0088 20.3927 20.3992 20.0028 20.6709 19.5331C20.7023 19.4796 20.731 19.4245 20.7569 19.3681C20.7844 19.3131 20.8119 19.2581 20.8359 19.1997C20.8914 19.0742 20.9362 18.9442 20.97 18.8113C20.97 18.7459 21.0044 18.6841 21.0181 18.6188C21.0318 18.5563 21.0421 18.4932 21.0491 18.4297C21.0743 18.2877 21.0893 18.1441 21.0938 18C21.0938 17.1795 20.7678 16.3926 20.1876 15.8124C19.6074 15.2322 18.8205 14.9062 18 14.9062ZM19.1 19.7497C18.9685 19.8146 18.8239 19.8487 18.6772 19.8494C18.5826 19.8497 18.4885 19.8346 18.3988 19.8047L18.2097 20.3616L17.5566 20.1381L17.7456 19.5847V19.5469H17.6219L17.505 19.5091V19.5469L17.3297 20.0625L16.68 19.8391L16.7797 19.5503L16.8691 19.2891L16.0234 18.9969L16.2469 18.3438L16.8003 18.5328L17.3813 16.8416L16.8278 16.6525L17.0478 16.0028L17.8969 16.2813L18.0859 15.7278L18.7356 15.9513L18.5466 16.5047L18.7734 16.5803L18.9625 16.0303L19.6122 16.2538L19.4231 16.8072C19.6554 16.8969 19.844 17.0728 19.9497 17.2983C20.0554 17.5237 20.0699 17.7813 19.9903 18.0172C19.9157 18.2321 19.7687 18.4145 19.5744 18.5328C19.6516 18.7449 19.6516 18.9773 19.5744 19.1894C19.5302 19.3186 19.4573 19.4361 19.3613 19.5331C19.2878 19.6204 19.1993 19.6937 19.1 19.7497Z" fill="white"/>
<path d="M18.7668 18.6256L17.6289 18.2372L17.4502 18.7562L18.588 19.1447C18.6552 19.172 18.7305 19.172 18.7977 19.1447C18.863 19.1117 18.9134 19.0552 18.9386 18.9866C18.9596 18.9182 18.9535 18.8443 18.9215 18.7803C18.8895 18.7163 18.8341 18.667 18.7668 18.6428V18.6256Z" fill="white"/>
<path d="M28.3125 11.8125V7.6875H24.1875V9.40625H20.0625V7.6875H15.9375V9.40625H11.8125V7.6875H7.6875V11.8125H9.40625V15.9375H7.6875V20.0625H9.40625V24.1875H7.6875V28.3125H11.8125V26.5938H15.9375V28.3125H20.0625V26.5938H24.1875V28.3125H28.3125V24.1875H26.5938V20.0625H28.3125V15.9375H26.5938V11.8125H28.3125ZM25.9062 15.9375H24.1875V17.6562H21.0938V18.3438H24.1875V20.0625H25.9062V24.1875H24.1875V25.9062H20.0625V24.1875H18.3438V21.0938H17.6562V24.1875H15.9375V25.9062H11.8125V24.1875H10.0938V20.0625H11.8125V18.3438H14.9062V17.6562H11.8125V15.9375H10.0938V11.8125H11.8125V10.0938H15.9375V11.8125H17.6562V14.9062H18.3438V11.8125H20.0625V10.0938H24.1875V11.8125H25.9062V15.9375Z" fill="white"/>
</g>
<defs>
<clipPath id="clip0_1485_895">
<rect width="22" height="22" fill="white" transform="translate(7 7)"/>
</clipPath>
</defs>
</svg>
