<svg width="30" height="30" viewBox="0 0 30 30" fill="none" xmlns="http://www.w3.org/2000/svg">
<path fill-rule="evenodd" clip-rule="evenodd" d="M15 0C11.0218 0 7.20644 1.58035 4.3934 4.3934C1.58035 7.20644 0 11.0218 0 15C0 18.9782 1.58035 22.7936 4.3934 25.6066C7.20644 28.4196 11.0218 30 15 30C18.9782 30 22.7936 28.4196 25.6066 25.6066C28.4196 22.7936 30 18.9782 30 15C30 11.0218 28.4196 7.20644 25.6066 4.3934C22.7936 1.58035 18.9782 0 15 0ZM10.7976 10.68L11.6112 11.562L8.6952 14.2452L8.58 14.1192L6.87 12.4476L7.7088 11.5896L8.7288 12.5832L10.7964 10.68H10.7976ZM13.1976 10.8024H22.7976V12.0024H13.1976V10.8024ZM13.1976 13.2024H22.7976V14.4024H13.1976V13.2024ZM10.7976 15.48L11.6112 16.362L8.6952 19.0452L8.58 18.9192L6.87 17.2476L7.7088 16.3896L8.7288 17.3832L10.7964 15.48H10.7976ZM13.1976 15.6024H22.7976V16.8024H13.1976V15.6024ZM13.1976 18.0024H22.7976V19.2024H13.1976V18.0024Z" fill="#595BD4"/>
</svg>
