<svg width="30" height="30" viewBox="0 0 30 30" fill="none" xmlns="http://www.w3.org/2000/svg">
<path d="M15 30C17.9667 30 20.8668 29.1203 23.3335 27.472C25.8003 25.8238 27.7229 23.4811 28.8582 20.7403C29.9935 17.9994 30.2905 14.9834 29.7118 12.0737C29.133 9.16394 27.7044 6.49119 25.6066 4.3934C23.5088 2.29562 20.8361 0.867006 17.9263 0.288228C15.0166 -0.290551 12.0006 0.00649926 9.25974 1.14181C6.51885 2.27713 4.17618 4.19972 2.52796 6.66645C0.879734 9.13319 0 12.0333 0 15C0 18.9783 1.58035 22.7936 4.3934 25.6066C5.78628 26.9995 7.43986 28.1044 9.25974 28.8582C11.0796 29.612 13.0302 30 15 30ZM9.4395 13.9395C9.57872 13.8002 9.74404 13.6896 9.92601 13.6142C10.108 13.5388 10.303 13.5 10.5 13.5C10.697 13.5 10.892 13.5388 11.074 13.6142C11.256 13.6896 11.4213 13.8002 11.5605 13.9395L13.5 15.8789L18.4395 10.9395C18.7224 10.6663 19.1013 10.5151 19.4946 10.5185C19.8879 10.5219 20.2641 10.6797 20.5422 10.9578C20.8203 11.2359 20.9781 11.6121 20.9815 12.0054C20.9849 12.3987 20.8337 12.7776 20.5605 13.0605L14.5605 19.0605C14.4213 19.1998 14.2559 19.3104 14.074 19.3858C13.892 19.4612 13.697 19.5 13.5 19.5C13.303 19.5 13.108 19.4612 12.926 19.3858C12.7441 19.3104 12.5787 19.1998 12.4395 19.0605L9.4395 16.0605C9.30015 15.9213 9.18961 15.756 9.11419 15.574C9.03876 15.392 8.99994 15.197 8.99994 15C8.99994 14.803 9.03876 14.608 9.11419 14.426C9.18961 14.244 9.30015 14.0787 9.4395 13.9395Z" fill="#595BD4"/>
</svg>
