<svg width="36" height="36" viewBox="0 0 36 36" fill="none" xmlns="http://www.w3.org/2000/svg">
<path d="M17.7497 35.4841C27.5525 35.4841 35.4993 27.5407 35.4993 17.7421C35.4993 7.9434 27.5525 0 17.7497 0C7.94679 0 0 7.9434 0 17.7421C0 27.5407 7.94679 35.4841 17.7497 35.4841Z" fill="#239FDB"/>
<path d="M17.0453 35.4487C17.2799 35.4652 17.5147 35.477 17.7496 35.4842C18.1689 35.4844 18.5881 35.4697 19.0063 35.4402C19.5964 35.3986 20.1841 35.3275 20.7671 35.2273C21.3502 35.1266 21.9279 34.9968 22.498 34.8384C23.0679 34.6797 23.6295 34.4925 24.1807 34.2777C24.732 34.0636 25.2723 33.822 25.7995 33.5539C26.3274 33.2855 26.8416 32.9908 27.3401 32.671C27.8379 32.3513 28.3194 32.0069 28.7828 31.6391C29.2465 31.2717 29.6915 30.8814 30.1162 30.4696C30.5408 30.0576 30.9446 29.6246 31.326 29.1723C31.7066 28.7201 32.0645 28.2493 32.3981 27.7614C32.7332 27.2725 33.0436 26.767 33.3282 26.247C33.6116 25.7279 33.869 25.195 34.0992 24.6502C34.329 24.1052 34.5313 23.549 34.7055 22.9838C34.8803 22.419 35.0268 21.8458 35.1443 21.2664C35.2625 20.6869 35.3516 20.1019 35.4113 19.5135C35.4701 18.9249 35.4995 18.3337 35.4993 17.7421C35.4951 17.4926 35.4856 17.2432 35.4709 16.9941L29.8308 11.355H7.09985V25.5061L17.0453 35.4487Z" fill="#0B5ECD"/>
<g clip-path="url(#clip0_125_494)">
<path d="M29.3125 25.625H27.9375C28.1094 25.625 28.2812 25.4531 28.2812 25.2812C28.2812 25.1094 28.1094 24.9375 27.9375 24.9375H23.8125C23.6406 24.9375 23.4688 25.1094 23.4688 25.2812C23.4688 25.4531 23.6406 25.625 23.8125 25.625H22.85C22.6781 25.1438 22.8844 24.7656 23.0562 24.5938C22.5406 23.9406 22.8844 23.3906 23.0562 23.2188C22.5406 22.6 22.8844 22.0156 23.0562 21.8438C22.5406 21.1562 22.8844 20.6406 23.0562 20.4688C22.5406 19.85 22.8844 19.2656 23.0562 19.0938C22.3344 18.2 23.1938 17.3406 23.8125 17.375H24.8438V16.3438C24.8438 12.9406 22.5062 10.0187 19.2062 9.29688C18.9656 9.64062 18.725 9.70938 18.6562 9.74375V10.8438C18.6562 11.0156 18.4844 11.1875 18.3125 11.1875C18.1406 11.1875 17.9688 11.0156 17.9688 10.8438V9.8125H17.2812V12.2188C17.2812 12.3906 17.1094 12.5625 16.9375 12.5625C16.7656 12.5625 16.5938 12.3906 16.5938 12.2188V9.74375C16.5938 9.74375 16.25 9.64062 16.0437 9.29688C12.7437 10.0187 10.4062 12.9406 10.4062 16.3438V20.4C10.4062 22.1187 10.2 23.8719 9.7875 25.625H8.6875C8.51562 25.625 8.34375 25.7969 8.34375 25.9688C8.34375 26.1406 8.51562 26.3125 8.6875 26.3125H29.3125C29.4844 26.3125 29.6562 26.1406 29.6562 25.9688C29.6562 25.7969 29.4844 25.625 29.3125 25.625ZM11.8156 13.3188C12.4688 12.0813 13.5 11.05 14.7031 10.4656C14.875 10.3625 15.0812 10.4656 15.15 10.6031C15.2531 10.775 15.15 10.9813 15.0125 11.05C13.9125 11.6 12.9844 12.4938 12.4 13.6281C12.3312 13.7313 12.125 13.8688 11.9531 13.7656C11.7812 13.7312 11.7469 13.4906 11.8156 13.3188ZM11.2312 14.9344C11.2656 14.7625 11.4375 14.625 11.6094 14.6594C11.8156 14.6937 11.9187 14.8656 11.9187 15.0375C11.9187 15.175 11.85 15.6219 11.8156 15.725C11.7125 16.0688 11.4375 16 11.4375 16C11.2313 15.9656 11.1281 15.7937 11.1281 15.6219C11.1625 15.4844 11.2312 15.0375 11.2312 14.9344ZM12.125 24.9375H11.4375C11.2656 24.9375 11.0938 24.7656 11.0938 24.5938C11.0938 24.4219 11.2656 24.25 11.4375 24.25H12.125C12.2969 24.25 12.4688 24.4219 12.4688 24.5938C12.4688 24.7656 12.2969 24.9375 12.125 24.9375ZM16.25 24.9375H13.5C13.3281 24.9375 13.1562 24.7656 13.1562 24.5938C13.1562 24.4219 13.3281 24.25 13.5 24.25H16.25C16.4219 24.25 16.5938 24.4219 16.5938 24.5938C16.5938 24.7656 16.4219 24.9375 16.25 24.9375ZM17.625 18.0625C18.5875 18.0625 19.3438 18.8188 19.3438 19.7812C19.3438 20.6062 18.7594 21.2938 17.9688 21.4656V22.5312C17.9688 22.7031 17.7969 22.875 17.625 22.875C17.4531 22.875 17.2812 22.7031 17.2812 22.5312V21.4656C16.4906 21.2938 15.9062 20.6062 15.9062 19.7812C15.9062 19.6094 16.0781 19.4375 16.25 19.4375C16.4219 19.4375 16.5938 19.6094 16.5938 19.7812C16.5938 20.3656 17.0406 20.8125 17.625 20.8125C18.2094 20.8125 18.6562 20.3656 18.6562 19.7812C18.6562 19.1969 18.2094 18.75 17.625 18.75C16.6625 18.75 15.9062 17.9937 15.9062 17.0312C15.9062 16.2063 16.4906 15.5188 17.2812 15.3469V14.2812C17.2812 14.1094 17.4531 13.9375 17.625 13.9375C17.7969 13.9375 17.9688 14.1094 17.9688 14.2812V15.3469C18.7594 15.5188 19.3438 16.2063 19.3438 17.0312C19.3438 17.2031 19.1719 17.375 19 17.375C18.8281 17.375 18.6562 17.2031 18.6562 17.0312C18.6562 16.4469 18.2094 16 17.625 16C17.0406 16 16.5938 16.4469 16.5938 17.0312C16.5938 17.6156 17.0406 18.0625 17.625 18.0625Z" fill="white"/>
<path d="M27.9374 23.5625H23.8124C23.6405 23.5625 23.4687 23.7344 23.4687 23.9062C23.4687 24.0781 23.6405 24.25 23.8124 24.25H27.9374C28.1093 24.25 28.2812 24.0781 28.2812 23.9062C28.2812 23.7344 28.1093 23.5625 27.9374 23.5625ZM27.9374 22.1875H23.8124C23.6405 22.1875 23.4687 22.3594 23.4687 22.5312C23.4687 22.7031 23.6405 22.875 23.8124 22.875H27.9374C28.1093 22.875 28.2812 22.7031 28.2812 22.5312C28.2812 22.3594 28.1093 22.1875 27.9374 22.1875ZM27.9374 20.8125H23.8124C23.6405 20.8125 23.4687 20.9844 23.4687 21.1562C23.4687 21.3281 23.6405 21.5 23.8124 21.5H27.9374C28.1093 21.5 28.2812 21.3281 28.2812 21.1562C28.2812 20.9844 28.1093 20.8125 27.9374 20.8125ZM27.9374 19.4375H23.8124C23.6405 19.4375 23.4687 19.6094 23.4687 19.7812C23.4687 19.9531 23.6405 20.125 23.8124 20.125H27.9374C28.1093 20.125 28.2812 19.9531 28.2812 19.7812C28.2812 19.6094 28.1093 19.4375 27.9374 19.4375ZM23.4687 18.4062C23.4687 18.5781 23.6405 18.75 23.8124 18.75H27.9374C28.1093 18.75 28.2812 18.5781 28.2812 18.4062C28.2812 18.2344 28.1093 18.0625 27.9374 18.0625H23.8124C23.6405 18.0625 23.4687 18.2344 23.4687 18.4062ZM17.1093 7.75H18.1405L19.4124 6.03125C19.5155 5.92812 19.4812 5.6875 19.2405 5.6875H16.0093C15.803 5.6875 15.7343 5.89375 15.8374 6.03125L17.1093 7.75ZM16.9374 8.4375C16.7655 8.4375 16.5937 8.60938 16.5937 8.78125C16.5937 8.78125 16.5937 9.125 16.9374 9.125H18.3124C18.6562 9.125 18.6562 8.78125 18.6562 8.78125C18.6562 8.67812 18.6562 8.4375 18.3124 8.4375H16.9374Z" fill="white"/>
</g>
<defs>
<clipPath id="clip0_125_494">
<rect width="22" height="22" fill="white" transform="translate(8 5)"/>
</clipPath>
</defs>
</svg>
