<svg width="36" height="36" viewBox="0 0 36 36" fill="none" xmlns="http://www.w3.org/2000/svg">
<path d="M17.7497 35.4841C27.5525 35.4841 35.4993 27.5407 35.4993 17.7421C35.4993 7.9434 27.5525 0 17.7497 0C7.94679 0 0 7.9434 0 17.7421C0 27.5407 7.94679 35.4841 17.7497 35.4841Z" fill="#239FDB"/>
<path d="M17.0453 35.4487C17.2799 35.4652 17.5147 35.477 17.7497 35.4841C18.1689 35.4843 18.5881 35.4697 19.0063 35.4402C19.5964 35.3986 20.1841 35.3276 20.7671 35.2273C21.3502 35.1266 21.9279 34.9968 22.498 34.8384C23.0679 34.6797 23.6295 34.4926 24.1807 34.2778C24.732 34.0636 25.2723 33.822 25.7995 33.5539C26.3275 33.2855 26.8417 32.9908 27.3401 32.671C27.838 32.3513 28.3195 32.0069 28.7828 31.6392C29.2465 31.2718 29.6915 30.8814 30.1162 30.4696C30.5408 30.0576 30.9446 29.6246 31.326 29.1723C31.7067 28.7202 32.0645 28.2493 32.3981 27.7614C32.7332 27.2725 33.0437 26.767 33.3282 26.247C33.6117 25.7279 33.869 25.195 34.0992 24.6502C34.329 24.1052 34.5313 23.5491 34.7055 22.9839C34.8803 22.4191 35.0268 21.8459 35.1443 21.2664C35.2625 20.6869 35.3516 20.1019 35.4113 19.5135C35.4701 18.9249 35.4995 18.3336 35.4993 17.7421C35.4951 17.4926 35.4856 17.2432 35.4709 16.9941L29.8308 11.355H7.09986V25.5061L17.0453 35.4487Z" fill="#0B5ECD"/>
<path d="M11.3509 24.0278C11.4602 24.0242 11.5659 23.9739 11.6425 23.8949C11.7154 23.8159 11.7555 23.7117 11.7482 23.6004C11.7445 23.4927 11.6972 23.3885 11.617 23.3167C11.5404 23.2449 11.4384 23.209 11.3363 23.209H11.3181C11.2087 23.2126 11.103 23.2628 11.0301 23.3383C10.9536 23.4173 10.9135 23.525 10.9208 23.6363C10.9244 23.8626 11.1176 24.0314 11.3509 24.0278ZM17.6969 15.6279C16.7892 15.6279 16.053 16.3534 16.053 17.244C16.053 18.1346 16.7892 18.86 17.6969 18.86C18.6008 18.86 19.3371 18.1346 19.3371 17.244C19.3371 16.3534 18.6008 15.6279 17.6969 15.6279Z" fill="white"/>
<path d="M29.248 9.14211C29.1933 9.08824 29.1204 9.05951 29.0439 9.05951C28.9673 9.05951 28.8981 9.08824 28.847 9.13852L24.9651 12.8841L23.4196 11.6093C23.3686 11.5662 23.303 11.5446 23.2374 11.5446C23.1572 11.5446 23.077 11.5805 23.0259 11.638L20.6457 14.2775C20.2521 13.8789 19.7928 13.6311 19.2388 13.5377L19.8183 11.243C19.8475 11.1352 19.8074 11.0203 19.7199 10.9593C19.6725 10.9198 19.6106 10.8946 19.5413 10.8946C19.4939 10.8946 19.4465 10.9054 19.4064 10.9269L18.5936 11.3651L17.8026 10.6863C17.7516 10.6432 17.6896 10.6217 17.6022 10.6217C17.5985 10.6217 17.5949 10.6217 17.5912 10.6217C17.5147 10.6289 17.4454 10.6648 17.3907 10.7294L16.9533 11.2825L15.7979 10.8372C15.7651 10.8228 15.7286 10.8192 15.6922 10.8192C15.6193 10.8192 15.55 10.8443 15.4917 10.8982C15.4151 10.9772 15.3896 11.0885 15.4224 11.1819L16.177 13.5485C15.1928 13.7927 14.5112 14.4966 14.0446 15.7392L12.2039 14.3494C12.1565 14.3135 12.0945 14.2919 12.0326 14.2919C11.9524 14.2919 11.8795 14.3242 11.8248 14.3817L6.07661 20.4472C6.02558 20.5047 5.99642 20.5729 6.00006 20.6483C6.00371 20.7238 6.03651 20.792 6.09119 20.8423C6.14222 20.8925 6.21147 20.9177 6.28437 20.9177C6.36456 20.9177 6.43746 20.8854 6.49214 20.8279L6.49943 20.8207V24.9147C6.49943 25.0691 6.627 25.1948 6.78374 25.1948C6.94048 25.1948 7.06805 25.0691 7.06805 24.9147V20.221L10.1044 17.0176V19.395C10.1044 19.5494 10.2319 19.6751 10.3887 19.6751C10.5454 19.6751 10.673 19.5494 10.673 19.395V16.4179L12.0617 14.9491L13.8551 16.303C13.5744 17.2762 13.3812 18.6301 13.2609 20.4365C13.2245 20.4365 13.1917 20.4329 13.1552 20.4329C13.1224 20.4329 13.0896 20.4329 13.0532 20.4365L12.8964 20.4436L12.8928 20.3934C12.8855 20.282 12.8381 20.1779 12.7543 20.1025C12.6704 20.0271 12.5502 19.984 12.4481 19.9912L9.9221 20.0881C9.68882 20.0989 9.50292 20.2964 9.51021 20.5262L9.67424 24.5592C9.68517 24.7854 9.87836 24.965 10.108 24.965H10.1226L12.6449 24.8644C12.8746 24.8572 13.0568 24.6633 13.0568 24.4371L13.8697 24.6777C14.6315 24.9039 15.4188 25.0188 16.2134 25.0188C16.3228 25.0188 16.4357 25.0153 16.5451 25.0117L17.7188 24.965C18.189 24.947 18.6519 24.8034 19.0492 24.5484L22.1803 22.5445C22.4282 22.3829 22.5776 22.1136 22.5776 21.8191C22.5776 21.5749 22.4792 21.3486 22.2969 21.187C22.2095 21.108 22.1074 21.047 21.998 21.0075C22.1366 20.6986 22.2022 20.3646 22.1876 20.0271C22.06 17.3732 21.6955 15.732 21.0102 14.73L23.2702 12.2234L24.699 13.4013V16.7052C24.699 16.8596 24.8266 16.9853 24.9833 16.9853C25.1401 16.9853 25.2676 16.8596 25.2676 16.7052V13.3869L28.18 10.5714V17.0356C28.18 17.19 28.3076 17.3157 28.4643 17.3157C28.621 17.3157 28.7486 17.19 28.7486 17.0356V10.0148L29.2443 9.53714C29.3537 9.42941 29.3573 9.24985 29.248 9.14211ZM10.7677 23.1047C10.9063 22.9539 11.0994 22.8677 11.3036 22.8605C11.5113 22.8498 11.7045 22.9252 11.8576 23.0616C12.0071 23.2017 12.0945 23.3884 12.1018 23.5895V23.629C12.1018 23.8194 12.0289 23.9989 11.8977 24.1354C11.7592 24.2862 11.566 24.3688 11.3619 24.3796H11.3291C10.9208 24.3796 10.5746 24.0564 10.56 23.6506C10.5527 23.4459 10.6292 23.252 10.7677 23.1047ZM21.3347 21.029C21.3274 21.0326 21.3201 21.0326 21.3164 21.0362L18.5353 22.3326C18.4879 22.0022 18.2947 21.7006 17.9995 21.5138C17.8391 21.4097 17.6495 21.3486 17.4564 21.3307L16.1296 21.2122C15.6885 21.1727 15.2657 21.0757 14.8684 20.932C14.7481 20.889 14.6278 20.8423 14.5112 20.7884C14.3544 20.7166 14.205 20.6555 14.0701 20.6052C13.9899 20.5765 13.9061 20.5478 13.8223 20.5262C13.9426 18.6337 14.1467 17.2475 14.4492 16.285C14.8611 14.9671 15.4844 14.2668 16.4139 14.08C16.5415 14.0477 16.6472 13.9687 16.7128 13.861C16.7602 13.7784 16.7784 13.6814 16.7638 13.5988H18.641C18.63 13.6994 18.6556 13.8035 18.7139 13.8825C18.7831 13.9831 18.8961 14.0513 19.0237 14.0728C19.5814 14.1554 20.0261 14.4068 20.3869 14.8485V14.8521L20.4088 14.8809C21.1014 15.7679 21.4841 17.4127 21.608 20.0558C21.6372 20.3898 21.5351 20.7345 21.3347 21.029ZM13.0787 20.9931H13.1516C13.3994 20.9931 13.6437 21.0362 13.8733 21.1224C13.9936 21.1691 14.1321 21.2229 14.2743 21.2912C14.4055 21.3522 14.5403 21.4061 14.6752 21.4564C15.1163 21.618 15.5865 21.7221 16.0785 21.7688L17.4053 21.8873C17.5074 21.8981 17.6094 21.9304 17.6933 21.9843C17.8792 22.1028 17.9885 22.3039 17.9812 22.5086C17.9812 22.5265 17.9776 22.5481 17.9739 22.5696L16.2863 22.6379C16.1296 22.6451 16.0056 22.7743 16.0129 22.9288C16.0202 23.0796 16.1441 23.1981 16.2972 23.1981L18.076 23.1263C18.1489 23.1227 18.2218 23.1011 18.2765 23.0724L18.2801 23.0688L21.557 21.539C21.6007 21.5174 21.6445 21.5066 21.6919 21.5066C21.7721 21.5066 21.845 21.5354 21.9033 21.5892C21.9652 21.6467 22.0017 21.7257 22.0017 21.8119C22.0017 21.916 21.9507 22.0094 21.8632 22.0669L18.7358 24.0708C18.4223 24.2719 18.0614 24.3832 17.6933 24.3976L16.5196 24.4443C16.4212 24.4478 16.3191 24.4514 16.2207 24.4514C15.4771 24.4514 14.7408 24.3437 14.0337 24.1354L13.0349 23.8409L12.9183 21.0003L13.0787 20.9931ZM12.1529 12.3993C11.9013 12.3993 11.6972 12.1982 11.6972 11.9504C11.6972 11.796 11.5696 11.6703 11.4129 11.6703C11.2562 11.6703 11.1286 11.796 11.1286 11.9504C11.1286 12.4101 11.4421 12.7908 11.8685 12.9129V13.1104C11.8685 13.2648 11.9961 13.3905 12.1529 13.3905C12.3096 13.3905 12.4372 13.2648 12.4372 13.1104V12.9165C12.8636 12.7944 13.1771 12.4101 13.1771 11.954C13.1771 11.3974 12.7178 10.9449 12.1529 10.9449C11.9013 10.9449 11.6972 10.7438 11.6972 10.496C11.6972 10.2482 11.9013 10.0471 12.1529 10.0471C12.4044 10.0471 12.6085 10.2482 12.6085 10.496C12.6085 10.6504 12.7361 10.7761 12.8928 10.7761C13.0495 10.7761 13.1771 10.6504 13.1771 10.496C13.1771 10.0363 12.8636 9.65565 12.4372 9.53355V9.33603C12.4372 9.18161 12.3096 9.05592 12.1529 9.05592C11.9961 9.05592 11.8685 9.18161 11.8685 9.33603V9.53355C11.4421 9.65565 11.1286 10.0399 11.1286 10.496C11.1286 11.0526 11.5879 11.5051 12.1529 11.5051C12.4044 11.5051 12.6085 11.7062 12.6085 11.954C12.6085 12.1982 12.4044 12.3993 12.1529 12.3993ZM16.9752 8.93382C16.7237 8.93382 16.5196 8.73271 16.5196 8.48492C16.5196 8.3305 16.392 8.2048 16.2353 8.2048C16.0785 8.2048 15.951 8.3305 15.951 8.48492C15.951 8.94459 16.2644 9.32526 16.6909 9.44736V9.64847C16.6909 9.80289 16.8185 9.92858 16.9752 9.92858C17.1319 9.92858 17.2595 9.80289 17.2595 9.64847V9.45095C17.686 9.32885 17.9995 8.94459 17.9995 8.48851C17.9995 7.93187 17.5402 7.47938 16.9752 7.47938C16.7237 7.47938 16.5196 7.27827 16.5196 7.03048C16.5196 6.78268 16.7237 6.58158 16.9752 6.58158C17.2267 6.58158 17.4308 6.78268 17.4308 7.03048C17.4308 7.1849 17.5584 7.31059 17.7151 7.31059C17.8719 7.31059 17.9995 7.1849 17.9995 7.03048C17.9995 6.5708 17.686 6.19013 17.2595 6.06803V5.87411C17.2595 5.71969 17.1319 5.59399 16.9752 5.59399C16.8185 5.59399 16.6909 5.71969 16.6909 5.87411V6.07162C16.2644 6.19373 15.951 6.57799 15.951 7.03407C15.951 7.59071 16.4102 8.0432 16.9752 8.0432C17.2267 8.0432 17.4308 8.24431 17.4308 8.4921C17.4308 8.7363 17.2267 8.93382 16.9752 8.93382Z" fill="white"/>
<path d="M22.0855 9.78494C21.834 9.78494 21.6299 9.58384 21.6299 9.33604C21.6299 9.18162 21.5023 9.05593 21.3456 9.05593C21.1889 9.05593 21.0613 9.18162 21.0613 9.33604C21.0613 9.79572 21.3748 10.1764 21.8012 10.2985V10.496C21.8012 10.6504 21.9288 10.7761 22.0855 10.7761C22.2423 10.7761 22.3698 10.6504 22.3698 10.496V10.2985C22.7963 10.1764 23.1098 9.79213 23.1098 9.33604C23.1098 8.77941 22.6505 8.32691 22.0855 8.32691C21.834 8.32691 21.6299 8.12581 21.6299 7.87801C21.6299 7.63022 21.834 7.42911 22.0855 7.42911C22.337 7.42911 22.5412 7.63022 22.5412 7.87801C22.5412 8.03243 22.6687 8.15813 22.8255 8.15813C22.9822 8.15813 23.1098 8.03243 23.1098 7.87801C23.1098 7.41834 22.7963 7.03767 22.3698 6.91557V6.72164C22.3698 6.56722 22.2423 6.44153 22.0855 6.44153C21.9288 6.44153 21.8012 6.56722 21.8012 6.72164V6.91916C21.3748 7.04126 21.0613 7.42552 21.0613 7.8816C21.0613 8.43824 21.5206 8.89073 22.0855 8.89073C22.337 8.89073 22.5412 9.09184 22.5412 9.33963C22.5412 9.58384 22.337 9.78494 22.0855 9.78494Z" fill="white"/>
</svg>
