<svg width="30" height="30" viewBox="0 0 30 30" fill="none" xmlns="http://www.w3.org/2000/svg">
<path d="M16.3319 20.76H15.0239V22.164H16.3319V20.76Z" fill="#595BD4"/>
<path d="M10.068 20.76H8.76001V22.164H10.068V20.76Z" fill="#595BD4"/>
<path d="M16.3319 14.232H15.0239V15.636H16.3319V14.232Z" fill="#595BD4"/>
<path d="M22.5961 20.76H21.2881V22.164H22.5961V20.76Z" fill="#595BD4"/>
<path d="M22.5961 14.232H21.2881V15.636H22.5961V14.232Z" fill="#595BD4"/>
<path d="M26.976 4.80002H21.288V3.18002C21.288 3.02089 21.2248 2.86827 21.1123 2.75575C20.9998 2.64323 20.8472 2.58002 20.688 2.58002C20.5299 2.58309 20.379 2.64729 20.2672 2.75915C20.1553 2.87102 20.0911 3.02185 20.088 3.18002V4.80002H15.024V3.38402C15.024 3.22489 14.9608 3.07227 14.8483 2.95975C14.7358 2.84723 14.5832 2.78402 14.424 2.78402C14.2649 2.78402 14.1123 2.84723 13.9998 2.95975C13.8872 3.07227 13.824 3.22489 13.824 3.38402V4.80002H11.676C11.5455 4.63197 11.4053 4.4717 11.256 4.32002C11.1181 4.14353 10.9656 3.97895 10.8 3.82802C10.6474 3.70224 10.4871 3.58602 10.32 3.48002C10.2845 3.47181 10.2476 3.47181 10.212 3.48002C10.0613 3.38299 9.90503 3.29484 9.74403 3.21602C9.5576 3.11982 9.36521 3.03565 9.16803 2.96402C9.00009 2.89945 8.82762 2.8473 8.65203 2.80802C8.53081 2.77142 8.40616 2.74729 8.28003 2.73602H7.95603C7.7482 2.72407 7.53986 2.72407 7.33203 2.73602C5.84515 2.76712 4.42875 3.3757 3.38276 4.4329C2.33676 5.49009 1.7433 6.91289 1.72803 8.40002C1.72766 8.70545 1.75174 9.01043 1.80003 9.31202C1.81636 9.46989 1.84444 9.62632 1.88403 9.78002C1.92498 9.96696 1.97707 10.1513 2.04003 10.332C2.10356 10.5248 2.17972 10.7132 2.26803 10.896C2.32878 11.0355 2.39687 11.1717 2.47203 11.304C2.59662 11.5529 2.74964 11.7864 2.92803 12C3.03603 12.156 3.16803 12.288 3.28803 12.432L3.74403 12.852V27.144C3.74403 27.3032 3.80725 27.4558 3.91977 27.5683C4.03229 27.6808 4.1849 27.744 4.34403 27.744H26.976C27.1352 27.744 27.2878 27.6808 27.4003 27.5683C27.5128 27.4558 27.576 27.3032 27.576 27.144V5.34002C27.5611 5.1915 27.4914 5.05388 27.3804 4.95403C27.2695 4.85418 27.1253 4.79927 26.976 4.80002ZM13.776 6.00002V7.11602C13.7791 7.27419 13.8433 7.42502 13.9552 7.53688C14.067 7.64875 14.2179 7.71294 14.376 7.71602C14.5352 7.71602 14.6878 7.6528 14.8003 7.54028C14.9128 7.42776 14.976 7.27515 14.976 7.11602V6.00002H20.04V7.11602C20.0431 7.27419 20.1073 7.42502 20.2192 7.53688C20.331 7.64875 20.4819 7.71294 20.64 7.71602C20.7992 7.71602 20.9518 7.6528 21.0643 7.54028C21.1768 7.42776 21.24 7.27515 21.24 7.11602V6.00002H26.4V10.416H12.588C12.8285 9.77119 12.9505 9.08822 12.948 8.40002C12.96 8.18819 12.96 7.97585 12.948 7.76402C12.9037 7.30539 12.8029 6.85398 12.648 6.42002C12.5872 6.27456 12.515 6.13412 12.432 6.00002H13.776ZM11.268 20.16V22.8C11.268 22.9591 11.2048 23.1118 11.0923 23.2243C10.9798 23.3368 10.8272 23.4 10.668 23.4H8.16003C8.0009 23.4 7.84829 23.3368 7.73577 23.2243C7.62325 23.1118 7.56003 22.9591 7.56003 22.8V20.16C7.56003 20.0009 7.62325 19.8483 7.73577 19.7358C7.84829 19.6232 8.0009 19.56 8.16003 19.56H10.668C10.8272 19.56 10.9798 19.6232 11.0923 19.7358C11.2048 19.8483 11.268 20.0009 11.268 20.16ZM14.4 19.56H16.908C17.0672 19.56 17.2198 19.6232 17.3323 19.7358C17.4448 19.8483 17.508 20.0009 17.508 20.16V22.8C17.508 22.9591 17.4448 23.1118 17.3323 23.2243C17.2198 23.3368 17.0672 23.4 16.908 23.4H14.4C14.2409 23.4 14.0883 23.3368 13.9758 23.2243C13.8632 23.1118 13.8 22.9591 13.8 22.8V20.16C13.8 20.0009 13.8632 19.8483 13.9758 19.7358C14.0883 19.6232 14.2409 19.56 14.4 19.56ZM13.8 16.236V13.632C13.8 13.4729 13.8632 13.3203 13.9758 13.2078C14.0883 13.0952 14.2409 13.032 14.4 13.032H16.908C17.0672 13.032 17.2198 13.0952 17.3323 13.2078C17.4448 13.3203 17.508 13.4729 17.508 13.632V16.236C17.508 16.3951 17.4448 16.5478 17.3323 16.6603C17.2198 16.7728 17.0672 16.836 16.908 16.836H14.4C14.2451 16.8298 14.0986 16.7639 13.9912 16.652C13.8838 16.5402 13.8239 16.3911 13.824 16.236H13.8ZM20.088 22.8V20.16C20.088 20.0009 20.1512 19.8483 20.2638 19.7358C20.3763 19.6232 20.5289 19.56 20.688 19.56H23.196C23.3552 19.56 23.5078 19.6232 23.6203 19.7358C23.7328 19.8483 23.796 20.0009 23.796 20.16V22.8C23.796 22.9591 23.7328 23.1118 23.6203 23.2243C23.5078 23.3368 23.3552 23.4 23.196 23.4H20.688C20.5289 23.4 20.3763 23.3368 20.2638 23.2243C20.1512 23.1118 20.088 22.9591 20.088 22.8ZM23.796 16.272C23.796 16.4311 23.7328 16.5838 23.6203 16.6963C23.5078 16.8088 23.3552 16.872 23.196 16.872H20.688C20.5289 16.872 20.3763 16.8088 20.2638 16.6963C20.1512 16.5838 20.088 16.4311 20.088 16.272V13.632C20.088 13.4729 20.1512 13.3203 20.2638 13.2078C20.3763 13.0952 20.5289 13.032 20.688 13.032H23.196C23.3552 13.032 23.5078 13.0952 23.6203 13.2078C23.7328 13.3203 23.796 13.4729 23.796 13.632V16.272ZM2.92803 8.40002C2.90224 7.20416 3.35108 6.04676 4.1764 5.18097C5.00171 4.31518 6.13631 3.81147 7.33203 3.78002C8.04236 3.77948 8.74198 3.95313 9.3696 4.28578C9.99722 4.61842 10.5337 5.09989 10.932 5.68802C11.4266 6.41782 11.7106 7.26973 11.753 8.15032C11.7953 9.0309 11.5943 9.90613 11.172 10.68C10.7952 11.3572 10.2459 11.9225 9.5799 12.3188C8.9139 12.715 8.15493 12.9279 7.38003 12.936C6.45494 12.9596 5.54797 12.6769 4.80003 12.132C4.21694 11.7006 3.74362 11.1379 3.4184 10.4895C3.09318 9.84119 2.92519 9.12536 2.92803 8.40002Z" fill="#595BD4"/>
<path d="M8.40003 10.224C8.49389 10.2812 8.60215 10.3103 8.71203 10.308C8.8404 10.3051 8.96447 10.2612 9.066 10.1826C9.16753 10.104 9.24117 9.99488 9.27609 9.87131C9.31101 9.74775 9.30537 9.61624 9.26 9.49612C9.21463 9.37601 9.13192 9.27361 9.02403 9.20399L7.98003 8.55599V5.33999C7.98003 5.18086 7.91682 5.02825 7.80429 4.91573C7.69177 4.8032 7.53916 4.73999 7.38003 4.73999C7.2209 4.73999 7.06829 4.8032 6.95577 4.91573C6.84324 5.02825 6.78003 5.18086 6.78003 5.33999V8.93999C6.78033 9.04174 6.80702 9.14167 6.8575 9.23001C6.90798 9.31835 6.98052 9.39208 7.06803 9.44399L8.40003 10.224Z" fill="#595BD4"/>
</svg>
