<svg width="36" height="36" viewBox="0 0 36 36" fill="none" xmlns="http://www.w3.org/2000/svg">
<path d="M17.7497 35.6506C27.5525 35.6506 35.4993 27.7072 35.4993 17.9086C35.4993 8.1099 27.5525 0.166504 17.7497 0.166504C7.94679 0.166504 0 8.1099 0 17.9086C0 27.7072 7.94679 35.6506 17.7497 35.6506Z" fill="#239FDB"/>
<path d="M17.0451 35.6152C17.2796 35.6317 17.5144 35.6435 17.7494 35.6507C18.1687 35.6509 18.5878 35.6362 19.0061 35.6067C19.5962 35.5651 20.1838 35.4941 20.7668 35.3938C21.35 35.2931 21.9277 35.1633 22.4978 35.0049C23.0677 34.8462 23.6293 34.659 24.1805 34.4442C24.7318 34.2301 25.272 33.9885 25.7992 33.7204C26.3272 33.452 26.8414 33.1573 27.3399 32.8375C27.8377 32.5178 28.3192 32.1734 28.7826 31.8056C29.2463 31.4382 29.6913 31.0479 30.1159 30.6361C30.5406 30.2241 30.9444 29.7911 31.3258 29.3388C31.7064 28.8866 32.0642 28.4158 32.3978 27.9279C32.733 27.439 33.0434 26.9335 33.3279 26.4135C33.6114 25.8944 33.8687 25.3615 34.099 24.8167C34.3287 24.2717 34.5311 23.7155 34.7053 23.1503C34.8801 22.5855 35.0265 22.0123 35.1441 21.4329C35.2622 20.8534 35.3513 20.2684 35.411 19.68C35.4699 19.0914 35.4993 18.5002 35.4991 17.9086C35.4949 17.6591 35.4854 17.4097 35.4707 17.1606L29.8305 11.5215H7.09961V25.6726L17.0451 35.6152Z" fill="#0B5ECD"/>
<path d="M9.05094 26.1411H5.2068C5.13191 26.1411 5.07129 26.0834 5.07129 26.0155V19.5672C5.07129 19.4959 5.13191 19.4382 5.2068 19.4382H9.05094C9.12583 19.4382 9.18645 19.4959 9.18645 19.5672V26.0155C9.18288 26.0834 9.12583 26.1411 9.05094 26.1411Z" stroke="white" stroke-miterlimit="10" stroke-linecap="round" stroke-linejoin="round"/>
<path d="M9.18311 20.1305C12.1643 19.9642 14.6426 19.9812 16.1118 21.4541H19.1643C19.7634 21.4541 20.2484 21.9157 20.2484 22.4859C20.2484 23.056 19.7634 23.5176 19.1643 23.5176H13.8439" stroke="white" stroke-miterlimit="10" stroke-linecap="round" stroke-linejoin="round"/>
<path d="M9.18311 25.211L16.4221 26.9385C17.1995 27.1252 18.0232 27.0335 18.7328 26.6806L27.3697 22.4213C28.5322 21.7866 27.7227 20.1779 25.2729 21.0366L20.1557 22.8964" stroke="white" stroke-miterlimit="10" stroke-linecap="round" stroke-linejoin="round"/>
<path d="M17.3096 15.6505H19.089" stroke="white" stroke-miterlimit="10" stroke-linecap="round" stroke-linejoin="round"/>
<path d="M18.5256 17.6089L17.3096 16.4041H17.766C18.2153 16.4041 18.5826 16.0579 18.5826 15.6269C18.5826 15.1992 18.2189 14.8497 17.766 14.8497H17.3096H19.0854" stroke="white" stroke-miterlimit="10" stroke-linecap="round" stroke-linejoin="round"/>
<path d="M11.3296 19.3056H25.0694" stroke="white" stroke-miterlimit="10" stroke-linecap="round" stroke-linejoin="round"/>
<path d="M15.1309 19.3023V17.3882" stroke="white" stroke-miterlimit="10" stroke-linecap="round" stroke-linejoin="round"/>
<path d="M12.9912 19.3024V11.8121H11.9678L14.1038 9.77582L16.2612 11.8291H15.1308V14.629" stroke="white" stroke-miterlimit="10" stroke-linecap="round" stroke-linejoin="round"/>
<path d="M21.25 14.3099V11.7883H20.2266L22.3305 9.79266L24.4237 11.7849H23.4074V19.3023" stroke="white" stroke-miterlimit="10" stroke-linecap="round" stroke-linejoin="round"/>
<path d="M21.25 19.3034V17.7039" stroke="white" stroke-miterlimit="10" stroke-linecap="round" stroke-linejoin="round"/>
<path d="M18.2834 19.3058C20.1957 19.3058 21.746 17.8304 21.746 16.0103C21.746 14.1903 20.1957 12.7149 18.2834 12.7149C16.3711 12.7149 14.8208 14.1903 14.8208 16.0103C14.8208 17.8304 16.3711 19.3058 18.2834 19.3058Z" stroke="white" stroke-miterlimit="10" stroke-linecap="round" stroke-linejoin="round"/>
<path d="M17.1099 12.9083V8.32316H16.0508L18.2296 6.24951L20.4013 8.31298H19.2423V12.8404" stroke="white" stroke-miterlimit="10" stroke-linecap="round" stroke-linejoin="round"/>
<path d="M18.2831 18.3147C19.6204 18.3147 20.7044 17.283 20.7044 16.0103C20.7044 14.7376 19.6204 13.7059 18.2831 13.7059C16.9459 13.7059 15.8618 14.7376 15.8618 16.0103C15.8618 17.283 16.9459 18.3147 18.2831 18.3147Z" stroke="white" stroke-miterlimit="10" stroke-linecap="round" stroke-linejoin="round"/>
</svg>
