<svg width="20" height="20" viewBox="0 0 20 20" fill="none" xmlns="http://www.w3.org/2000/svg">
<path d="M19.9999 6.4C19.9994 5.9758 19.8372 5.56912 19.5488 5.26917C19.2604 4.96921 18.8693 4.80049 18.4614 4.8H15.3845V1.6C15.3841 1.1758 15.2218 0.769118 14.9334 0.469165C14.645 0.169212 14.254 0.000485138 13.8461 0H1.53845C1.13057 0.000485138 0.739533 0.169212 0.451118 0.469165C0.162703 0.769118 0.000466477 1.1758 3.03697e-10 1.6V14.4C-4.07998e-06 14.551 0.0411068 14.699 0.118577 14.8268C0.196048 14.9545 0.306713 15.0568 0.437771 15.1219C0.568829 15.187 0.714925 15.2122 0.859159 15.1945C1.00339 15.1768 1.13987 15.1171 1.25281 15.0221L4.61536 12.195L4.61546 15.2C4.61592 15.6242 4.77816 16.0309 5.06658 16.3308C5.35499 16.6308 5.74603 16.7995 6.15391 16.8H15.1527L18.7472 19.8221C18.8601 19.9171 18.9966 19.9768 19.1408 19.9945C19.2851 20.0122 19.4312 19.987 19.5622 19.9219C19.6933 19.8568 19.8039 19.7545 19.8814 19.6268C19.9589 19.499 20 19.351 20 19.2L19.9999 6.4ZM15.9083 15.3779C15.7714 15.2628 15.6007 15.2 15.4247 15.2H6.15391L6.15382 12H13.8461C14.254 11.9995 14.645 11.8308 14.9334 11.5308C15.2218 11.2309 15.3841 10.8242 15.3845 10.4V6.4H18.4614L18.4615 17.5245L15.9083 15.3779Z" fill="#ffff"/>
</svg>
