<svg width="17" height="18" viewBox="0 0 17 18" fill="none" xmlns="http://www.w3.org/2000/svg">
<g clip-path="url(#clip0_2_193)">
<path d="M0.166016 14.7358H1.31685C1.31685 14.6996 1.31665 9.26184 1.31685 9.59827H0.166016V14.7358ZM16.7088 12.9893C16.7081 12.9883 16.7074 12.9874 16.7066 12.9863C16.2293 12.2379 15.3832 13.0448 11.9344 14.0336C11.4587 14.2548 11.5306 14.1152 6.63216 14.1587C6.43203 14.1587 6.26978 13.9869 6.26978 13.775C6.26978 13.5631 6.43203 13.3913 6.63216 13.3913H11.3772C12.2269 13.3913 12.2844 12.0299 11.3496 11.9776H9.27265C8.45202 11.9776 7.72761 11.5667 7.26614 10.9376C6.91986 10.4655 6.39718 10.1946 5.83222 10.1946C2.8042 10.1933 2.15111 10.1929 2.0554 10.1929C2.05801 10.1929 2.06096 10.1929 2.06387 10.1929C2.05715 10.1929 2.05052 10.1929 2.04161 10.1929V14.2865L7.03966 16.9879C8.08944 17.5559 9.35582 17.608 10.4426 17.129C12.2288 16.3425 15.3922 14.8997 16.5134 14.072C16.8432 13.8307 16.9317 13.3479 16.712 12.9944C16.7109 12.9926 16.7097 12.991 16.7088 12.9893ZM16.5005 0.545654C16.3165 0.545654 16.1672 0.703684 16.1672 0.898596V1.95828C16.1672 2.15319 16.3165 2.31122 16.5005 2.31122C16.6846 2.31122 16.8339 2.15319 16.8339 1.95828V0.898596C16.8339 0.703687 16.6846 0.545654 16.5005 0.545654ZM13.2226 1.93381C13.4066 1.93381 13.5559 1.77578 13.5559 1.58087V0.898596C13.5559 0.703684 13.4066 0.545654 13.2226 0.545654C13.0385 0.545654 12.8892 0.703684 12.8892 0.898596V1.58087C12.8892 1.77578 13.0385 1.93381 13.2226 1.93381ZM9.94472 6.65475C10.1288 6.65475 10.2781 6.49672 10.2781 6.3018V3.87102C10.2781 3.67611 10.1288 3.51808 9.94472 3.51808C9.76064 3.51808 9.61139 3.67611 9.61139 3.87102V6.3018C9.61139 6.49671 9.76064 6.65475 9.94472 6.65475ZM16.5005 2.85408C16.3165 2.85408 16.1672 3.01211 16.1672 3.20702V6.3018C16.1672 6.49671 16.3165 6.65474 16.5005 6.65474C16.6846 6.65474 16.8339 6.49671 16.8339 6.3018V3.20702C16.8339 3.01211 16.6846 2.85408 16.5005 2.85408ZM13.2226 5.21506C13.4066 5.21506 13.5559 5.05703 13.5559 4.86212V2.82961C13.5559 2.6347 13.4066 2.47667 13.2226 2.47667C13.0385 2.47667 12.8892 2.6347 12.8892 2.82961V4.86212C12.8892 5.05703 13.0385 5.21506 13.2226 5.21506ZM9.94472 2.9754C10.1288 2.9754 10.2781 2.81737 10.2781 2.62246V0.898596C10.2781 0.703684 10.1288 0.545654 9.94472 0.545654C9.76064 0.545654 9.61139 0.703684 9.61139 0.898596V2.62246C9.61139 2.81737 9.76064 2.9754 9.94472 2.9754ZM5.22514 8.74133C7.06513 8.74133 8.55847 7.16014 8.55847 5.21192C8.55847 3.26721 7.06513 1.6825 5.22514 1.6825C3.38847 1.6825 1.89181 3.26721 1.89181 5.21192C1.89181 7.16014 3.38847 8.74133 5.22514 8.74133ZM4.20172 5.16508H4.59707C4.52873 4.83293 4.27637 4.25787 4.73916 3.85258C5.08269 3.55174 5.64236 3.55646 6.05915 3.73919C6.1415 3.774 6.18268 3.83225 6.18268 3.91359C6.18268 4.02843 6.09147 4.13532 5.93138 4.07938C5.64495 3.98153 5.19155 3.93822 4.98623 4.14038C4.76392 4.35887 4.82465 4.60944 4.98428 5.16508H5.71312C5.7684 5.16508 5.80784 5.20687 5.80784 5.26538C5.80784 5.32482 5.76728 5.3612 5.71312 5.3612H5.02545C5.07123 5.60571 5.03148 5.91503 4.86888 6.1853C5.06366 6.1877 5.02337 6.15224 5.39606 6.2725C5.621 6.35778 5.80835 6.39998 6.04254 6.3118C6.09999 6.29172 6.16146 6.27729 6.22792 6.34454C6.29739 6.41518 6.30487 6.55257 6.18268 6.62579C5.85456 6.81693 5.58327 6.7428 5.33844 6.6475C5.03643 6.52243 4.76845 6.48895 4.48183 6.69559C4.41302 6.74847 4.33337 6.73862 4.28001 6.68456C4.20931 6.61331 4.22638 6.5027 4.29238 6.4426C4.5658 6.16845 4.73777 5.76478 4.64655 5.3612H4.20172C4.14664 5.3612 4.11123 5.32375 4.11123 5.26538C4.11123 5.20866 4.14526 5.16508 4.20172 5.16508Z" fill="#020F33"/>
<path d="M9.79848 11.2718H11.3852C12.2522 11.321 12.9108 12.1823 12.6552 13.0824C13.4085 12.8424 14.0085 12.6236 14.4818 12.4506C15.2751 12.1612 15.7551 11.9883 16.1852 11.9883C16.2351 11.9883 16.2852 11.9918 16.3318 11.9989C16.6585 11.413 16.8318 10.746 16.8318 10.0577C16.8318 7.95064 15.2118 6.23535 13.2218 6.23535C11.2318 6.23535 9.61182 7.95064 9.61182 10.0577C9.61182 10.4777 9.67515 10.8836 9.79848 11.2718ZM12.1652 8.6883C12.2555 8.60066 12.404 8.5959 12.4918 8.75536L13.2218 10.1142L13.9552 8.75536C14.0345 8.60025 14.189 8.59822 14.2818 8.6883C14.3487 8.75323 14.357 8.87025 14.3052 8.95654L13.5952 10.1848H14.0085C14.0932 10.1848 14.1652 10.25 14.1652 10.3542C14.1652 10.4533 14.1028 10.5201 14.0085 10.5201H13.4118V10.9295H14.0085C14.0932 10.9295 14.1652 10.9948 14.1652 11.0989C14.1652 11.1982 14.1026 11.2648 14.0085 11.2648H13.4118V11.6459C13.4118 11.7678 13.3227 11.8471 13.2218 11.8471C13.1155 11.8471 13.0318 11.7591 13.0318 11.6459V11.2648H12.4352C12.3369 11.2648 12.2785 11.1924 12.2785 11.0989C12.2785 11.008 12.3399 10.9295 12.4352 10.9295H13.0318V10.5201H12.4352C12.3369 10.5201 12.2785 10.4476 12.2785 10.3542C12.2785 10.2632 12.34 10.1848 12.4352 10.1848H12.8518L12.1385 8.95654C12.0868 8.87056 12.0941 8.75731 12.1652 8.6883Z" fill="#020F33"/>
</g>
<defs>
<clipPath id="clip0_2_193">
<rect width="17" height="18" fill="white"/>
</clipPath>
</defs>
</svg>
