<svg width="15" height="18" viewBox="0 0 15 18" fill="none" xmlns="http://www.w3.org/2000/svg">
<path d="M7.66289 4.15279C7.61927 4.10597 7.56124 4.07983 7.50088 4.07983C7.44052 4.07983 7.38248 4.10597 7.33887 4.15279L1.94531 9.93498C1.92241 9.95957 1.90418 9.98911 1.89175 10.0218C1.87931 10.0546 1.87291 10.0898 1.87295 10.1253L1.87207 15.5521C1.87207 15.8311 1.97084 16.0987 2.14666 16.296C2.32247 16.4934 2.56093 16.6042 2.80957 16.6042H5.625C5.74932 16.6042 5.86855 16.5488 5.95645 16.4501C6.04436 16.3515 6.09375 16.2177 6.09375 16.0782V11.6068C6.09375 11.537 6.11844 11.4701 6.1624 11.4208C6.20635 11.3715 6.26596 11.3438 6.32812 11.3438H8.67187C8.73403 11.3438 8.79365 11.3715 8.8376 11.4208C8.88155 11.4701 8.90625 11.537 8.90625 11.6068V16.0782C8.90625 16.2177 8.95563 16.3515 9.04354 16.4501C9.13145 16.5488 9.25068 16.6042 9.375 16.6042H12.1893C12.4379 16.6042 12.6764 16.4934 12.8522 16.296C13.028 16.0987 13.1268 15.8311 13.1268 15.5521V10.1253C13.1268 10.0898 13.1204 10.0546 13.108 10.0218C13.0955 9.98911 13.0773 9.95957 13.0544 9.93498L7.66289 4.15279Z" fill="#020F33"/>
<path d="M14.3821 8.85047L12.1907 6.49775V2.92757C12.1907 2.78806 12.1413 2.65426 12.0534 2.5556C11.9655 2.45695 11.8463 2.40153 11.722 2.40153H10.3157C10.1914 2.40153 10.0722 2.45695 9.98427 2.5556C9.89637 2.65426 9.84698 2.78806 9.84698 2.92757V3.97966L8.15011 2.15889C7.99132 1.97872 7.75518 1.87549 7.50001 1.87549C7.24571 1.87549 7.01016 1.97872 6.85138 2.15922L0.619933 8.84982C0.437706 9.04708 0.414855 9.37158 0.580675 9.58529C0.622315 9.63923 0.6733 9.6831 0.730528 9.71423C0.787756 9.74535 0.850029 9.76309 0.913558 9.76635C0.977087 9.76961 1.04054 9.75833 1.10006 9.73319C1.15958 9.70806 1.21392 9.66959 1.25978 9.62014L7.33888 3.10117C7.38249 3.05434 7.44053 3.02821 7.50089 3.02821C7.56125 3.02821 7.61928 3.05434 7.6629 3.10117L13.7426 9.62014C13.8321 9.71652 13.9521 9.76912 14.0762 9.76641C14.2002 9.7637 14.3183 9.70589 14.4044 9.60567C14.5843 9.39657 14.5693 9.05136 14.3821 8.85047Z" fill="#020F33"/>
</svg>
