<svg width="16" height="16" viewBox="0 0 16 16" fill="none" xmlns="http://www.w3.org/2000/svg">
<path d="M15.2502 2.00313C15.251 2.17641 15.2242 2.34816 15.1712 2.5083C15.1182 2.66843 15.0402 2.81374 14.9417 2.93569C14.8432 3.05764 14.7262 3.15379 14.5976 3.21849C14.469 3.2832 14.3313 3.31516 14.1927 3.3125H10.7502V1.4375C10.7506 1.27189 10.8034 1.1132 10.8971 0.996093C10.9908 0.878987 11.1177 0.812984 11.2502 0.8125H14.2502C14.2903 0.812516 14.3304 0.815647 14.3702 0.821875C14.6049 0.856965 14.8221 0.994873 14.9832 1.21112C15.1443 1.42737 15.2389 1.70797 15.2502 2.00313ZM5.25022 1.4375V3.3125H1.80772C1.62356 3.31191 1.44259 3.25245 1.282 3.13978C1.1214 3.0271 0.98654 2.86495 0.890222 2.66875C0.789485 2.47038 0.740562 2.23778 0.750222 2.00313C0.762593 1.68207 0.873367 1.37929 1.05956 1.1576C1.24576 0.935915 1.49308 0.812334 1.75022 0.8125H4.75022C4.88271 0.812981 5.00967 0.878983 5.10335 0.996089C5.19704 1.1132 5.24984 1.27189 5.25022 1.4375Z" fill="#2D2531"/>
<path d="M15.25 2.0625V13.625C15.2499 14.0394 15.1181 14.4367 14.8838 14.7297C14.6494 15.0227 14.3315 15.1874 14 15.1875H2C1.8358 15.1877 1.67317 15.1475 1.52143 15.069C1.36969 14.9906 1.23181 14.8755 1.1157 14.7304C0.999593 14.5852 0.907525 14.4129 0.844773 14.2232C0.78202 14.0335 0.749815 13.8303 0.750001 13.625V2.0625C0.750205 2.39394 0.855628 2.71174 1.04312 2.9461C1.23061 3.18047 1.48485 3.31224 1.75 3.3125H14.25C14.3344 3.31345 14.4186 3.29978 14.5 3.27188C14.7147 3.20305 14.905 3.04682 15.0408 2.82783C15.1766 2.60885 15.2502 2.33958 15.25 2.0625Z" fill="white"/>
<path opacity="0.2" d="M14.5 3.27185V13C14.4999 13.4143 14.3681 13.8117 14.1338 14.1047C13.8994 14.3977 13.5815 14.5623 13.25 14.5625H1.25C1.15833 14.5627 1.06693 14.5501 0.9775 14.525C0.829679 14.2612 0.750262 13.947 0.75 13.625V2.64685C0.792508 2.66206 0.836012 2.67252 0.88 2.6781C0.967278 2.87046 1.09376 3.03049 1.24657 3.14192C1.39939 3.25335 1.57309 3.3122 1.75 3.31248H14.25C14.3344 3.31342 14.4186 3.29975 14.5 3.27185Z" fill="white"/>
<path d="M11.5 5.5H8.75C8.47386 5.5 8.25 5.77982 8.25 6.125V9.5625C8.25 9.90768 8.47386 10.1875 8.75 10.1875H11.5C11.7761 10.1875 12 9.90768 12 9.5625V6.125C12 5.77982 11.7761 5.5 11.5 5.5Z" fill="white"/>
<path opacity="0.2" d="M11.25 5.5V8.9375C11.2496 9.10311 11.1968 9.2618 11.1031 9.37891C11.0094 9.49601 10.8825 9.56202 10.75 9.5625H8.25V6.125C8.25039 5.95939 8.30319 5.8007 8.39687 5.68359C8.49056 5.56649 8.61751 5.50048 8.75 5.5H11.25Z" fill="white"/>
<path d="M9 8.3125H6.25C5.97386 8.3125 5.75 8.59232 5.75 8.9375V12.375C5.75 12.7202 5.97386 13 6.25 13H9C9.27614 13 9.5 12.7202 9.5 12.375V8.9375C9.5 8.59232 9.27614 8.3125 9 8.3125Z" fill="white"/>
<path opacity="0.2" d="M8.75 8.3125V11.75C8.74961 11.9156 8.69681 12.0743 8.60313 12.1914C8.50944 12.3085 8.38249 12.3745 8.25 12.375H5.75V8.9375C5.75039 8.77189 5.80319 8.6132 5.89687 8.49609C5.99056 8.37899 6.11751 8.31298 6.25 8.3125H8.75Z" fill="white"/>
<path d="M6.5 5.5H3.75C3.47386 5.5 3.25 5.77982 3.25 6.125V9.5625C3.25 9.90768 3.47386 10.1875 3.75 10.1875H6.5C6.77614 10.1875 7 9.90768 7 9.5625V6.125C7 5.77982 6.77614 5.5 6.5 5.5Z" fill="white"/>
<path opacity="0.2" d="M14.4998 1.37813C14.5006 1.55141 14.4737 1.72316 14.4207 1.8833C14.3677 2.04343 14.2897 2.18874 14.1912 2.31069C14.0927 2.43264 13.9758 2.52879 13.8471 2.59349C13.7185 2.6582 13.5809 2.69016 13.4423 2.6875H10.7498V1.4375C10.7502 1.27189 10.803 1.1132 10.8967 0.996093C10.9903 0.878987 11.1173 0.812984 11.2498 0.8125H14.2498C14.2899 0.812516 14.33 0.815647 14.3698 0.821875C14.4476 0.991856 14.4922 1.18248 14.4998 1.37813ZM4.49978 0.8125V2.6875H1.05727C1.0011 2.6876 0.945039 2.68132 0.889775 2.66875C0.8035 2.48025 0.758333 2.26673 0.758793 2.04956C0.759252 1.83238 0.805321 1.61917 0.892393 1.43124C0.979464 1.24331 1.10448 1.08725 1.25495 0.978669C1.40542 0.87009 1.57605 0.812798 1.74979 0.812525L4.49978 0.8125ZM6.24977 5.5V8.9375C6.24939 9.10311 6.19659 9.2618 6.1029 9.37891C6.00922 9.49601 5.88226 9.56202 5.74977 9.5625H3.24977V6.125C3.25016 5.95939 3.30296 5.8007 3.39665 5.68359C3.49033 5.56649 3.61729 5.50048 3.74977 5.5H6.24977Z" fill="white"/>
<path d="M15.4987 1.99077C15.4812 1.59069 15.3422 1.21401 15.1102 0.937564C14.8782 0.661115 14.5705 0.505714 14.25 0.503052H11.25C11.0512 0.503323 10.8605 0.602182 10.7199 0.777939C10.5793 0.953695 10.5002 1.19199 10.5 1.44055V3.00305H5.5V1.44055C5.49978 1.19199 5.4207 0.953695 5.28009 0.777939C5.13948 0.602182 4.94885 0.503323 4.75 0.503052H1.75C1.41923 0.506097 1.1027 0.671697 0.86881 0.964069C0.634917 1.25644 0.502444 1.65211 0.500015 2.06557L0.5 13.628C0.500435 14.1252 0.65861 14.6017 0.93982 14.9533C1.22103 15.3048 1.60231 15.5025 2 15.503H14C14.3977 15.5025 14.779 15.3048 15.0602 14.9533C15.3414 14.6017 15.4996 14.1252 15.5 13.628C15.4987 13.5532 15.5024 2.05755 15.4987 1.99077ZM11 1.44054C11.0001 1.35768 11.0264 1.27824 11.0733 1.21966C11.1202 1.16107 11.1837 1.12812 11.25 1.12804H14.25C14.3937 1.12834 14.5341 1.18086 14.6543 1.27919C14.7745 1.37752 14.8693 1.51742 14.927 1.68185C14.9847 1.84628 15.0029 2.02814 14.9794 2.20528C14.9559 2.38243 14.8917 2.54721 14.7947 2.67956C14.7171 2.7813 14.6238 2.8624 14.5205 2.91799C14.4173 2.97358 14.3061 3.0025 14.1936 3.00304H11V1.44054ZM1.21802 1.40361C1.35924 1.22748 1.55051 1.1284 1.75 1.12804H4.75C4.81628 1.12812 4.87983 1.16107 4.9267 1.21966C4.97357 1.27824 4.99993 1.35768 5 1.44054V3.00304H1.8064C1.14773 3.02638 0.723407 2.00368 1.21802 1.40361ZM15 13.628C14.9997 13.9594 14.8943 14.2772 14.7068 14.5115C14.5193 14.7459 14.2651 14.8777 14 14.878H2C1.73487 14.8777 1.48068 14.7459 1.29321 14.5115C1.10573 14.2772 1.00028 13.9594 1 13.628V3.31491C1.2161 3.51847 1.47941 3.6284 1.75 3.62804H14.25C14.5206 3.6284 14.7839 3.51847 15 3.31491V13.628Z" fill="#020F33"/>
<path d="M11.5 5.19055H8.75C8.55115 5.19082 8.36052 5.28968 8.21991 5.46544C8.0793 5.6412 8.00022 5.87949 8 6.12805V8.00305H7.25V6.12805C7.24978 5.87949 7.1707 5.6412 7.03009 5.46544C6.88949 5.28968 6.69885 5.19082 6.5 5.19055H3.75C3.55115 5.19082 3.36051 5.28968 3.21991 5.46544C3.0793 5.6412 3.00022 5.87949 3 6.12805V9.56555C3.00022 9.81411 3.0793 10.0524 3.21991 10.2282C3.36051 10.4039 3.55115 10.5028 3.75 10.5031H5.5V12.3781C5.50022 12.6266 5.5793 12.8649 5.71991 13.0407C5.86051 13.2164 6.05115 13.3153 6.25 13.3156H9C9.19885 13.3153 9.38948 13.2164 9.53009 13.0407C9.6707 12.8649 9.74978 12.6266 9.75 12.3781V10.5031H11.5C11.6988 10.5028 11.8895 10.4039 12.0301 10.2282C12.1707 10.0524 12.2498 9.81411 12.25 9.56555V6.12805C12.2498 5.87949 12.1707 5.6412 12.0301 5.46544C11.8895 5.28968 11.6988 5.19082 11.5 5.19055ZM3.5 9.56555V6.12805C3.50007 6.0452 3.52643 5.96576 3.5733 5.90717C3.62017 5.84859 3.68372 5.81563 3.75 5.81555H6.5C6.56628 5.81563 6.62983 5.84859 6.6767 5.90717C6.72357 5.96576 6.74993 6.0452 6.75 6.12805V9.56555C6.74993 9.64841 6.72357 9.72784 6.6767 9.78643C6.62983 9.84502 6.56628 9.87797 6.5 9.87805H3.75C3.68372 9.87797 3.62017 9.84502 3.5733 9.78643C3.52643 9.72784 3.50007 9.64841 3.5 9.56555ZM9.25 12.3781C9.24993 12.4609 9.22357 12.5403 9.1767 12.5989C9.12983 12.6575 9.06628 12.6905 9 12.6906H6.25C6.18372 12.6905 6.12017 12.6575 6.0733 12.5989C6.02643 12.5403 6.00007 12.4609 6 12.3781V10.5031H6.5C6.69885 10.5028 6.88949 10.4039 7.03009 10.2282C7.1707 10.0524 7.24978 9.81411 7.25 9.56555V8.62805H9C9.06628 8.62813 9.12983 8.66109 9.1767 8.71967C9.22357 8.77826 9.24993 8.8577 9.25 8.94055V12.3781ZM11.75 9.56555C11.7499 9.64841 11.7236 9.72784 11.6767 9.78643C11.6298 9.84502 11.5663 9.87797 11.5 9.87805H9.75V8.94055C9.74978 8.69199 9.6707 8.4537 9.53009 8.27794C9.38948 8.10218 9.19885 8.00332 9 8.00305H8.5V6.12805C8.50007 6.0452 8.52643 5.96576 8.5733 5.90717C8.62017 5.84859 8.68372 5.81563 8.75 5.81555H11.5C11.5663 5.81563 11.6298 5.84859 11.6767 5.90717C11.7236 5.96576 11.7499 6.0452 11.75 6.12805V9.56555Z" fill="#020F33"/>
</svg>
