<svg width="18" height="18" viewBox="0 0 18 18" fill="none" xmlns="http://www.w3.org/2000/svg">
<path d="M11.3696 2.20708C10.7044 1.48896 9.77542 1.09351 8.75003 1.09351C7.71917 1.09351 6.78709 1.48657 6.12503 2.20024C5.45579 2.92178 5.12972 3.90239 5.20628 4.96128C5.35804 7.05034 6.94774 8.74975 8.75003 8.74975C10.5523 8.74975 12.1393 7.05068 12.2934 4.96196C12.371 3.91265 12.0429 2.93408 11.3696 2.20708Z" fill="#ffff"/>
<path d="M14.7658 16.4052H2.73457C2.57709 16.4073 2.42114 16.3742 2.27805 16.3084C2.13497 16.2426 2.00836 16.1457 1.90742 16.0248C1.68525 15.7592 1.5957 15.3966 1.66201 15.0298C1.95049 13.4295 2.85078 12.0852 4.26582 11.1415C5.52295 10.3038 7.11538 9.84271 8.75019 9.84271C10.385 9.84271 11.9774 10.3041 13.2346 11.1415C14.6496 12.0849 15.5499 13.4292 15.8384 15.0295C15.9047 15.3962 15.8151 15.7589 15.593 16.0244C15.4921 16.1454 15.3655 16.2423 15.2224 16.3082C15.0793 16.3741 14.9233 16.4072 14.7658 16.4052V16.4052Z" fill="#ffff"/>
</svg>
